<svg width="32" height="36" viewBox="0 0 32 36" fill="none" xmlns="http://www.w3.org/2000/svg">
<path d="M26.6697 18.9478C26.6891 17.5822 27.0887 16.2432 27.8313 15.0554C28.5739 13.8676 29.6354 12.8697 30.9171 12.1544C30.1029 11.0988 29.0288 10.2301 27.7801 9.61726C26.5314 9.00443 25.1425 8.66437 23.7236 8.62407C20.6971 8.33568 17.763 10.2681 16.2207 10.2681C14.6486 10.2681 12.274 8.6527 9.71696 8.70046C8.063 8.74897 6.45109 9.18559 5.03828 9.96777C3.62547 10.7499 2.45994 11.851 1.65525 13.1637C-1.83047 18.6423 0.769566 26.6939 4.10859 31.1223C5.77918 33.2908 7.73162 35.7131 10.2863 35.6272C12.7863 35.5331 13.72 34.18 16.7376 34.18C19.7273 34.18 20.6033 35.6272 23.2098 35.5726C25.8924 35.533 27.5825 33.3945 29.1945 31.2054C30.3948 29.6603 31.3184 27.9526 31.9312 26.1456C30.3727 25.5472 29.0427 24.5456 28.1071 23.2656C27.1715 21.9856 26.6716 20.484 26.6697 18.9478Z" fill="#233375"/>
<path d="M21.7459 5.71123C23.2086 4.11726 23.9292 2.06849 23.7547 0C21.5201 0.213062 19.4559 1.18259 17.9735 2.71539C17.2487 3.46421 16.6936 4.33536 16.3399 5.27905C15.9862 6.22274 15.8409 7.22046 15.9122 8.21518C17.0299 8.22562 18.1356 8.0057 19.1461 7.57198C20.1566 7.13825 21.0455 6.50203 21.7459 5.71123Z" fill="#233375"/>
</svg>
