<svg width="74" height="70" viewBox="0 0 74 70" fill="none" xmlns="http://www.w3.org/2000/svg">
<path d="M70.2611 5.60058C70.2587 4.62897 70.0043 3.6746 69.5226 2.8308C69.0409 1.98699 68.3484 1.28265 67.5129 0.786647C66.6775 0.290642 65.7276 0.0199571 64.7561 0.00106195C63.7847 -0.0178333 62.825 0.215709 61.9709 0.678849L2.93809 32.7356C2.04721 33.2187 1.30369 33.9339 0.786421 34.8053C0.269146 35.6768 -0.00259666 36.672 1.87017e-05 37.6854V59.5525C-0.000872855 60.5257 0.251234 61.4825 0.731608 62.3288C1.21198 63.1752 1.90412 63.8822 2.74013 64.3804C3.57614 64.8786 4.5273 65.1509 5.5003 65.1707C6.4733 65.1904 7.43472 64.9569 8.29024 64.493L67.3698 32.4081C68.2579 31.9266 68.9996 31.2143 69.5167 30.3465C70.0338 29.4786 70.3071 28.4873 70.3079 27.477L70.2611 5.60058Z" fill="#233375"/>
<mask id="mask0_657_2617" style="mask-type:alpha" maskUnits="userSpaceOnUse" x="0" y="0" width="71" height="66">
<path d="M70.2611 5.60058C70.2587 4.62897 70.0043 3.6746 69.5226 2.8308C69.0409 1.98699 68.3484 1.28265 67.5129 0.786647C66.6775 0.290642 65.7276 0.0199571 64.7561 0.00106195C63.7847 -0.0178333 62.825 0.215709 61.9709 0.678849L2.93809 32.7356C2.04721 33.2187 1.30369 33.9339 0.786421 34.8053C0.269146 35.6768 -0.00259666 36.672 1.87017e-05 37.6854V59.5525C-0.000872855 60.5257 0.251234 61.4825 0.731608 62.3288C1.21198 63.1752 1.90412 63.8822 2.74013 64.3804C3.57614 64.8786 4.5273 65.1509 5.5003 65.1707C6.4733 65.1904 7.43472 64.9569 8.29024 64.493L67.3698 32.4081C68.2579 31.9266 68.9996 31.2143 69.5167 30.3465C70.0338 29.4786 70.3071 28.4873 70.3079 27.477L70.2611 5.60058Z" fill="#233375"/>
</mask>
<g mask="url(#mask0_657_2617)">
<path d="M0.624042 175.947L0.242188 176.05L-61.0879 -52.8374L-60.7061 -52.9397L0.624042 175.947Z" fill="#F3F3F3"/>
<path d="M2.14357 175.535L1.76172 175.638L-59.5684 -53.2495L-59.1865 -53.3518L2.14357 175.535Z" fill="#F3F3F3"/>
<path d="M3.66701 175.125L3.28516 175.227L-58.045 -53.6598L-57.6631 -53.7621L3.66701 175.125Z" fill="#F3F3F3"/>
<path d="M5.19045 174.719L4.80859 174.822L-56.5215 -54.0654L-56.1397 -54.1678L5.19045 174.719Z" fill="#F3F3F3"/>
<path d="M6.72951 174.307L6.34766 174.409L-54.9825 -54.478L-54.6006 -54.5804L6.72951 174.307Z" fill="#F3F3F3"/>
<path d="M8.24513 173.903L7.86328 174.006L-53.4668 -54.8813L-53.085 -54.9836L8.24513 173.903Z" fill="#F3F3F3"/>
<path d="M9.77248 173.495L9.39062 173.598L-51.9395 -55.2894L-51.5576 -55.3917L9.77248 173.495Z" fill="#F3F3F3"/>
<path d="M11.2998 173.085L10.918 173.187L-50.4121 -55.6997L-50.0303 -55.802L11.2998 173.085Z" fill="#F3F3F3"/>
<path d="M12.8311 172.675L12.4492 172.777L-48.8809 -56.1101L-48.499 -56.2124L12.8311 172.675Z" fill="#F3F3F3"/>
<path d="M14.3506 172.263L13.9688 172.365L-47.3614 -56.522L-46.9795 -56.6243L14.3506 172.263Z" fill="#F3F3F3"/>
<path d="M15.8779 171.857L15.4961 171.959L-45.834 -56.9277L-45.4522 -57.0301L15.8779 171.857Z" fill="#F3F3F3"/>
<path d="M17.3975 171.447L17.0156 171.549L-44.3145 -57.338L-43.9326 -57.4403L17.3975 171.447Z" fill="#F3F3F3"/>
<path d="M18.9209 171.041L18.5391 171.143L-42.7911 -57.7437L-42.4092 -57.846L18.9209 171.041Z" fill="#F3F3F3"/>
<path d="M20.4561 170.631L20.0742 170.733L-41.2559 -58.154L-40.874 -58.2563L20.4561 170.631Z" fill="#F3F3F3"/>
<path d="M21.9834 170.223L21.6016 170.325L-39.7285 -58.562L-39.3467 -58.6643L21.9834 170.223Z" fill="#F3F3F3"/>
<path d="M23.5029 169.819L23.1211 169.922L-38.209 -58.9653L-37.8272 -59.0676L23.5029 169.819Z" fill="#F3F3F3"/>
<path d="M25.0225 169.407L24.6406 169.509L-36.6895 -59.3779L-36.3076 -59.4802L25.0225 169.407Z" fill="#F3F3F3"/>
<path d="M26.5615 168.99L26.1797 169.093L-35.1504 -59.7946L-34.7686 -59.8969L26.5615 168.99Z" fill="#F3F3F3"/>
<path d="M28.0928 168.588L27.7109 168.691L-33.6192 -60.1964L-33.2373 -60.2987L28.0928 168.588Z" fill="#F3F3F3"/>
<path d="M29.6123 168.179L29.2305 168.281L-32.0996 -60.6061L-31.7178 -60.7084L29.6123 168.179Z" fill="#F3F3F3"/>
<path d="M31.1319 167.766L30.75 167.869L-30.5801 -61.0186L-30.1983 -61.1209L31.1319 167.766Z" fill="#F3F3F3"/>
<path d="M32.6592 167.361L32.2773 167.463L-29.0528 -61.4242L-28.6709 -61.5265L32.6592 167.361Z" fill="#F3F3F3"/>
<path d="M34.1904 166.95L33.8086 167.053L-27.5215 -61.8344L-27.1397 -61.9368L34.1904 166.95Z" fill="#F3F3F3"/>
<path d="M35.7139 166.544L35.332 166.647L-25.9981 -62.2403L-25.6162 -62.3426L35.7139 166.544Z" fill="#F3F3F3"/>
<path d="M37.2373 166.134L36.8555 166.237L-24.4746 -62.6505L-24.0928 -62.7528L37.2373 166.134Z" fill="#F3F3F3"/>
<path d="M38.7686 165.72L38.3867 165.822L-22.9434 -63.065L-22.5615 -63.1673L38.7686 165.72Z" fill="#F3F3F3"/>
<path d="M40.2998 165.316L39.918 165.418L-21.4121 -63.469L-21.0303 -63.5713L40.2998 165.316Z" fill="#F3F3F3"/>
<path d="M41.8194 164.904L41.4375 165.006L-19.8926 -63.8809L-19.5108 -63.9832L41.8194 164.904Z" fill="#F3F3F3"/>
<path d="M43.3467 164.498L42.9648 164.6L-18.3653 -64.2868L-17.9834 -64.3891L43.3467 164.498Z" fill="#F3F3F3"/>
<path d="M44.8701 164.086L44.4883 164.188L-16.8418 -64.6992L-16.46 -64.8016L44.8701 164.086Z" fill="#F3F3F3"/>
<path d="M46.3975 163.675L46.0156 163.778L-15.3145 -65.1095L-14.9326 -65.2118L46.3975 163.675Z" fill="#F3F3F3"/>
<path d="M47.9248 163.272L47.543 163.374L-13.7871 -65.5129L-13.4053 -65.6152L47.9248 163.272Z" fill="#F3F3F3"/>
<path d="M49.4483 162.864L49.0664 162.966L-12.2637 -65.9207L-11.8818 -66.0231L49.4483 162.864Z" fill="#F3F3F3"/>
<path d="M50.9717 162.454L50.5898 162.556L-10.7403 -66.331L-10.3584 -66.4333L50.9717 162.454Z" fill="#F3F3F3"/>
<path d="M52.4951 162.048L52.1133 162.15L-9.21682 -66.7367L-8.83497 -66.839L52.4951 162.048Z" fill="#F3F3F3"/>
<path d="M54.0264 161.631L53.6445 161.734L-7.68558 -67.1536L-7.30373 -67.2559L54.0264 161.631Z" fill="#F3F3F3"/>
<path d="M55.5537 161.223L55.1719 161.326L-6.15824 -67.5615L-5.77638 -67.6639L55.5537 161.223Z" fill="#F3F3F3"/>
<path d="M57.0733 160.813L56.6914 160.915L-4.63871 -67.9718L-4.25685 -68.0741L57.0733 160.813Z" fill="#F3F3F3"/>
<path d="M58.6006 160.407L58.2188 160.51L-3.11135 -68.3774L-2.7295 -68.4797L58.6006 160.407Z" fill="#F3F3F3"/>
<path d="M60.124 160.002L59.7422 160.104L-1.58791 -68.7831L-1.20606 -68.8854L60.124 160.002Z" fill="#F3F3F3"/>
<path d="M61.6553 159.591L61.2734 159.694L-0.0566645 -69.1935L0.32519 -69.2958L61.6553 159.591Z" fill="#F3F3F3"/>
<path d="M63.1826 159.186L62.8008 159.288L1.47068 -69.5992L1.85253 -69.7015L63.1826 159.186Z" fill="#F3F3F3"/>
<path d="M64.7022 158.78L64.3203 158.882L2.99021 -70.0049L3.37206 -70.1072L64.7022 158.78Z" fill="#F3F3F3"/>
<path d="M66.2256 158.363L65.8438 158.466L4.51364 -70.4214L4.89549 -70.5237L66.2256 158.363Z" fill="#F3F3F3"/>
<path d="M67.7569 157.953L67.375 158.055L6.04489 -70.8317L6.42674 -70.934L67.7569 157.953Z" fill="#F3F3F3"/>
<path d="M69.2881 157.545L68.9062 157.647L7.57614 -71.2398L7.95799 -71.3421L69.2881 157.545Z" fill="#F3F3F3"/>
<path d="M70.8115 157.139L70.4297 157.242L9.09957 -71.6455L9.48143 -71.7478L70.8115 157.139Z" fill="#F3F3F3"/>
<path d="M72.335 156.729L71.9531 156.831L10.623 -72.0558L11.0049 -72.1581L72.335 156.729Z" fill="#F3F3F3"/>
<path d="M73.8584 156.323L73.4766 156.426L12.1465 -72.4614L12.5283 -72.5637L73.8584 156.323Z" fill="#F3F3F3"/>
<path d="M75.3897 155.913L75.0078 156.015L13.6777 -72.8718L14.0596 -72.9741L75.3897 155.913Z" fill="#F3F3F3"/>
<path d="M76.9092 155.499L76.5273 155.601L15.1972 -73.286L15.5791 -73.3883L76.9092 155.499Z" fill="#F3F3F3"/>
<path d="M78.4365 155.095L78.0547 155.197L16.7246 -73.6899L17.1064 -73.7922L78.4365 155.095Z" fill="#F3F3F3"/>
<path d="M79.9639 154.683L79.582 154.785L18.2519 -74.1021L18.6338 -74.2044L79.9639 154.683Z" fill="#F3F3F3"/>
<path d="M81.4873 154.272L81.1055 154.375L19.7754 -74.5123L20.1572 -74.6147L81.4873 154.272Z" fill="#F3F3F3"/>
<path d="M83.0147 153.867L82.6328 153.969L21.3027 -74.918L21.6846 -75.0203L83.0147 153.867Z" fill="#F3F3F3"/>
<path d="M84.5459 153.459L84.1641 153.561L22.834 -75.326L23.2158 -75.4283L84.5459 153.459Z" fill="#F3F3F3"/>
<path d="M86.0654 153.048L85.6836 153.151L24.3535 -75.7363L24.7353 -75.8386L86.0654 153.048Z" fill="#F3F3F3"/>
<path d="M87.5928 152.643L87.2109 152.745L25.8808 -76.1421L26.2627 -76.2444L87.5928 152.643Z" fill="#F3F3F3"/>
<path d="M89.1201 152.226L88.7383 152.328L27.4082 -76.5586L27.79 -76.6609L89.1201 152.226Z" fill="#F3F3F3"/>
<path d="M90.6514 151.827L90.2695 151.929L28.9394 -76.958L29.3213 -77.0603L90.6514 151.827Z" fill="#F3F3F3"/>
<path d="M92.1709 151.415L91.7891 151.517L30.4589 -77.37L30.8408 -77.4723L92.1709 151.415Z" fill="#F3F3F3"/>
<path d="M93.6904 151.004L93.3086 151.107L31.9785 -77.7803L32.3603 -77.8826L93.6904 151.004Z" fill="#F3F3F3"/>
<path d="M95.2217 150.592L94.8398 150.694L33.5097 -78.1929L33.8916 -78.2952L95.2217 150.592Z" fill="#F3F3F3"/>
<path d="M96.7569 150.186L96.375 150.288L35.0449 -78.5987L35.4268 -78.701L96.7569 150.186Z" fill="#F3F3F3"/>
<path d="M98.2803 149.78L97.8984 149.883L36.5683 -79.0044L36.9502 -79.1067L98.2803 149.78Z" fill="#F3F3F3"/>
<path d="M99.7998 149.37L99.418 149.472L38.0879 -79.4146L38.4697 -79.517L99.7998 149.37Z" fill="#F3F3F3"/>
<path d="M101.327 148.962L100.945 149.064L39.6152 -79.8227L39.9971 -79.925L101.327 148.962Z" fill="#F3F3F3"/>
<path d="M102.858 148.552L102.477 148.654L41.1465 -80.233L41.5283 -80.3353L102.858 148.552Z" fill="#F3F3F3"/>
<path d="M104.378 148.142L103.996 148.244L42.666 -80.6427L43.0478 -80.745L104.378 148.142Z" fill="#F3F3F3"/>
<path d="M105.897 147.73L105.516 147.832L44.1855 -81.0552L44.5674 -81.1575L105.897 147.73Z" fill="#F3F3F3"/>
<path d="M107.425 147.326L107.043 147.428L45.7129 -81.4586L46.0947 -81.5609L107.425 147.326Z" fill="#F3F3F3"/>
<path d="M108.956 146.916L108.574 147.018L47.2441 -81.8689L47.626 -81.9712L108.956 146.916Z" fill="#F3F3F3"/>
<path d="M110.487 146.508L110.105 146.61L48.7754 -82.2769L49.1572 -82.3793L110.487 146.508Z" fill="#F3F3F3"/>
<path d="M112.019 146.1L111.637 146.202L50.3066 -82.685L50.6885 -82.7873L112.019 146.1Z" fill="#F3F3F3"/>
<path d="M113.538 145.69L113.156 145.792L51.8261 -83.0951L52.208 -83.1974L113.538 145.69Z" fill="#F3F3F3"/>
</g>
<path d="M73.0844 10.4475C73.0862 9.47297 72.8343 8.51475 72.3534 7.66711C71.8726 6.81947 71.1794 6.1116 70.3419 5.61313C69.5045 5.11465 68.5518 4.84274 67.5775 4.82414C66.6031 4.80554 65.6407 5.0409 64.7849 5.50705L5.75211 37.5919C4.86228 38.0722 4.1187 38.7839 3.5999 39.6519C3.0811 40.5198 2.80636 41.5118 2.80469 42.523V64.3901C2.80542 65.3625 3.05871 66.318 3.53975 67.1631C4.02078 68.0082 4.71308 68.7139 5.54882 69.211C6.38456 69.7081 7.33509 69.9796 8.3073 69.9989C9.27952 70.0182 10.2401 69.7847 11.0949 69.3212L70.1744 37.2457C71.0625 36.7641 71.8042 36.0519 72.3213 35.184C72.8384 34.3162 73.1118 33.3248 73.1125 32.3146L73.0844 10.4475Z" fill="#FF5C5C"/>
<path d="M67.4085 19.5093C67.5802 19.8992 67.6553 20.3248 67.6274 20.75V24.1695L66.783 24.5761V21.2191C66.813 21.0143 66.7997 20.8056 66.744 20.6062C66.6884 20.4069 66.5915 20.2215 66.4598 20.0619C66.2513 19.8638 65.9281 19.8846 65.5215 20.114C65.2274 20.2812 64.9661 20.5002 64.75 20.7604C64.5303 21.0301 64.3544 21.3326 64.2287 21.657C64.1032 21.9687 64.036 22.3009 64.0306 22.637V26.1087L63.2383 26.5466L63.3217 20.7083L64.0306 20.3121V21.2191C64.1912 20.8009 64.4163 20.4104 64.6979 20.0619C64.9825 19.7079 65.3375 19.4168 65.7404 19.207C66.0468 19.0016 66.4167 18.9129 66.783 18.9568C66.9262 18.9868 67.0591 19.0535 67.1688 19.1504C67.2784 19.2472 67.361 19.3709 67.4085 19.5093Z" fill="white" stroke="white" stroke-width="0.5"/>
<path d="M61.4591 22.491C61.7014 22.6547 61.8843 22.8924 61.9804 23.1686C62.1121 23.5287 62.1688 23.9118 62.1472 24.2946C62.1434 24.7506 62.0732 25.2037 61.9387 25.6395C61.8041 26.0833 61.6187 26.5101 61.3861 26.9114C61.1605 27.3112 60.8875 27.6822 60.5729 28.0165C60.265 28.3262 59.9139 28.5896 59.5304 28.7984C59.2099 28.983 58.8552 29.1001 58.4878 29.1425C58.209 29.1518 57.9336 29.0793 57.6955 28.934C57.4552 28.7659 57.276 28.5244 57.1846 28.2459C57.0485 27.8832 56.9882 27.4964 57.0074 27.1095C57.017 26.6574 57.0871 26.2085 57.2159 25.775C57.3524 25.3319 57.5377 24.9053 57.7684 24.5031C58.0007 24.1242 58.2772 23.7742 58.5921 23.4605C58.891 23.1352 59.2437 22.8637 59.6346 22.6578C59.9511 22.4677 60.3087 22.3569 60.6772 22.3346C60.948 22.2968 61.2236 22.3519 61.4591 22.491ZM61.1984 25.7333C61.2895 25.3933 61.3351 25.0427 61.334 24.6908C61.3495 24.408 61.3106 24.1248 61.2193 23.8567C61.154 23.6581 61.0305 23.4838 60.8648 23.3563C60.711 23.2345 60.5187 23.1717 60.3227 23.1791C60.0833 23.1926 59.8507 23.2642 59.645 23.3876C59.3794 23.535 59.1399 23.7252 58.9361 23.9505C58.7273 24.1868 58.5455 24.4455 58.394 24.722C58.2282 25.0096 58.1019 25.3182 58.0187 25.6395C57.933 25.956 57.884 26.2813 57.8727 26.6091C57.8677 26.8948 57.9064 27.1795 57.9874 27.4535C58.0508 27.6559 58.1745 27.8341 58.3418 27.9644C58.4994 28.0779 58.6899 28.1365 58.884 28.1312C59.1287 28.1203 59.3661 28.0447 59.5721 27.9123C59.8324 27.7657 60.0681 27.5793 60.2706 27.3597C60.4803 27.128 60.6622 26.8726 60.8127 26.5986C60.9774 26.3093 61.107 26.0013 61.1984 25.6812" fill="white"/>
<path d="M61.1984 25.7333C61.2895 25.3933 61.3351 25.0427 61.334 24.6908C61.3495 24.408 61.3106 24.1248 61.2193 23.8567C61.154 23.6581 61.0305 23.4838 60.8648 23.3563C60.711 23.2345 60.5187 23.1717 60.3227 23.1791C60.0833 23.1926 59.8507 23.2642 59.645 23.3876C59.3794 23.535 59.1399 23.7252 58.9361 23.9505C58.7273 24.1868 58.5455 24.4455 58.394 24.722C58.2282 25.0096 58.1019 25.3182 58.0187 25.6395C57.933 25.956 57.884 26.2813 57.8727 26.6091C57.8677 26.8947 57.9064 27.1795 57.9874 27.4535C58.0508 27.6559 58.1745 27.8341 58.3418 27.9644C58.4994 28.0779 58.6899 28.1365 58.884 28.1312C59.1287 28.1203 59.3661 28.0447 59.5721 27.9123C59.8324 27.7657 60.0681 27.5793 60.2706 27.3597C60.4803 27.128 60.6622 26.8726 60.8127 26.5986C60.9774 26.3093 61.107 26.0013 61.1984 25.6812M61.4591 22.491C61.7014 22.6547 61.8843 22.8924 61.9804 23.1686C62.1121 23.5287 62.1688 23.9118 62.1472 24.2946C62.1434 24.7506 62.0732 25.2037 61.9387 25.6395C61.8041 26.0833 61.6187 26.5101 61.3861 26.9114C61.1605 27.3112 60.8875 27.6822 60.5729 28.0165C60.265 28.3262 59.9139 28.5896 59.5304 28.7984C59.2099 28.983 58.8552 29.1001 58.4878 29.1425C58.209 29.1518 57.9336 29.0793 57.6955 28.934C57.4552 28.7659 57.276 28.5244 57.1846 28.2459C57.0485 27.8832 56.9882 27.4964 57.0074 27.1095C57.017 26.6574 57.0871 26.2085 57.2159 25.775C57.3524 25.3319 57.5377 24.9053 57.7684 24.5031C58.0007 24.1242 58.2772 23.7742 58.5921 23.4605C58.891 23.1352 59.2437 22.8637 59.6346 22.6578C59.9511 22.4677 60.3087 22.3569 60.6772 22.3346C60.948 22.2968 61.2236 22.3519 61.4591 22.491Z" stroke="white" stroke-width="0.5"/>
<path d="M55.4463 25.8168C55.6917 25.975 55.8785 26.2094 55.978 26.484C56.0987 26.8468 56.1551 27.2278 56.1448 27.61C56.1331 28.0695 56.0595 28.5254 55.9258 28.9653C55.7955 29.409 55.6135 29.8359 55.3837 30.2372C55.1543 30.634 54.8778 31.0015 54.5601 31.3319C54.2557 31.6455 53.9039 31.9094 53.5175 32.1138C53.1993 32.3033 52.8435 32.4207 52.475 32.4578C52.195 32.4784 51.9162 32.4051 51.6826 32.2493C51.4423 32.0835 51.26 31.8465 51.1614 31.5717C51.0361 31.2064 50.9795 30.8211 50.9946 30.4353C50.999 29.9835 51.0657 29.5344 51.1926 29.1008C51.336 28.6603 51.5211 28.2344 51.7452 27.8289C51.9754 27.4327 52.2519 27.0652 52.5688 26.7342C52.8757 26.4176 53.2268 26.1472 53.6114 25.9315C53.9289 25.7454 54.2864 25.6382 54.6539 25.6187C54.9332 25.5881 55.2142 25.6584 55.4463 25.8168ZM55.1856 29.0487C55.2756 28.7295 55.3247 28.4002 55.3316 28.0687C55.342 27.7861 55.3032 27.5039 55.2169 27.2346C55.1506 27.0309 55.0232 26.8525 54.852 26.7238C54.6991 26.6089 54.5114 26.55 54.3203 26.557C54.0773 26.5689 53.841 26.6405 53.6322 26.7655C53.3742 26.9154 53.139 27.1015 52.9337 27.318C52.7191 27.5558 52.5336 27.8183 52.3811 28.1C52.2258 28.3876 52.1034 28.6919 52.0163 29.007C51.927 29.3228 51.878 29.6485 51.8703 29.9766C51.8594 30.266 51.8982 30.5551 51.985 30.8315C52.0513 31.0324 52.1744 31.2099 52.3394 31.3423C52.4983 31.4451 52.6821 31.5028 52.8712 31.5091C53.1173 31.4884 53.3558 31.4137 53.5697 31.2902C53.8262 31.1426 54.0583 30.9562 54.2577 30.7376C54.4707 30.5023 54.6561 30.2435 54.8103 29.9661C54.9778 29.6794 55.1041 29.3706 55.1856 29.0487Z" fill="white"/>
<path d="M55.1856 29.0487C55.2756 28.7295 55.3247 28.4002 55.3316 28.0687C55.342 27.7861 55.3032 27.5039 55.2169 27.2346C55.1506 27.0309 55.0232 26.8525 54.852 26.7238C54.6991 26.6089 54.5114 26.55 54.3203 26.557C54.0773 26.5689 53.841 26.6405 53.6322 26.7655C53.3742 26.9154 53.139 27.1015 52.9337 27.318C52.7191 27.5558 52.5336 27.8183 52.3811 28.1C52.2258 28.3876 52.1034 28.6919 52.0163 29.007C51.927 29.3228 51.878 29.6485 51.8703 29.9766C51.8594 30.266 51.8982 30.5551 51.985 30.8315C52.0513 31.0324 52.1744 31.2099 52.3394 31.3423C52.4983 31.4451 52.6821 31.5028 52.8712 31.5091C53.1173 31.4884 53.3558 31.4137 53.5697 31.2902C53.8262 31.1426 54.0583 30.9562 54.2577 30.7376C54.4707 30.5023 54.6561 30.2435 54.8103 29.9661C54.9778 29.6794 55.1041 29.3706 55.1856 29.0487M55.4463 25.8168C55.6917 25.975 55.8785 26.2094 55.978 26.484C56.0987 26.8468 56.1551 27.2278 56.1448 27.61C56.1331 28.0695 56.0595 28.5254 55.9258 28.9653C55.7955 29.409 55.6135 29.8359 55.3837 30.2372C55.1543 30.634 54.8778 31.0015 54.5601 31.3319C54.2557 31.6455 53.9039 31.9094 53.5175 32.1138C53.1993 32.3033 52.8435 32.4207 52.475 32.4578C52.195 32.4784 51.9162 32.4051 51.6826 32.2493C51.4423 32.0835 51.26 31.8465 51.1614 31.5717C51.0361 31.2064 50.9795 30.8211 50.9946 30.4353C50.999 29.9835 51.0657 29.5344 51.1926 29.1008C51.336 28.6603 51.5211 28.2344 51.7452 27.8289C51.9754 27.4327 52.2519 27.0652 52.5688 26.7342C52.8757 26.4176 53.2268 26.1472 53.6114 25.9315C53.9289 25.7454 54.2864 25.6382 54.6539 25.6187C54.9332 25.5881 55.2142 25.6584 55.4463 25.8168V25.8168Z" stroke="white" stroke-width="0.5"/>
<path d="M48.7507 31.2796C48.9288 31.2039 49.1202 31.1648 49.3137 31.1648C49.5072 31.1648 49.6987 31.2039 49.8767 31.2796C50.1269 31.4151 50.2416 31.707 50.2416 32.1449C50.2342 32.4261 50.1814 32.7042 50.0852 32.9685C49.9748 33.2481 49.8387 33.5169 49.6786 33.7713C49.5052 34.0333 49.2984 34.2716 49.0635 34.4802C48.8364 34.7014 48.5804 34.8908 48.3024 35.0432C48.0428 35.1969 47.7562 35.2995 47.458 35.3455C47.229 35.3826 46.9942 35.3422 46.7907 35.2308C46.5893 35.1251 46.4362 34.9459 46.3633 34.7304L47.0826 34.0423C47.1324 34.1385 47.2033 34.2222 47.2899 34.2872C47.3766 34.3522 47.4768 34.3968 47.5831 34.4176C47.8386 34.4543 48.0986 34.3949 48.3129 34.2508C48.5233 34.1321 48.7163 33.9847 48.8863 33.813C49.0433 33.648 49.1766 33.462 49.2824 33.2604C49.3712 33.0818 49.4209 32.8863 49.4284 32.687C49.4284 32.197 49.126 32.0406 48.5005 32.2491L48.1148 32.3742C47.7437 32.5524 47.3186 32.5822 46.9263 32.4576C46.7921 32.365 46.686 32.2372 46.6198 32.0882C46.5536 31.9392 46.5298 31.7748 46.5509 31.6132C46.5616 31.2533 46.6431 30.899 46.7907 30.5706C46.9532 30.2182 47.1715 29.8943 47.4371 29.6115C47.7142 29.3154 48.0339 29.0623 48.3858 28.8608C48.6328 28.7181 48.9057 28.6259 49.1886 28.5898C49.4054 28.5481 49.63 28.593 49.8141 28.7149C49.9949 28.8432 50.13 29.0258 50.1999 29.2362L49.4909 29.9034C49.4523 29.8081 49.3915 29.7233 49.3135 29.6562C49.2355 29.5891 49.1427 29.5416 49.0426 29.5176C48.9265 29.4918 48.8062 29.4905 48.6895 29.5139C48.5728 29.5372 48.4623 29.5847 48.365 29.6532C48.1662 29.7579 47.9864 29.8954 47.8333 30.0598C47.6911 30.2082 47.5717 30.3768 47.4788 30.5602C47.3987 30.7229 47.3526 30.9003 47.3433 31.0815C47.3289 31.1707 47.3446 31.2622 47.3881 31.3415C47.4315 31.4208 47.5001 31.4834 47.5831 31.5193C47.8517 31.5625 48.1271 31.5263 48.3754 31.4151L48.7507 31.2796Z" fill="white" stroke="white" stroke-width="0.5"/>
<path d="M42.4301 33.3335L42.4823 32.2909L43.1912 31.8948L43.1182 37.2326C43.1101 37.6773 43.0435 38.119 42.9201 38.5463C42.7988 38.9766 42.6237 39.39 42.3989 39.7765C42.1796 40.1559 41.9134 40.5062 41.6065 40.819C41.2949 41.1214 40.9443 41.3809 40.564 41.5905C40.2853 41.7557 39.9773 41.8655 39.6569 41.9137C39.4087 41.9882 39.1441 41.9882 38.8959 41.9137C38.6742 41.8322 38.4867 41.6778 38.3642 41.4758L39.0314 40.7252C39.2017 40.9226 39.4397 41.0491 39.6987 41.0797C40.0067 41.0906 40.3112 41.0109 40.5744 40.8503C40.9267 40.6584 41.2355 40.3958 41.4814 40.0788C41.7411 39.7702 41.9424 39.4169 42.0757 39.0363C42.2166 38.6268 42.2905 38.1973 42.2946 37.7644V37.0241C42.1031 37.4846 41.843 37.9134 41.5231 38.2961C41.2308 38.6537 40.8779 38.9572 40.4806 39.1927C40.1955 39.3633 39.8738 39.4634 39.5423 39.4846C39.2777 39.4963 39.0159 39.4272 38.7916 39.2865C38.5699 39.1093 38.4065 38.8695 38.3225 38.5984C38.1943 38.2664 38.1374 37.9112 38.1557 37.5558C38.1619 37.1247 38.2285 36.6965 38.3538 36.2839C38.4829 35.8365 38.6649 35.406 38.8959 35.0016C39.1117 34.6253 39.3706 34.2754 39.6674 33.959C39.9454 33.664 40.2651 33.4112 40.6161 33.2084C40.9287 33.0158 41.2918 32.9213 41.6587 32.9373C41.8093 32.9381 41.9577 32.9744 42.0917 33.0432C42.2258 33.1121 42.3417 33.2115 42.4301 33.3335ZM42.2425 36.0441C42.3276 35.742 42.3732 35.4301 42.378 35.1163C42.3869 34.844 42.3481 34.5724 42.2633 34.3135C42.207 34.1217 42.0853 33.9557 41.9193 33.8443C41.7675 33.7282 41.5781 33.6724 41.3876 33.688C41.1478 33.7075 40.9158 33.7824 40.7099 33.9069C40.4557 34.0494 40.2239 34.2286 40.0218 34.4386C39.8075 34.6665 39.6251 34.9226 39.4797 35.1997C39.3201 35.4706 39.1974 35.7616 39.1148 36.065C39.0282 36.3704 38.9826 36.6859 38.9793 37.0033C38.9671 37.2681 39.0024 37.5329 39.0835 37.7852C39.1478 37.9787 39.2675 38.149 39.4276 38.2752C39.5838 38.3812 39.7708 38.4326 39.9593 38.4212C40.2033 38.4065 40.4398 38.3313 40.6474 38.2022C40.8982 38.0593 41.1266 37.8802 41.325 37.6705C41.538 37.4428 41.7234 37.1909 41.8776 36.9199C42.0354 36.6444 42.158 36.3502 42.2425 36.0441Z" fill="white"/>
<path d="M42.2425 36.0441C42.3276 35.742 42.3732 35.4301 42.378 35.1163C42.3869 34.844 42.3481 34.5724 42.2633 34.3135C42.207 34.1217 42.0853 33.9557 41.9193 33.8443C41.7675 33.7282 41.5781 33.6724 41.3876 33.688C41.1478 33.7075 40.9158 33.7824 40.7099 33.9069C40.4557 34.0494 40.2239 34.2286 40.0218 34.4386C39.8075 34.6665 39.6251 34.9226 39.4797 35.1997C39.3201 35.4706 39.1974 35.7616 39.1148 36.065C39.0282 36.3704 38.9826 36.6859 38.9793 37.0033C38.9671 37.2681 39.0024 37.5329 39.0835 37.7852C39.1478 37.9787 39.2675 38.149 39.4276 38.2752C39.5838 38.3812 39.7708 38.4326 39.9593 38.4212C40.2033 38.4065 40.4398 38.3313 40.6474 38.2022C40.8982 38.0593 41.1266 37.8802 41.325 37.6705C41.538 37.4428 41.7234 37.1909 41.8776 36.9199C42.0354 36.6444 42.158 36.3502 42.2425 36.0441M42.4301 33.3335L42.4823 32.2909L43.1912 31.8948L43.1182 37.2326C43.1101 37.6773 43.0435 38.119 42.9201 38.5463C42.7988 38.9766 42.6237 39.39 42.3989 39.7765C42.1796 40.1559 41.9134 40.5062 41.6065 40.819C41.2949 41.1214 40.9443 41.3809 40.564 41.5905C40.2853 41.7557 39.9773 41.8655 39.6569 41.9137C39.4087 41.9882 39.1441 41.9882 38.8959 41.9137C38.6742 41.8322 38.4867 41.6778 38.3642 41.4758L39.0314 40.7252C39.2017 40.9226 39.4397 41.0491 39.6987 41.0797C40.0067 41.0906 40.3112 41.0109 40.5744 40.8503C40.9267 40.6584 41.2355 40.3958 41.4814 40.0788C41.7411 39.7702 41.9424 39.4169 42.0757 39.0363C42.2166 38.6268 42.2905 38.1973 42.2946 37.7644V37.0241C42.1031 37.4846 41.843 37.9134 41.5231 38.2961C41.2308 38.6537 40.8779 38.9572 40.4806 39.1927C40.1955 39.3633 39.8738 39.4634 39.5423 39.4846C39.2777 39.4963 39.0159 39.4272 38.7916 39.2865C38.5699 39.1093 38.4065 38.8695 38.3225 38.5984C38.1943 38.2664 38.1374 37.9112 38.1557 37.5558C38.1619 37.1247 38.2285 36.6965 38.3538 36.2839C38.4829 35.8365 38.6649 35.406 38.8959 35.0016C39.1117 34.6253 39.3706 34.2754 39.6674 33.959C39.9454 33.664 40.2651 33.4112 40.6161 33.2084C40.9287 33.0158 41.2918 32.9213 41.6587 32.9373C41.8093 32.9381 41.9577 32.9744 42.0917 33.0432C42.2258 33.1121 42.3417 33.2115 42.4301 33.3335Z" stroke="white" stroke-width="0.5"/>
<path d="M36.1957 35.9191C36.3416 35.947 36.4786 36.01 36.5948 36.1026C36.7111 36.1953 36.8031 36.3147 36.8629 36.4508C37.0276 36.8426 37.099 37.2673 37.0714 37.6914V41.1006L36.2791 41.5489V38.1918C36.3042 37.9953 36.2884 37.7957 36.2328 37.6055C36.1772 37.4154 36.0829 37.2388 35.9559 37.0867C35.7474 36.8782 35.4346 36.9095 35.0176 37.0867C34.7267 37.2542 34.4688 37.4732 34.2565 37.7331C34.0355 38.0076 33.8564 38.3133 33.7248 38.6401C33.5993 38.9519 33.5321 39.2841 33.5267 39.6201V43.0814L32.7344 43.5193L32.8178 37.6914L33.5267 37.2952V38.1918C33.6865 37.7764 33.9118 37.3892 34.194 37.045C34.4807 36.6903 34.8351 36.3962 35.2365 36.1797C35.5206 35.9936 35.8564 35.9023 36.1957 35.9191Z" fill="white" stroke="white" stroke-width="0.5"/>
<path d="M31.2762 36.2839C31.3179 36.2832 31.3591 36.2935 31.3957 36.3136C31.4322 36.3337 31.4629 36.363 31.4847 36.3986C31.536 36.4752 31.5582 36.5677 31.5473 36.6592C31.5473 36.7811 31.5224 36.9017 31.4743 37.0137C31.4212 37.1376 31.351 37.2534 31.2658 37.3577C31.188 37.4479 31.0965 37.5253 30.9947 37.5871C30.9116 37.6331 30.8186 37.6582 30.7236 37.6601C30.6465 37.6456 30.5766 37.6051 30.5256 37.5454C30.4757 37.4605 30.4538 37.362 30.463 37.2639C30.4632 37.1454 30.4881 37.0283 30.536 36.9199C30.5831 36.7985 30.65 36.6858 30.7341 36.5863C30.8089 36.4837 30.9049 36.3983 31.0156 36.336C31.0928 36.2865 31.1858 36.2679 31.2762 36.2839Z" fill="white" stroke="white" stroke-width="0.5"/>
<path d="M30.4922 44.7286L30.586 38.8903L31.3784 38.4524L31.2845 44.2803L30.4922 44.7286Z" fill="white" stroke="white" stroke-width="0.5"/>
<path d="M28.3456 40.2664C28.488 40.29 28.6217 40.3505 28.7333 40.442C28.8449 40.5335 28.9306 40.6527 28.9816 40.7877C29.1485 41.1752 29.22 41.5971 29.1901 42.0179L29.138 45.4792L28.3456 45.9171V42.5183C28.3772 42.3174 28.3676 42.1121 28.3174 41.915C28.2673 41.7178 28.1775 41.5329 28.0537 41.3715C27.8556 41.1734 27.5533 41.1943 27.1676 41.3715C26.8894 41.5354 26.6423 41.7472 26.4378 41.9971C26.2215 42.2635 26.0491 42.5626 25.9269 42.8832C25.8055 43.1853 25.7384 43.5065 25.7288 43.832V47.3349L24.9365 47.7728L24.9886 44.3845C25.0169 44.1829 25.0048 43.9776 24.9529 43.7807C24.901 43.5838 24.8103 43.3992 24.6863 43.2377C24.4778 43.05 24.1754 43.0709 23.7897 43.2377C23.5123 43.3943 23.268 43.6032 23.0703 43.8528C22.8596 44.1173 22.6908 44.4127 22.5699 44.7286C22.4485 45.0307 22.3814 45.3518 22.3718 45.6773L22.3197 49.1803L21.5273 49.6181L21.6107 43.7903L22.3301 43.3941V44.2594C22.4874 43.8514 22.7092 43.4712 22.9869 43.1334C23.2483 42.8002 23.5746 42.5236 23.9461 42.3203C24.2363 42.1238 24.5905 42.0455 24.9365 42.1013C25.0836 42.137 25.2188 42.2106 25.3286 42.3149C25.4384 42.4192 25.5189 42.5505 25.562 42.6956C25.6599 42.3894 25.7928 42.0955 25.9582 41.8198C26.1277 41.5299 26.3345 41.2635 26.5733 41.0275C26.7991 40.7961 27.0551 40.5962 27.3344 40.4332C27.6431 40.2656 27.9994 40.2068 28.3456 40.2664Z" fill="white" stroke="white" stroke-width="0.5"/>
<path d="M19.7431 45.6044C19.9913 45.7596 20.179 45.995 20.2748 46.2716C20.4005 46.6332 20.4571 47.0151 20.4416 47.3976C20.4287 47.857 20.3551 48.3128 20.2227 48.7529C20.0924 49.1966 19.9104 49.6235 19.6806 50.0248C19.4451 50.4175 19.1691 50.7845 18.857 51.1195C18.5502 51.4304 18.1988 51.694 17.8144 51.9014C17.4962 52.0909 17.1403 52.2084 16.7719 52.2455C16.4903 52.2633 16.21 52.1941 15.9691 52.0474C15.7368 51.8713 15.5596 51.6326 15.4582 51.3593C15.333 50.994 15.2764 50.6087 15.2914 50.2229C15.2995 49.7706 15.3697 49.3216 15.4999 48.8884C15.63 48.4429 15.8156 48.0156 16.0525 47.6165C16.3019 47.2137 16.6033 46.8457 16.9491 46.5218C17.251 46.1997 17.603 45.9286 17.9916 45.7191C18.3092 45.533 18.6667 45.4258 19.0342 45.4063C19.2858 45.3934 19.5347 45.463 19.7431 45.6044ZM19.4825 48.8363C19.5682 48.5162 19.6172 48.1875 19.6285 47.8563C19.6336 47.574 19.5949 47.2927 19.5138 47.0223C19.4464 46.8218 19.3235 46.6447 19.1593 46.5114C18.9985 46.3964 18.8043 46.3378 18.6068 46.3446C18.3673 46.3582 18.1348 46.4297 17.9291 46.5531C17.6688 46.6996 17.4331 46.8861 17.2306 47.1057C17.015 47.3426 16.8294 47.6052 16.678 47.8876C16.5192 48.1749 16.3933 48.4791 16.3027 48.7946C16.2161 49.1142 16.1706 49.4435 16.1672 49.7746C16.1518 50.0608 16.1907 50.3473 16.2819 50.6191C16.3453 50.8214 16.469 50.9997 16.6363 51.1299C16.7937 51.2358 16.9784 51.2938 17.168 51.2967C17.4114 51.2788 17.6471 51.2038 17.8561 51.0778C18.1163 50.9356 18.3492 50.7486 18.5442 50.5252C18.7639 50.2931 18.9531 50.0338 19.1072 49.7538C19.2704 49.465 19.3965 49.1567 19.4825 48.8363Z" fill="white"/>
<path d="M19.4825 48.8363C19.5682 48.5162 19.6172 48.1875 19.6285 47.8563C19.6336 47.574 19.5949 47.2927 19.5138 47.0223C19.4464 46.8218 19.3235 46.6447 19.1593 46.5114C18.9985 46.3964 18.8043 46.3378 18.6068 46.3446C18.3673 46.3582 18.1348 46.4297 17.9291 46.5531C17.6688 46.6996 17.4331 46.8861 17.2306 47.1057C17.015 47.3426 16.8294 47.6052 16.678 47.8876C16.5192 48.1749 16.3933 48.4791 16.3027 48.7946C16.2161 49.1142 16.1706 49.4435 16.1672 49.7746C16.1518 50.0608 16.1907 50.3473 16.2819 50.6191C16.3453 50.8214 16.469 50.9997 16.6363 51.1299C16.7937 51.2358 16.9784 51.2938 17.168 51.2967C17.4114 51.2788 17.6471 51.2038 17.8561 51.0778C18.1163 50.9356 18.3492 50.7486 18.5442 50.5252C18.7639 50.2931 18.9531 50.0338 19.1072 49.7538C19.2704 49.465 19.3965 49.1567 19.4825 48.8363M19.7431 45.6044C19.9913 45.7596 20.179 45.995 20.2748 46.2716C20.4005 46.6332 20.4571 47.0151 20.4416 47.3976C20.4287 47.857 20.3551 48.3128 20.2227 48.7529C20.0924 49.1966 19.9104 49.6235 19.6806 50.0248C19.4451 50.4175 19.1691 50.7845 18.857 51.1195C18.5502 51.4304 18.1988 51.694 17.8144 51.9014C17.4962 52.0909 17.1403 52.2084 16.7719 52.2455C16.4903 52.2633 16.21 52.1941 15.9691 52.0474C15.7368 51.8713 15.5596 51.6326 15.4582 51.3593C15.333 50.994 15.2764 50.6087 15.2914 50.2229C15.2995 49.7706 15.3697 49.3216 15.4999 48.8884C15.63 48.4429 15.8156 48.0156 16.0525 47.6165C16.3019 47.2137 16.6033 46.8457 16.9491 46.5218C17.251 46.1997 17.603 45.9286 17.9916 45.7191C18.3092 45.533 18.6667 45.4258 19.0342 45.4063C19.2858 45.3934 19.5347 45.463 19.7431 45.6044V45.6044Z" stroke="white" stroke-width="0.5"/>
<path d="M12.7829 53.507C13.1611 53.0201 13.4634 52.4788 13.6795 51.9014L14.4302 51.818C14.29 52.3311 14.0869 52.8249 13.8255 53.288C13.5322 53.7443 13.1818 54.1612 12.7829 54.5287C12.42 54.8857 12.0095 55.1909 11.5631 55.4357C11.1573 55.6809 10.7009 55.8307 10.2287 55.8736C9.86095 55.8987 9.49504 55.8035 9.18611 55.6025C8.87336 55.365 8.64057 55.0376 8.51888 54.6642C8.34308 54.1732 8.26516 53.6526 8.28951 53.1317C8.29658 52.6442 8.35246 52.1588 8.45632 51.6825C8.57522 51.1902 8.73565 50.7089 8.9359 50.2438C9.14315 49.7835 9.38721 49.3407 9.66569 48.9197C9.93975 48.5202 10.2542 48.1499 10.604 47.8146C10.9149 47.4996 11.2653 47.2263 11.6465 47.0014C12.0111 46.7869 12.4155 46.6486 12.835 46.5948C13.1644 46.5447 13.5011 46.6033 13.7942 46.7616C14.0887 46.9134 14.3156 47.1701 14.4302 47.481L13.6587 48.2316C13.5849 48.0656 13.471 47.9206 13.3273 47.8096C13.1835 47.6985 13.0143 47.625 12.835 47.5957C12.4207 47.544 12.0012 47.636 11.6465 47.8563C11.2586 48.0711 10.9068 48.3455 10.604 48.6695C10.2974 49.0282 10.0317 49.4198 9.81164 49.8372C9.58017 50.2743 9.39833 50.7358 9.26951 51.2134C9.13828 51.689 9.06821 52.1795 9.061 52.6729C9.04681 53.0887 9.09961 53.5041 9.21739 53.9031C9.31326 54.1996 9.49023 54.4632 9.72824 54.6642C9.95074 54.8392 10.2272 54.9313 10.5102 54.9248C10.8781 54.8923 11.2342 54.7783 11.5527 54.5912C12.0317 54.3164 12.4501 53.9476 12.7829 53.507Z" fill="white" stroke="white" stroke-width="0.5"/>
</svg>
