<svg width="94" height="35" viewBox="0 0 94 35" fill="none" xmlns="http://www.w3.org/2000/svg">
<path d="M0 30.7312L5.67562 16.4415H8.85558L14.5513 30.7312H11.472L10.3047 27.5915H4.1259L2.95857 30.7312H0ZM5.07183 25.0556H9.35874L7.20522 19.3599L5.07183 25.0556Z" fill="#233375"/>
<path d="M15.5955 34.6357V20.1045H18.1918L18.2723 21.6543C18.6346 21.0773 19.1176 20.6278 19.7214 20.3058C20.3252 19.9704 20.9894 19.8026 21.7139 19.8026C22.4116 19.8026 23.0557 19.9435 23.6461 20.2253C24.2364 20.5071 24.753 20.9029 25.1958 21.4127C25.6386 21.9092 25.9807 22.4929 26.2222 23.1637C26.4772 23.8346 26.6046 24.5659 26.6046 25.3575C26.6046 26.1626 26.4772 26.9072 26.2222 27.5915C25.9673 28.2758 25.6117 28.8796 25.1555 29.4029C24.6993 29.9128 24.1626 30.3153 23.5454 30.6105C22.9282 30.8922 22.2641 31.0331 21.5529 31.0331C20.8955 31.0331 20.2984 30.9057 19.7617 30.6507C19.225 30.3824 18.7755 30.0134 18.4132 29.5438V34.6357H15.5955ZM21.0498 28.4972C21.5596 28.4972 22.0158 28.363 22.4184 28.0947C22.8209 27.8263 23.1362 27.4641 23.3643 27.0079C23.6058 26.5382 23.7266 26.0083 23.7266 25.4179C23.7266 24.8275 23.6058 24.3042 23.3643 23.848C23.1362 23.3784 22.8209 23.0094 22.4184 22.7411C22.0158 22.4727 21.5596 22.3386 21.0498 22.3386C20.5399 22.3386 20.0837 22.4727 19.6812 22.7411C19.2787 23.0094 18.9566 23.3784 18.7151 23.848C18.487 24.3042 18.373 24.8275 18.373 25.4179C18.373 26.0083 18.487 26.5382 18.7151 27.0079C18.9566 27.4641 19.2787 27.8263 19.6812 28.0947C20.0837 28.363 20.5399 28.4972 21.0498 28.4972Z" fill="#233375"/>
<path d="M28.0471 34.6357V20.1045H30.6434L30.7239 21.6543C31.0862 21.0773 31.5692 20.6278 32.173 20.3058C32.7768 19.9704 33.441 19.8026 34.1655 19.8026C34.8632 19.8026 35.5073 19.9435 36.0976 20.2253C36.688 20.5071 37.2046 20.9029 37.6474 21.4127C38.0902 21.9092 38.4323 22.4929 38.6738 23.1637C38.9288 23.8346 39.0562 24.5659 39.0562 25.3575C39.0562 26.1626 38.9288 26.9072 38.6738 27.5915C38.4189 28.2758 38.0633 28.8796 37.6071 29.4029C37.1509 29.9128 36.6142 30.3153 35.997 30.6105C35.3798 30.8922 34.7156 31.0331 34.0045 31.0331C33.3471 31.0331 32.75 30.9057 32.2133 30.6507C31.6766 30.3824 31.2271 30.0134 30.8648 29.5438V34.6357H28.0471ZM33.5014 28.4972C34.0112 28.4972 34.4674 28.363 34.8699 28.0947C35.2725 27.8263 35.5878 27.4641 35.8159 27.0079C36.0574 26.5382 36.1782 26.0083 36.1782 25.4179C36.1782 24.8275 36.0574 24.3042 35.8159 23.848C35.5878 23.3784 35.2725 23.0094 34.8699 22.7411C34.4674 22.4727 34.0112 22.3386 33.5014 22.3386C32.9915 22.3386 32.5353 22.4727 32.1328 22.7411C31.7302 23.0094 31.4082 23.3784 31.1667 23.848C30.9386 24.3042 30.8246 24.8275 30.8246 25.4179C30.8246 26.0083 30.9386 26.5382 31.1667 27.0079C31.4082 27.4641 31.7302 27.8263 32.1328 28.0947C32.5353 28.363 32.9915 28.4972 33.5014 28.4972Z" fill="#233375"/>
<path d="M48.8911 31.0331C48.0323 31.0331 47.2407 30.8855 46.5162 30.5903C45.805 30.2817 45.1945 29.8524 44.6847 29.3023C44.1882 28.7387 43.8461 28.0678 43.6582 27.2896L46.4558 26.6858C46.6302 27.236 46.9321 27.6653 47.3615 27.9739C47.8042 28.2825 48.3275 28.4368 48.9313 28.4368C49.3607 28.4368 49.7364 28.363 50.0584 28.2154C50.3938 28.0544 50.6488 27.8397 50.8232 27.5714C51.011 27.303 51.105 26.9944 51.105 26.6456C51.105 26.2028 50.9372 25.8472 50.6018 25.5789C50.2664 25.2971 49.723 25.069 48.9716 24.8946L48.3275 24.7537C46.8516 24.4317 45.7648 23.9151 45.0671 23.204C44.3694 22.4794 44.0205 21.6006 44.0205 20.5674C44.0205 19.9234 44.148 19.333 44.4029 18.7963C44.6578 18.2596 45.0067 17.7967 45.4495 17.4076C45.9057 17.0051 46.4357 16.6965 47.0394 16.4818C47.6432 16.2537 48.294 16.1396 48.9917 16.1396C49.7833 16.1396 50.5213 16.2872 51.2056 16.5824C51.8899 16.8776 52.4668 17.3003 52.9365 17.8504C53.4061 18.4005 53.7214 19.0513 53.8824 19.8026L51.1251 20.4064C50.9641 19.8697 50.6823 19.4605 50.2798 19.1787C49.8907 18.8835 49.4345 18.7359 48.9112 18.7359C48.5489 18.7359 48.2202 18.8097 47.925 18.9573C47.6432 19.0915 47.4151 19.2861 47.2407 19.541C47.0797 19.7825 46.9992 20.0576 46.9992 20.3662C46.9992 20.8358 47.1803 21.1981 47.5426 21.453C47.9049 21.6945 48.4416 21.8958 49.1527 22.0568L49.7968 22.1977C51.2593 22.5197 52.3394 23.0296 53.0371 23.7273C53.7482 24.425 54.1038 25.3172 54.1038 26.4041C54.1038 27.0884 53.9696 27.7123 53.7013 28.2758C53.4463 28.8394 53.084 29.3291 52.6144 29.745C52.1448 30.161 51.5947 30.483 50.9641 30.7111C50.3335 30.9258 49.6425 31.0331 48.8911 31.0331Z" fill="#233375"/>
<path d="M59.928 31.0331C59.19 31.0331 58.5527 30.8922 58.016 30.6105C57.4927 30.3153 57.0835 29.8926 56.7883 29.3425C56.5065 28.7924 56.3656 28.1215 56.3656 27.3299V22.3788H54.5543V20.1045H56.3656V16.4818H59.1833V20.1045H62.0815V22.3788H59.1833V26.9877C59.1833 27.4976 59.2907 27.8934 59.5053 28.1752C59.72 28.4435 60.0487 28.5777 60.4915 28.5777C60.7196 28.5777 60.9611 28.5442 61.2161 28.4771C61.4844 28.41 61.7394 28.3228 61.9809 28.2154L62.484 30.3287C62.1352 30.5434 61.7461 30.7111 61.3167 30.8319C60.8873 30.966 60.4244 31.0331 59.928 31.0331Z" fill="#233375"/>
<path d="M68.657 31.0331C67.8654 31.0331 67.1341 30.8922 66.4632 30.6105C65.7923 30.3287 65.2087 29.9396 64.7122 29.4431C64.2158 28.9333 63.8267 28.3362 63.5449 27.6519C63.2766 26.9676 63.1424 26.2229 63.1424 25.4179C63.1424 24.6128 63.2833 23.8749 63.565 23.204C63.8468 22.5197 64.2359 21.9226 64.7324 21.4127C65.2422 20.9029 65.8326 20.5071 66.5035 20.2253C67.1878 19.9435 67.9324 19.8026 68.7375 19.8026C69.5291 19.8026 70.2604 19.9435 70.9313 20.2253C71.6021 20.5071 72.1858 20.9029 72.6823 21.4127C73.1787 21.9092 73.5611 22.4996 73.8295 23.1839C74.1112 23.8547 74.2521 24.5927 74.2521 25.3978C74.2521 26.2028 74.1112 26.9475 73.8295 27.6318C73.5477 28.3161 73.1519 28.9132 72.642 29.423C72.1456 29.9329 71.5552 30.3287 70.8709 30.6105C70.2 30.8922 69.4621 31.0331 68.657 31.0331ZM68.6972 28.4972C69.2071 28.4972 69.6633 28.363 70.0658 28.0947C70.4684 27.8263 70.7837 27.4641 71.0118 27.0079C71.2533 26.5382 71.374 26.0083 71.374 25.4179C71.374 24.8275 71.2533 24.3042 71.0118 23.848C70.7837 23.3784 70.4684 23.0094 70.0658 22.7411C69.6633 22.4727 69.2071 22.3386 68.6972 22.3386C68.1874 22.3386 67.7312 22.4727 67.3287 22.7411C66.9261 23.0094 66.6041 23.3784 66.3626 23.848C66.1345 24.3042 66.0204 24.8275 66.0204 25.4179C66.0204 26.0083 66.1345 26.5382 66.3626 27.0079C66.6041 27.4641 66.9261 27.8263 67.3287 28.0947C67.7312 28.363 68.1874 28.4972 68.6972 28.4972Z" fill="#233375"/>
<path d="M75.7017 30.7312V20.1045H78.298L78.3986 21.7146C78.6669 21.1511 79.0292 20.7217 79.4854 20.4266C79.9416 20.118 80.4783 19.9636 81.0955 19.9636C81.2834 19.9636 81.4712 19.9838 81.6591 20.024C81.8469 20.0509 82.0146 20.0911 82.1622 20.1448L81.8603 22.9222C81.7127 22.8685 81.5584 22.835 81.3974 22.8216C81.2498 22.7948 81.0955 22.7813 80.9345 22.7813C80.1563 22.7813 79.5592 23.0228 79.1433 23.5059C78.7273 23.9755 78.5194 24.6464 78.5194 25.5185V30.7312H75.7017Z" fill="#233375"/>
<path d="M88.055 31.0331C87.2634 31.0331 86.5321 30.8989 85.8612 30.6306C85.2038 30.3488 84.6335 29.9597 84.1505 29.4633C83.6675 28.9534 83.2918 28.3563 83.0234 27.672C82.7551 26.9743 82.6209 26.2162 82.6209 25.3978C82.6209 24.6061 82.7551 23.8682 83.0234 23.1839C83.2918 22.4996 83.6607 21.9092 84.1304 21.4127C84.6134 20.9029 85.1769 20.5071 85.821 20.2253C86.465 19.9435 87.1627 19.8026 87.9141 19.8026C88.6923 19.8026 89.3967 19.9368 90.0274 20.2052C90.6714 20.4735 91.2215 20.8559 91.6777 21.3524C92.1339 21.8488 92.4828 22.4392 92.7243 23.1235C92.9792 23.8078 93.1067 24.5726 93.1067 25.4179V26.1223H85.4788C85.5996 26.9139 85.8881 27.5379 86.3443 27.994C86.8004 28.4368 87.3774 28.6582 88.0751 28.6582C88.5582 28.6582 88.9942 28.5442 89.3833 28.3161C89.7859 28.088 90.1146 27.7592 90.3695 27.3299L92.8853 28.1349C92.6438 28.7387 92.2815 29.2553 91.7985 29.6847C91.3155 30.114 90.7519 30.4495 90.1079 30.691C89.4638 30.9191 88.7795 31.0331 88.055 31.0331ZM87.9141 21.9763C87.2969 21.9763 86.7736 22.1775 86.3443 22.5801C85.9283 22.9826 85.6532 23.5327 85.5191 24.2304H90.2085C90.1012 23.5327 89.8395 22.9826 89.4236 22.5801C89.021 22.1775 88.5179 21.9763 87.9141 21.9763Z" fill="#233375"/>
<path d="M0.527344 8.0891V0.348856H3.08926C3.70702 0.348856 4.26665 0.439704 4.76813 0.6214C5.27687 0.803096 5.70931 1.06474 6.06544 1.40633C6.42883 1.74065 6.70501 2.14401 6.89397 2.61642C7.0902 3.08883 7.18832 3.61575 7.18832 4.19718C7.18832 4.78587 7.0902 5.32006 6.89397 5.79973C6.70501 6.27214 6.42883 6.67914 6.06544 7.02073C5.70931 7.36232 5.28051 7.62759 4.77903 7.81656C4.27755 7.99825 3.71792 8.0891 3.10016 8.0891H0.527344ZM1.44309 7.24967H3.06745C3.5544 7.24967 3.9941 7.18062 4.38656 7.04253C4.77903 6.89718 5.11335 6.69368 5.38953 6.43204C5.6657 6.16313 5.87647 5.84334 6.02183 5.47268C6.17445 5.10202 6.25077 4.68412 6.25077 4.21898C6.25077 3.75384 6.17445 3.33594 6.02183 2.96528C5.87647 2.59462 5.66207 2.27847 5.37862 2.01682C5.10245 1.74791 4.76813 1.54442 4.37566 1.40633C3.99047 1.26097 3.5544 1.18829 3.06745 1.18829H1.44309V7.24967Z" fill="#233375"/>
<path d="M10.7991 8.25263C10.3994 8.25263 10.0287 8.17995 9.68712 8.03459C9.3528 7.88197 9.05845 7.67484 8.80408 7.41319C8.55697 7.14428 8.36437 6.82813 8.22628 6.46474C8.08819 6.10135 8.01915 5.70525 8.01915 5.27645C8.01915 4.84765 8.08819 4.45155 8.22628 4.08816C8.37164 3.72477 8.56787 3.41225 8.81498 3.15061C9.06935 2.8817 9.36733 2.67456 9.70892 2.52921C10.0505 2.37658 10.4212 2.30027 10.8209 2.30027C11.2206 2.30027 11.5877 2.37658 11.922 2.52921C12.2636 2.67456 12.5579 2.8817 12.805 3.15061C13.0594 3.41225 13.2556 3.72477 13.3937 4.08816C13.5318 4.45155 13.6008 4.84765 13.6008 5.27645C13.6008 5.70525 13.5282 6.10135 13.3828 6.46474C13.2447 6.82813 13.0485 7.14428 12.7941 7.41319C12.547 7.67484 12.2527 7.88197 11.9111 8.03459C11.5695 8.17995 11.1988 8.25263 10.7991 8.25263ZM10.81 7.4568C11.0862 7.4568 11.3369 7.40229 11.5622 7.29327C11.7948 7.18426 11.9947 7.03527 12.1618 6.8463C12.3362 6.65007 12.4707 6.42113 12.5652 6.15949C12.6597 5.89058 12.7069 5.59623 12.7069 5.27645C12.7069 4.95667 12.6597 4.66595 12.5652 4.40431C12.4707 4.1354 12.3362 3.90646 12.1618 3.7175C11.9947 3.52127 11.7948 3.36864 11.5622 3.25962C11.3369 3.15061 11.0862 3.0961 10.81 3.0961C10.5338 3.0961 10.2794 3.15061 10.0469 3.25962C9.82157 3.36864 9.62171 3.52127 9.44728 3.7175C9.28012 3.90646 9.1493 4.1354 9.05482 4.40431C8.96033 4.66595 8.91309 4.95667 8.91309 5.27645C8.91309 5.59623 8.96033 5.89058 9.05482 6.15949C9.1493 6.42113 9.28012 6.65007 9.44728 6.8463C9.62171 7.03527 9.82157 7.18426 10.0469 7.29327C10.2794 7.40229 10.5338 7.4568 10.81 7.4568Z" fill="#233375"/>
<path d="M15.8236 8.0891L13.9267 2.4638H14.8425L16.2488 7.02073L17.6987 2.4638H18.4836L19.9227 7.02073L21.329 2.4638H22.2229L20.326 8.0891H19.4866L18.0803 3.58668L16.663 8.0891H15.8236Z" fill="#233375"/>
<path d="M22.9629 8.0891V2.4638H23.7478L23.7914 3.35774C23.9586 3.03796 24.1984 2.78358 24.5109 2.59462C24.8307 2.39839 25.1978 2.30027 25.612 2.30027C26.0408 2.30027 26.4151 2.40202 26.7349 2.60552C27.0547 2.80902 27.2982 3.09973 27.4653 3.47766C27.6398 3.84832 27.727 4.28802 27.727 4.79677V8.0891H26.8548V4.85128C26.8548 4.29166 26.7313 3.85922 26.4842 3.55397C26.2443 3.24872 25.8991 3.0961 25.4485 3.0961C25.136 3.0961 24.8562 3.16878 24.6091 3.31413C24.3692 3.45222 24.1803 3.64845 24.0422 3.90283C23.9041 4.14994 23.835 4.43338 23.835 4.75316V8.0891H22.9629Z" fill="#233375"/>
<path d="M28.9942 8.0891V0H29.8663V8.0891H28.9942Z" fill="#233375"/>
<path d="M33.6681 8.25263C33.2683 8.25263 32.8977 8.17995 32.5561 8.03459C32.2218 7.88197 31.9274 7.67484 31.6731 7.41319C31.426 7.14428 31.2334 6.82813 31.0953 6.46474C30.9572 6.10135 30.8881 5.70525 30.8881 5.27645C30.8881 4.84765 30.9572 4.45155 31.0953 4.08816C31.2406 3.72477 31.4369 3.41225 31.684 3.15061C31.9383 2.8817 32.2363 2.67456 32.5779 2.52921C32.9195 2.37658 33.2902 2.30027 33.6899 2.30027C34.0896 2.30027 34.4566 2.37658 34.791 2.52921C35.1325 2.67456 35.4269 2.8817 35.674 3.15061C35.9284 3.41225 36.1246 3.72477 36.2627 4.08816C36.4008 4.45155 36.4698 4.84765 36.4698 5.27645C36.4698 5.70525 36.3972 6.10135 36.2518 6.46474C36.1137 6.82813 35.9175 7.14428 35.6631 7.41319C35.416 7.67484 35.1216 7.88197 34.7801 8.03459C34.4385 8.17995 34.0678 8.25263 33.6681 8.25263ZM33.679 7.4568C33.9552 7.4568 34.2059 7.40229 34.4312 7.29327C34.6638 7.18426 34.8636 7.03527 35.0308 6.8463C35.2052 6.65007 35.3397 6.42113 35.4342 6.15949C35.5286 5.89058 35.5759 5.59623 35.5759 5.27645C35.5759 4.95667 35.5286 4.66595 35.4342 4.40431C35.3397 4.1354 35.2052 3.90646 35.0308 3.7175C34.8636 3.52127 34.6638 3.36864 34.4312 3.25962C34.2059 3.15061 33.9552 3.0961 33.679 3.0961C33.4028 3.0961 33.1484 3.15061 32.9159 3.25962C32.6906 3.36864 32.4907 3.52127 32.3163 3.7175C32.1491 3.90646 32.0183 4.1354 31.9238 4.40431C31.8293 4.66595 31.7821 4.95667 31.7821 5.27645C31.7821 5.59623 31.8293 5.89058 31.9238 6.15949C32.0183 6.42113 32.1491 6.65007 32.3163 6.8463C32.4907 7.03527 32.6906 7.18426 32.9159 7.29327C33.1484 7.40229 33.4028 7.4568 33.679 7.4568Z" fill="#233375"/>
<path d="M39.2346 8.25263C38.8422 8.25263 38.4933 8.17995 38.188 8.03459C37.8828 7.88197 37.643 7.67484 37.4685 7.41319C37.3014 7.15155 37.2178 6.84994 37.2178 6.50835C37.2178 6.13769 37.3123 5.8179 37.5012 5.54899C37.6975 5.28008 37.97 5.07295 38.3189 4.92759C38.6677 4.77497 39.0747 4.69866 39.5399 4.69866C39.8015 4.69866 40.0668 4.72773 40.3357 4.78587C40.6046 4.84401 40.8444 4.92033 41.0552 5.01481V4.60054C41.0552 4.29529 40.9934 4.03002 40.8699 3.80471C40.7536 3.57214 40.5901 3.39408 40.3793 3.27053C40.1685 3.13971 39.9214 3.0743 39.638 3.0743C39.2964 3.0743 38.9984 3.15424 38.744 3.31413C38.4969 3.47403 38.3116 3.69933 38.188 3.99004L37.4249 3.7284C37.5267 3.43769 37.6829 3.18695 37.8937 2.97618C38.1117 2.76541 38.3697 2.60189 38.6677 2.4856C38.973 2.36931 39.3 2.31117 39.6489 2.31117C40.0995 2.31117 40.492 2.40929 40.8263 2.60552C41.1679 2.79448 41.4295 3.06339 41.6112 3.41225C41.8002 3.75384 41.8946 4.1572 41.8946 4.62234V8.0891H41.1315L41.077 7.21696C40.9171 7.52948 40.6736 7.78022 40.3466 7.96918C40.0268 8.15815 39.6562 8.25263 39.2346 8.25263ZM38.1008 6.47564C38.1008 6.68641 38.1553 6.87174 38.2644 7.03163C38.3734 7.18426 38.526 7.30418 38.7222 7.39139C38.9185 7.4786 39.1438 7.52221 39.3981 7.52221C39.7107 7.52221 39.9905 7.45317 40.2376 7.31508C40.492 7.16972 40.6918 6.97712 40.8372 6.73728C40.9825 6.49018 41.0552 6.21037 41.0552 5.89785V5.69072C40.8154 5.59623 40.5719 5.52356 40.3248 5.47268C40.085 5.41454 39.856 5.38547 39.638 5.38547C39.1583 5.38547 38.7804 5.48358 38.5042 5.67981C38.2353 5.87605 38.1008 6.14132 38.1008 6.47564Z" fill="#233375"/>
<path d="M45.5145 8.25263C45.1438 8.25263 44.7986 8.17995 44.4788 8.03459C44.159 7.88197 43.8792 7.6712 43.6394 7.40229C43.3995 7.13338 43.2105 6.82086 43.0725 6.46474C42.9416 6.10135 42.8762 5.70889 42.8762 5.28735C42.8762 4.86582 42.9416 4.47335 43.0725 4.10996C43.2105 3.74657 43.3995 3.43042 43.6394 3.16151C43.8865 2.8926 44.1735 2.68183 44.5006 2.52921C44.8276 2.37658 45.1801 2.30027 45.5581 2.30027C45.9869 2.30027 46.3721 2.39839 46.7136 2.59462C47.0625 2.79085 47.3387 3.06703 47.5422 3.42315V0H48.4143V8.0891H47.6294L47.5858 7.02073C47.3823 7.40593 47.0988 7.70754 46.7355 7.92558C46.3793 8.14361 45.9723 8.25263 45.5145 8.25263ZM45.6671 7.4568C45.9433 7.4568 46.194 7.40229 46.4193 7.29327C46.6519 7.18426 46.8517 7.03527 47.0189 6.8463C47.1933 6.65007 47.3278 6.42113 47.4223 6.15949C47.5167 5.89058 47.564 5.59623 47.564 5.27645C47.564 4.95667 47.5167 4.66595 47.4223 4.40431C47.3278 4.1354 47.1933 3.90646 47.0189 3.7175C46.8517 3.52127 46.6519 3.36864 46.4193 3.25962C46.194 3.15061 45.9433 3.0961 45.6671 3.0961C45.3909 3.0961 45.1365 3.15061 44.904 3.25962C44.6787 3.36864 44.4788 3.52127 44.3044 3.7175C44.1372 3.90646 44.0064 4.1354 43.9119 4.40431C43.8174 4.66595 43.7702 4.95667 43.7702 5.27645C43.7702 5.59623 43.8174 5.89058 43.9119 6.15949C44.0064 6.42113 44.1372 6.65007 44.3044 6.8463C44.4788 7.03527 44.6787 7.18426 44.904 7.29327C45.1365 7.40229 45.3909 7.4568 45.6671 7.4568Z" fill="#233375"/>
<path d="M54.3865 8.25263C53.9868 8.25263 53.6161 8.17995 53.2745 8.03459C52.9402 7.88197 52.6459 7.67484 52.3915 7.41319C52.1444 7.14428 51.9518 6.82813 51.8137 6.46474C51.6756 6.10135 51.6066 5.70525 51.6066 5.27645C51.6066 4.84765 51.6756 4.45155 51.8137 4.08816C51.9591 3.72477 52.1553 3.41225 52.4024 3.15061C52.6568 2.8817 52.9548 2.67456 53.2963 2.52921C53.6379 2.37658 54.0086 2.30027 54.4083 2.30027C54.8081 2.30027 55.1751 2.37658 55.5094 2.52921C55.851 2.67456 56.1453 2.8817 56.3924 3.15061C56.6468 3.41225 56.8431 3.72477 56.9811 4.08816C57.1192 4.45155 57.1883 4.84765 57.1883 5.27645C57.1883 5.70525 57.1156 6.10135 56.9702 6.46474C56.8321 6.82813 56.6359 7.14428 56.3815 7.41319C56.1344 7.67484 55.8401 7.88197 55.4985 8.03459C55.1569 8.17995 54.7863 8.25263 54.3865 8.25263ZM54.3974 7.4568C54.6736 7.4568 54.9243 7.40229 55.1496 7.29327C55.3822 7.18426 55.5821 7.03527 55.7492 6.8463C55.9237 6.65007 56.0581 6.42113 56.1526 6.15949C56.2471 5.89058 56.2943 5.59623 56.2943 5.27645C56.2943 4.95667 56.2471 4.66595 56.1526 4.40431C56.0581 4.1354 55.9237 3.90646 55.7492 3.7175C55.5821 3.52127 55.3822 3.36864 55.1496 3.25962C54.9243 3.15061 54.6736 3.0961 54.3974 3.0961C54.1212 3.0961 53.8669 3.15061 53.6343 3.25962C53.409 3.36864 53.2091 3.52127 53.0347 3.7175C52.8675 3.90646 52.7367 4.1354 52.6422 4.40431C52.5478 4.66595 52.5005 4.95667 52.5005 5.27645C52.5005 5.59623 52.5478 5.89058 52.6422 6.15949C52.7367 6.42113 52.8675 6.65007 53.0347 6.8463C53.2091 7.03527 53.409 7.18426 53.6343 7.29327C53.8669 7.40229 54.1212 7.4568 54.3974 7.4568Z" fill="#233375"/>
<path d="M58.2088 8.0891V2.4638H58.9937L59.0373 3.35774C59.2045 3.03796 59.4443 2.78358 59.7568 2.59462C60.0766 2.39839 60.4436 2.30027 60.8579 2.30027C61.2867 2.30027 61.661 2.40202 61.9808 2.60552C62.3006 2.80902 62.544 3.09973 62.7112 3.47766C62.8856 3.84832 62.9729 4.28802 62.9729 4.79677V8.0891H62.1007V4.85128C62.1007 4.29166 61.9772 3.85922 61.73 3.55397C61.4902 3.24872 61.145 3.0961 60.6944 3.0961C60.3819 3.0961 60.1021 3.16878 59.8549 3.31413C59.6151 3.45222 59.4261 3.64845 59.2881 3.90283C59.15 4.14994 59.0809 4.43338 59.0809 4.75316V8.0891H58.2088Z" fill="#233375"/>
<path d="M68.5108 8.25263C68.1693 8.25263 67.8749 8.18358 67.6278 8.0455C67.3807 7.90741 67.1881 7.70391 67.05 7.435C66.9192 7.16609 66.8538 6.83903 66.8538 6.45384V3.20512H65.8181V2.4638H66.8538V0.577793H67.7259V2.4638H69.492V3.20512H67.7259V6.41023C67.7259 6.74455 67.795 7.00619 67.9331 7.19516C68.0784 7.37685 68.2964 7.4677 68.5872 7.4677C68.7398 7.4677 68.8924 7.4459 69.045 7.40229C69.2049 7.35142 69.3467 7.28601 69.4702 7.20606L69.7318 7.88197C69.5792 7.99099 69.4012 8.0782 69.1977 8.14361C68.9942 8.21629 68.7652 8.25263 68.5108 8.25263Z" fill="#233375"/>
<path d="M70.6389 8.0891V0H71.511V3.28143C71.6782 2.98345 71.9181 2.74724 72.2306 2.57281C72.5431 2.39112 72.8956 2.30027 73.288 2.30027C73.7168 2.30027 74.0911 2.40202 74.4109 2.60552C74.7307 2.80902 74.9742 3.09973 75.1413 3.47766C75.3158 3.84832 75.403 4.28802 75.403 4.79677V8.0891H74.5308V4.85128C74.5308 4.29166 74.4073 3.85922 74.1602 3.55397C73.9203 3.24872 73.5751 3.0961 73.1245 3.0961C72.812 3.0961 72.5322 3.16878 72.2851 3.31413C72.0452 3.45222 71.8563 3.64845 71.7182 3.90283C71.5801 4.14994 71.511 4.43338 71.511 4.75316V8.0891H70.6389Z" fill="#233375"/>
<path d="M79.2212 8.25263C78.807 8.25263 78.4254 8.17995 78.0765 8.03459C77.735 7.88924 77.437 7.68574 77.1826 7.4241C76.9282 7.15519 76.732 6.84267 76.5939 6.48654C76.4558 6.12315 76.3868 5.72342 76.3868 5.28735C76.3868 4.85855 76.4522 4.46609 76.583 4.10996C76.7211 3.74657 76.9101 3.43042 77.1499 3.16151C77.397 2.8926 77.6841 2.68547 78.0111 2.54011C78.3382 2.38748 78.6943 2.31117 79.0795 2.31117C79.4502 2.31117 79.7918 2.38022 80.1043 2.51831C80.4241 2.65639 80.7002 2.84899 80.9328 3.0961C81.1654 3.3432 81.3434 3.63755 81.467 3.97914C81.5978 4.32073 81.6632 4.69139 81.6632 5.09112V5.45088H77.2916C77.3207 5.85788 77.4152 6.214 77.5751 6.51925C77.7422 6.8245 77.9639 7.0607 78.2401 7.22786C78.5163 7.39502 78.836 7.4786 79.1994 7.4786C79.5555 7.4786 79.8644 7.40593 80.1261 7.26057C80.395 7.10794 80.6239 6.88628 80.8129 6.59556L81.5542 6.93352C81.4089 7.20969 81.2199 7.4459 80.9873 7.64213C80.7547 7.83836 80.4858 7.98735 80.1806 8.0891C79.8826 8.19812 79.5628 8.25263 79.2212 8.25263ZM79.0795 3.05249C78.7815 3.05249 78.509 3.12517 78.2619 3.27053C78.022 3.41588 77.8185 3.61938 77.6514 3.88102C77.4915 4.1354 77.3861 4.43338 77.3352 4.77497H80.7475C80.7184 4.43338 80.6276 4.1354 80.4749 3.88102C80.3223 3.61938 80.1261 3.41588 79.8862 3.27053C79.6464 3.12517 79.3775 3.05249 79.0795 3.05249Z" fill="#233375"/>
</svg>
