<svg width="110" height="35" viewBox="0 0 110 35" fill="none" xmlns="http://www.w3.org/2000/svg">
<path d="M7.60061 30.7766C6.7553 30.7766 5.95696 30.6559 5.20557 30.4143C4.46761 30.1728 3.79002 29.8307 3.17282 29.3879C2.56903 28.9317 2.04574 28.395 1.60296 27.7778C1.1736 27.1606 0.838164 26.4763 0.596649 25.7249C0.355133 24.9601 0.234375 24.1416 0.234375 23.2695C0.234375 22.3974 0.355133 21.5789 0.596649 20.8141C0.838164 20.0493 1.18031 19.3516 1.62309 18.721C2.06587 18.0903 2.59586 17.5536 3.21307 17.1109C3.83028 16.6547 4.50786 16.3058 5.24583 16.0643C5.99721 15.8094 6.79555 15.6819 7.64086 15.6819C8.5935 15.6819 9.47906 15.8362 10.2975 16.1448C11.116 16.4534 11.8338 16.8962 12.451 17.4731C13.0817 18.0501 13.5714 18.7478 13.9203 19.5663L11.0221 20.4518C10.6598 19.8078 10.1902 19.3113 9.61324 18.9625C9.0497 18.6136 8.39224 18.4392 7.64086 18.4392C7.02365 18.4392 6.45341 18.5599 5.93012 18.8015C5.40684 19.0296 4.95064 19.365 4.56153 19.8078C4.17242 20.2371 3.87053 20.7403 3.65585 21.3173C3.44117 21.8942 3.33383 22.5248 3.33383 23.2091C3.33383 23.9068 3.44117 24.5509 3.65585 25.1413C3.87053 25.7316 4.17242 26.2415 4.56153 26.6709C4.96406 27.1002 5.43367 27.4357 5.97038 27.6772C6.50708 27.9053 7.09745 28.0193 7.74149 28.0193C8.42579 28.0193 9.03628 27.8918 9.57299 27.6369C10.1097 27.382 10.5458 27.0264 10.8812 26.5702C11.2166 26.114 11.4246 25.5773 11.5051 24.9601H7.94275V22.4846H14.5844V23.9941C14.5844 24.987 14.41 25.8993 14.0612 26.7312C13.7257 27.5631 13.2494 28.281 12.6322 28.8847C12.015 29.4885 11.277 29.9582 10.4183 30.2936C9.55957 30.6156 8.62034 30.7766 7.60061 30.7766Z" fill="#233375"/>
<path d="M21.3228 30.676C20.5312 30.676 19.7999 30.5351 19.1291 30.2533C18.4582 29.9716 17.8745 29.5825 17.3781 29.086C16.8816 28.5761 16.4925 27.9791 16.2107 27.2948C15.9424 26.6105 15.8082 25.8658 15.8082 25.0607C15.8082 24.2557 15.9491 23.5177 16.2309 22.8469C16.5126 22.1626 16.9017 21.5655 17.3982 21.0556C17.9081 20.5457 18.4984 20.1499 19.1693 19.8682C19.8536 19.5864 20.5983 19.4455 21.4033 19.4455C22.195 19.4455 22.9262 19.5864 23.5971 19.8682C24.268 20.1499 24.8516 20.5457 25.3481 21.0556C25.8445 21.5521 26.2269 22.1424 26.4953 22.8267C26.7771 23.4976 26.9179 24.2356 26.9179 25.0406C26.9179 25.8457 26.7771 26.5903 26.4953 27.2746C26.2135 27.9589 25.8177 28.556 25.3078 29.0659C24.8114 29.5758 24.221 29.9716 23.5367 30.2533C22.8658 30.5351 22.1279 30.676 21.3228 30.676ZM21.3631 28.1401C21.8729 28.1401 22.3291 28.0059 22.7317 27.7375C23.1342 27.4692 23.4495 27.1069 23.6776 26.6507C23.9191 26.1811 24.0399 25.6511 24.0399 25.0607C24.0399 24.4704 23.9191 23.9471 23.6776 23.4909C23.4495 23.0213 23.1342 22.6523 22.7317 22.3839C22.3291 22.1156 21.8729 21.9814 21.3631 21.9814C20.8532 21.9814 20.397 22.1156 19.9945 22.3839C19.592 22.6523 19.2699 23.0213 19.0284 23.4909C18.8003 23.9471 18.6863 24.4704 18.6863 25.0607C18.6863 25.6511 18.8003 26.1811 19.0284 26.6507C19.2699 27.1069 19.592 27.4692 19.9945 27.7375C20.397 28.0059 20.8532 28.1401 21.3631 28.1401Z" fill="#233375"/>
<path d="M33.5779 30.676C32.7862 30.676 32.055 30.5351 31.3841 30.2533C30.7132 29.9716 30.1296 29.5825 29.6331 29.086C29.1367 28.5761 28.7475 27.9791 28.4658 27.2948C28.1974 26.6105 28.0633 25.8658 28.0633 25.0607C28.0633 24.2557 28.2041 23.5177 28.4859 22.8469C28.7677 22.1626 29.1568 21.5655 29.6532 21.0556C30.1631 20.5457 30.7535 20.1499 31.4243 19.8682C32.1086 19.5864 32.8533 19.4455 33.6584 19.4455C34.45 19.4455 35.1813 19.5864 35.8521 19.8682C36.523 20.1499 37.1067 20.5457 37.6031 21.0556C38.0996 21.5521 38.482 22.1424 38.7503 22.8267C39.0321 23.4976 39.173 24.2356 39.173 25.0406C39.173 25.8457 39.0321 26.5903 38.7503 27.2746C38.4686 27.9589 38.0727 28.556 37.5629 29.0659C37.0664 29.5758 36.4761 29.9716 35.7918 30.2533C35.1209 30.5351 34.3829 30.676 33.5779 30.676ZM33.6181 28.1401C34.128 28.1401 34.5842 28.0059 34.9867 27.7375C35.3892 27.4692 35.7045 27.1069 35.9326 26.6507C36.1742 26.1811 36.2949 25.6511 36.2949 25.0607C36.2949 24.4704 36.1742 23.9471 35.9326 23.4909C35.7045 23.0213 35.3892 22.6523 34.9867 22.3839C34.5842 22.1156 34.128 21.9814 33.6181 21.9814C33.1082 21.9814 32.6521 22.1156 32.2495 22.3839C31.847 22.6523 31.525 23.0213 31.2835 23.4909C31.0554 23.9471 30.9413 24.4704 30.9413 25.0607C30.9413 25.6511 31.0554 26.1811 31.2835 26.6507C31.525 27.1069 31.847 27.4692 32.2495 27.7375C32.6521 28.0059 33.1082 28.1401 33.6181 28.1401Z" fill="#233375"/>
<path d="M45.0882 30.0722C44.4174 30.0722 43.7867 29.938 43.1964 29.6697C42.6194 29.4013 42.1162 29.0323 41.6869 28.5627C41.2575 28.0797 40.9221 27.5229 40.6806 26.8922C40.4391 26.2482 40.3183 25.5572 40.3183 24.8192C40.3183 24.0544 40.4391 23.35 40.6806 22.706C40.9355 22.0485 41.2844 21.4783 41.7271 20.9952C42.1833 20.5122 42.7066 20.1365 43.297 19.8682C43.9008 19.5864 44.5515 19.4455 45.2492 19.4455C45.9335 19.4455 46.5507 19.5864 47.1009 19.8682C47.651 20.1365 48.1072 20.5323 48.4694 21.0556L48.5298 19.7474H51.1261V29.1061C51.1261 29.9246 50.9919 30.6693 50.7236 31.3402C50.4687 32.011 50.0997 32.588 49.6166 33.071C49.1336 33.5541 48.5567 33.923 47.8858 34.178C47.2283 34.4463 46.4971 34.5805 45.692 34.5805C44.9004 34.5805 44.1893 34.453 43.5586 34.1981C42.928 33.9566 42.3779 33.6144 41.9083 33.1717C41.4387 32.7289 41.0697 32.2123 40.8013 31.6219L43.4983 30.9578C43.7398 31.3469 44.0484 31.6488 44.4241 31.8634C44.8132 32.0915 45.2492 32.2056 45.7323 32.2056C46.2556 32.2056 46.705 32.0848 47.0807 31.8433C47.4698 31.6152 47.7717 31.2865 47.9864 30.8571C48.2011 30.4412 48.3084 29.9514 48.3084 29.3879V28.5225C47.9462 29.0055 47.4833 29.3879 46.9197 29.6697C46.3696 29.938 45.7591 30.0722 45.0882 30.0722ZM45.7725 27.5765C46.269 27.5765 46.705 27.4558 47.0807 27.2143C47.4698 26.9593 47.7784 26.6239 48.0065 26.2079C48.2346 25.7786 48.3487 25.2956 48.3487 24.7589C48.3487 24.2222 48.2346 23.7458 48.0065 23.3299C47.7784 22.9005 47.4698 22.5651 47.0807 22.3236C46.705 22.0686 46.269 21.9412 45.7725 21.9412C45.2761 21.9412 44.8333 22.0686 44.4442 22.3236C44.0685 22.5651 43.7666 22.9005 43.5385 23.3299C43.3104 23.7458 43.1964 24.2222 43.1964 24.7589C43.1964 25.2956 43.3104 25.7786 43.5385 26.2079C43.7666 26.6239 44.0685 26.9593 44.4442 27.2143C44.8333 27.4558 45.2761 27.5765 45.7725 27.5765Z" fill="#233375"/>
<path d="M52.9759 30.3741V15.3599H55.7935V30.3741H52.9759Z" fill="#233375"/>
<path d="M62.6758 30.676C61.8842 30.676 61.1529 30.5418 60.482 30.2735C59.8246 29.9917 59.2543 29.6026 58.7713 29.1061C58.2883 28.5963 57.9126 27.9992 57.6442 27.3149C57.3759 26.6172 57.2417 25.8591 57.2417 25.0406C57.2417 24.249 57.3759 23.511 57.6442 22.8267C57.9126 22.1424 58.2815 21.5521 58.7512 21.0556C59.2342 20.5457 59.7977 20.1499 60.4418 19.8682C61.0858 19.5864 61.7835 19.4455 62.5349 19.4455C63.3131 19.4455 64.0175 19.5797 64.6482 19.848C65.2922 20.1164 65.8423 20.4988 66.2985 20.9952C66.7547 21.4917 67.1036 22.0821 67.3451 22.7663C67.6 23.4506 67.7275 24.2154 67.7275 25.0607V25.7652H60.0996C60.2204 26.5568 60.5089 27.1807 60.9651 27.6369C61.4213 28.0797 61.9982 28.3011 62.6959 28.3011C63.179 28.3011 63.615 28.187 64.0041 27.9589C64.4067 27.7308 64.7354 27.4021 64.9903 26.9727L67.5061 27.7778C67.2646 28.3816 66.9023 28.8982 66.4193 29.3275C65.9363 29.7569 65.3727 30.0923 64.7287 30.3338C64.0846 30.5619 63.4003 30.676 62.6758 30.676ZM62.5349 21.6191C61.9177 21.6191 61.3944 21.8204 60.9651 22.2229C60.5491 22.6255 60.2741 23.1756 60.1399 23.8733H64.8293C64.722 23.1756 64.4603 22.6255 64.0444 22.2229C63.6419 21.8204 63.1387 21.6191 62.5349 21.6191Z" fill="#233375"/>
<path d="M73.0585 30.3741V16.0844H77.6473C78.8146 16.0844 79.8142 16.279 80.6461 16.6681C81.4914 17.0438 82.1354 17.5939 82.5782 18.3184C83.0344 19.0296 83.2625 19.895 83.2625 20.9147C83.2625 21.6393 83.1283 22.2967 82.86 22.8871C82.5916 23.4641 82.2092 23.9672 81.7128 24.3966C81.2163 24.8125 80.6192 25.1345 79.9215 25.3626C79.2372 25.5907 78.4724 25.7048 77.6271 25.7048C77.1307 25.7048 76.594 25.6578 76.017 25.5639V30.3741H73.0585ZM76.017 18.6203V23.0481C76.5537 23.1286 77.0502 23.1689 77.5064 23.1689C78.3651 23.1689 79.0293 22.9743 79.4989 22.5852C79.9819 22.1961 80.2234 21.6326 80.2234 20.8946C80.2234 20.1701 79.9953 19.6132 79.5391 19.2241C79.0829 18.8216 78.4322 18.6203 77.5869 18.6203H76.017Z" fill="#233375"/>
<path d="M84.5231 30.3741V15.3599H87.3408V30.3741H84.5231Z" fill="#233375"/>
<path d="M92.472 30.676C91.9219 30.676 91.4187 30.5955 90.9625 30.4345C90.5063 30.2735 90.1038 30.0454 89.755 29.7502C89.4195 29.4416 89.1579 29.086 88.97 28.6835C88.7822 28.281 88.6883 27.8382 88.6883 27.3551C88.6883 26.6843 88.8694 26.0939 89.2317 25.584C89.594 25.0742 90.1038 24.6783 90.7613 24.3966C91.4187 24.1014 92.1835 23.9538 93.0557 23.9538C93.4985 23.9538 93.9144 23.9941 94.3035 24.0746C94.706 24.1551 95.0951 24.2691 95.4708 24.4167V23.7928C95.4708 23.189 95.2964 22.6993 94.9476 22.3236C94.6121 21.9479 94.1492 21.76 93.5588 21.76C93.1161 21.76 92.7135 21.8741 92.3513 22.1022C91.989 22.3169 91.734 22.6255 91.5865 23.028L89.0707 22.5248C89.2183 21.9076 89.5067 21.3709 89.9361 20.9147C90.3789 20.4451 90.9156 20.0828 91.5462 19.8279C92.1768 19.573 92.8611 19.4455 93.5991 19.4455C94.2834 19.4455 94.9073 19.5528 95.4708 19.7675C96.0344 19.9822 96.5174 20.2908 96.9199 20.6933C97.3359 21.0959 97.6512 21.5722 97.8659 22.1223C98.094 22.659 98.208 23.2628 98.208 23.9337V30.3741H95.6922L95.6117 29.1263C95.33 29.5825 94.9207 29.9582 94.384 30.2533C93.8473 30.5351 93.21 30.676 92.472 30.676ZM91.4657 27.2143C91.4657 27.59 91.62 27.8986 91.9286 28.1401C92.2372 28.3816 92.6464 28.5023 93.1563 28.5023C93.5991 28.5023 93.9949 28.4084 94.3438 28.2206C94.6926 28.0327 94.9677 27.7778 95.1689 27.4558C95.3702 27.1203 95.4708 26.7514 95.4708 26.3488V26.2482C95.1757 26.1274 94.8603 26.0335 94.5249 25.9664C94.1895 25.8859 93.854 25.8457 93.5186 25.8457C92.888 25.8457 92.3848 25.9731 92.0091 26.2281C91.6468 26.4696 91.4657 26.7983 91.4657 27.2143Z" fill="#233375"/>
<path d="M101.468 34.4799C101.106 34.4799 100.764 34.4396 100.442 34.3591C100.12 34.292 99.818 34.178 99.5362 34.017L100.08 31.8031C100.227 31.8702 100.402 31.9238 100.603 31.9641C100.804 32.0177 100.992 32.0446 101.166 32.0446C101.556 32.0446 101.891 31.9372 102.173 31.7226C102.468 31.5213 102.709 31.1926 102.897 30.7364L103.078 30.2735L98.7915 19.7474H101.871L104.387 27.2746L106.661 19.7474H109.64L105.272 31.3804C104.87 32.4538 104.353 33.2387 103.722 33.7352C103.105 34.2316 102.354 34.4799 101.468 34.4799Z" fill="#233375"/>
<path d="M4.1326 8.80526C3.52993 8.80526 2.97422 8.6996 2.46547 8.48827C1.96455 8.26912 1.53016 7.96387 1.16229 7.57253C0.79443 7.18118 0.508748 6.71939 0.305249 6.18716C0.10175 5.65494 0 5.07574 0 4.44959C0 3.94084 0.0665286 3.45949 0.199586 3.00553C0.332643 2.55157 0.524402 2.14066 0.774863 1.77279C1.02532 1.40493 1.31883 1.09185 1.65539 0.833564C1.99977 0.56745 2.37938 0.363951 2.7942 0.223066C3.20903 0.0743554 3.65125 0 4.12086 0C4.62178 0 5.0914 0.0821824 5.52971 0.246547C5.96801 0.410912 6.35153 0.645719 6.68026 0.950968C7.01682 1.24839 7.28684 1.60451 7.49034 2.01934L6.5746 2.39503C6.32414 1.92542 5.98758 1.56147 5.56493 1.30318C5.1501 1.03706 4.67266 0.904007 4.1326 0.904007C3.68647 0.904007 3.27164 0.994016 2.88813 1.17403C2.51243 1.34623 2.18371 1.59277 1.90194 1.91368C1.62017 2.22675 1.40102 2.59853 1.24448 3.02901C1.08794 3.45949 1.00967 3.9291 1.00967 4.43785C1.00967 4.93095 1.08403 5.38882 1.23274 5.81147C1.38927 6.23413 1.60843 6.60199 1.8902 6.91507C2.17196 7.22814 2.50461 7.47078 2.88813 7.64297C3.27164 7.81516 3.6943 7.90126 4.15608 7.90126C4.55526 7.90126 4.91921 7.83473 5.24794 7.70167C5.58449 7.56861 5.878 7.38077 6.12846 7.13813C6.37892 6.8955 6.5746 6.6059 6.71548 6.26935C6.85637 5.93279 6.93072 5.5571 6.93855 5.14227H4.39089V4.27349H7.94822V4.94269C7.94822 5.51405 7.8543 6.03454 7.66645 6.50415C7.4786 6.97377 7.21249 7.38077 6.86811 7.72515C6.53155 8.06953 6.12846 8.33565 5.65885 8.52349C5.19706 8.71134 4.68831 8.80526 4.1326 8.80526Z" fill="#233375"/>
<path d="M11.9188 8.74656C11.4727 8.74656 11.0618 8.66829 10.6861 8.51175C10.3182 8.35522 9.99734 8.13606 9.7234 7.85429C9.44945 7.5647 9.23813 7.22814 9.08942 6.84462C8.94071 6.45328 8.86635 6.0228 8.86635 5.55319C8.86635 5.0914 8.93679 4.66875 9.07768 4.28523C9.22639 3.89388 9.42989 3.55341 9.68817 3.26382C9.95429 2.97422 10.2635 2.75116 10.6157 2.59462C10.9679 2.43025 11.3514 2.34807 11.7662 2.34807C12.1654 2.34807 12.5333 2.42243 12.8698 2.57114C13.2142 2.71985 13.5116 2.92726 13.7621 3.19338C14.0125 3.45949 14.2043 3.77648 14.3374 4.14434C14.4782 4.51221 14.5487 4.91138 14.5487 5.34186V5.72929H9.8408C9.87211 6.1676 9.97386 6.55112 10.146 6.87985C10.3261 7.20858 10.5648 7.46295 10.8622 7.64297C11.1596 7.82299 11.504 7.913 11.8954 7.913C12.2789 7.913 12.6115 7.83473 12.8933 7.67819C13.1829 7.51382 13.4294 7.2751 13.6329 6.96203L14.4313 7.32598C14.2747 7.6234 14.0712 7.87778 13.8208 8.0891C13.5703 8.30043 13.2807 8.46088 12.952 8.57046C12.6311 8.68786 12.2867 8.74656 11.9188 8.74656ZM11.7662 3.14641C11.4453 3.14641 11.1518 3.22468 10.8857 3.38122C10.6274 3.53776 10.4082 3.75691 10.2282 4.03868C10.056 4.31262 9.94255 4.63352 9.88776 5.00139H13.5625C13.5312 4.63352 13.4333 4.31262 13.269 4.03868C13.1046 3.75691 12.8933 3.53776 12.635 3.38122C12.3767 3.22468 12.0871 3.14641 11.7662 3.14641Z" fill="#233375"/>
<path d="M17.8983 8.74656C17.5305 8.74656 17.2135 8.67221 16.9474 8.52349C16.6813 8.37478 16.4739 8.15563 16.3251 7.86603C16.1843 7.57644 16.1138 7.22423 16.1138 6.8094V3.31078H14.9985V2.51243H16.1138V0.481355H17.053V2.51243H18.955V3.31078H17.053V6.76244C17.053 7.12248 17.1274 7.40425 17.2761 7.60775C17.4326 7.80342 17.6675 7.90126 17.9805 7.90126C18.1449 7.90126 18.3093 7.87778 18.4736 7.83081C18.6458 7.77603 18.7984 7.70558 18.9315 7.61949L19.2133 8.34739C19.0489 8.46479 18.8571 8.55872 18.638 8.62916C18.4188 8.70743 18.1723 8.74656 17.8983 8.74656Z" fill="#233375"/>
<path d="M23.6388 0.739642C23.6388 0.857046 23.6075 0.966622 23.5449 1.06837C23.4901 1.16229 23.4118 1.24056 23.3101 1.30318C23.2162 1.35797 23.1105 1.38536 22.9931 1.38536C22.8757 1.38536 22.7661 1.35797 22.6644 1.30318C22.5705 1.24056 22.4922 1.16229 22.4296 1.06837C22.3748 0.966622 22.3474 0.857046 22.3474 0.739642C22.3474 0.622238 22.3748 0.516575 22.4296 0.422653C22.4922 0.320903 22.5705 0.242634 22.6644 0.187845C22.7661 0.12523 22.8757 0.0939224 22.9931 0.0939224C23.1105 0.0939224 23.2162 0.12523 23.3101 0.187845C23.4118 0.242634 23.4901 0.320903 23.5449 0.422653C23.6075 0.516575 23.6388 0.622238 23.6388 0.739642ZM22.5235 8.57046V2.51243H23.4627V8.57046H22.5235Z" fill="#233375"/>
<path d="M27.1342 8.74656C26.7664 8.74656 26.4494 8.67221 26.1833 8.52349C25.9172 8.37478 25.7097 8.15563 25.561 7.86603C25.4202 7.57644 25.3497 7.22423 25.3497 6.8094V3.31078H24.2344V2.51243H25.3497V0.481355H26.2889V2.51243H28.1909V3.31078H26.2889V6.76244C26.2889 7.12248 26.3633 7.40425 26.512 7.60775C26.6685 7.80342 26.9033 7.90126 27.2164 7.90126C27.3808 7.90126 27.5452 7.87778 27.7095 7.83081C27.8817 7.77603 28.0343 7.70558 28.1674 7.61949L28.4492 8.34739C28.2848 8.46479 28.093 8.55872 27.8739 8.62916C27.6547 8.70743 27.4082 8.74656 27.1342 8.74656Z" fill="#233375"/>
<path d="M34.4479 8.74656C34.0175 8.74656 33.6183 8.66829 33.2504 8.51175C32.8904 8.34739 32.5734 8.12432 32.2994 7.84255C32.0333 7.55296 31.8259 7.21249 31.6772 6.82114C31.5285 6.4298 31.4541 6.00323 31.4541 5.54145C31.4541 5.07966 31.5285 4.65309 31.6772 4.26175C31.8337 3.8704 32.0451 3.53385 32.3112 3.25208C32.5851 2.96248 32.906 2.73941 33.2739 2.58288C33.6418 2.41851 34.0409 2.33633 34.4714 2.33633C34.9019 2.33633 35.2971 2.41851 35.6572 2.58288C36.0251 2.73941 36.342 2.96248 36.6082 3.25208C36.8821 3.53385 37.0934 3.8704 37.2421 4.26175C37.3908 4.65309 37.4652 5.07966 37.4652 5.54145C37.4652 6.00323 37.3869 6.4298 37.2304 6.82114C37.0817 7.21249 36.8704 7.55296 36.5964 7.84255C36.3303 8.12432 36.0133 8.34739 35.6454 8.51175C35.2776 8.66829 34.8784 8.74656 34.4479 8.74656ZM34.4597 7.88952C34.7571 7.88952 35.0271 7.83081 35.2698 7.71341C35.5202 7.59601 35.7355 7.43556 35.9155 7.23206C36.1033 7.02073 36.2481 6.77418 36.3499 6.49241C36.4516 6.20282 36.5025 5.88583 36.5025 5.54145C36.5025 5.19706 36.4516 4.88399 36.3499 4.60222C36.2481 4.31262 36.1033 4.06607 35.9155 3.86258C35.7355 3.65125 35.5202 3.48688 35.2698 3.36948C35.0271 3.25208 34.7571 3.19338 34.4597 3.19338C34.1623 3.19338 33.8883 3.25208 33.6378 3.36948C33.3952 3.48688 33.18 3.65125 32.9921 3.86258C32.8121 4.06607 32.6712 4.31262 32.5695 4.60222C32.4677 4.88399 32.4169 5.19706 32.4169 5.54145C32.4169 5.88583 32.4677 6.20282 32.5695 6.49241C32.6712 6.77418 32.8121 7.02073 32.9921 7.23206C33.18 7.43556 33.3952 7.59601 33.6378 7.71341C33.8883 7.83081 34.1623 7.88952 34.4597 7.88952Z" fill="#233375"/>
<path d="M38.5642 8.57046V2.51243H39.4095L39.4565 3.47514C39.6365 3.13076 39.8948 2.85682 40.2313 2.65332C40.5757 2.44199 40.971 2.33633 41.4171 2.33633C41.8789 2.33633 42.282 2.44591 42.6264 2.66506C42.9708 2.88421 43.233 3.19729 43.413 3.60429C43.6008 4.00346 43.6947 4.47699 43.6947 5.02487V8.57046H42.7555V5.08357C42.7555 4.4809 42.6225 4.0152 42.3563 3.68647C42.098 3.35774 41.7263 3.19338 41.241 3.19338C40.9044 3.19338 40.6031 3.27164 40.337 3.42818C40.0787 3.57689 39.8752 3.78822 39.7265 4.06216C39.5778 4.32828 39.5034 4.63352 39.5034 4.97791V8.57046H38.5642Z" fill="#233375"/>
</svg>
