<svg width="26" height="28" viewBox="0 0 26 28" fill="none" xmlns="http://www.w3.org/2000/svg">
<path d="M3.82589 0.344597C3.08595 -0.0747307 2.20409 -0.112227 1.43499 0.23686L14.3303 12.4026L18.5466 8.4148L3.82589 0.344597ZM0.250197 1.36281C0.0875129 1.68708 0 2.04778 0 2.41905V24.673C0 25.0458 0.088074 25.4012 0.252441 25.7186L13.1427 13.5259L0.250197 1.36281ZM14.332 14.6477L1.45748 26.8256C1.79912 26.9745 2.16264 27.0395 2.52559 27.0395C2.97381 27.0395 3.42092 26.9386 3.82594 26.7094L18.5494 18.6271L14.332 14.6477ZM24.1531 11.4885C24.148 11.4853 24.1424 11.4821 24.1374 11.4795L20.0501 9.23866L15.519 13.5244L20.0529 17.8016C20.0529 17.8016 24.148 15.5539 24.1531 15.5513C24.9132 15.1166 25.367 14.3572 25.367 13.5196C25.367 12.682 24.9132 11.9226 24.1531 11.4885Z" fill="#233375"/>
</svg>
