<svg width="146" height="36" viewBox="0 0 146 36" fill="none" xmlns="http://www.w3.org/2000/svg">
<path d="M76.8594 1.18694C76.8793 1.15328 76.9022 1.15328 76.9297 1.18694L76.8884 1.22059L76.8594 1.18694Z" fill="#0124DD"/>
<path d="M41.7122 12.9414C42.1543 11.6045 42.5735 10.3409 42.9834 9.08811C43.0339 8.93514 43.1364 8.89996 43.2695 8.87548C45.483 8.46246 47.7056 8.11063 49.9665 8.2223C51.562 8.29725 53.0963 8.62308 54.47 9.47971C56.3331 10.6392 57.1852 12.3861 57.306 14.5277C57.3764 15.7591 57.176 16.9753 57.0001 18.1807C56.6345 20.6374 56.2582 23.091 55.9048 25.5477C55.8952 25.6507 55.858 25.7492 55.7972 25.8329C55.7363 25.9166 55.6541 25.9824 55.5591 26.0234C54.1181 26.8143 52.5548 27.2472 50.9486 27.5103C48.9608 27.8547 46.9334 27.9063 44.9307 27.6633C43.2618 27.4537 41.7061 26.9351 40.4946 25.7083C39.9688 25.17 39.5607 24.5282 39.2961 23.8238C39.0314 23.1193 38.9161 22.3676 38.9574 21.6162C38.9987 20.8649 39.1957 20.1303 39.5359 19.4591C39.8761 18.7879 40.352 18.1947 40.9336 17.7172C42.1757 16.6953 43.6443 16.1875 45.1908 15.8586C47.5328 15.3629 49.8961 15.4303 52.2611 15.6108C52.5563 15.6322 52.6205 15.5419 52.6343 15.2788C52.7399 13.434 51.6324 12.1093 49.6881 11.7529C48.3389 11.505 47.0142 11.7192 45.6895 11.9364C44.3378 12.1588 43.0073 12.495 41.7122 12.9414ZM49.9849 18.5065C49.143 18.501 48.302 18.5629 47.47 18.6916C46.5706 18.8445 45.6971 19.0817 44.972 19.6782C44.1521 20.3528 43.9334 21.2584 44.0955 22.2558C44.2485 23.166 44.8848 23.6646 45.7093 23.9583C46.0873 24.0913 46.4804 24.1761 46.8796 24.2107C48.3542 24.353 49.786 24.096 51.2086 23.7442C51.3051 23.7315 51.3936 23.6838 51.4573 23.6102C51.521 23.5366 51.5555 23.4423 51.5543 23.3449C51.7486 21.8994 51.9414 20.4523 52.1555 19.0098C52.1922 18.7604 52.1096 18.713 51.9016 18.6732C51.2679 18.5686 50.6271 18.5129 49.9849 18.5065Z" fill="#114185"/>
<path d="M110.006 23.0161C109.761 23.7596 109.547 24.425 109.321 25.0904C109.14 25.6365 108.947 26.178 108.776 26.7287C108.76 26.813 108.719 26.8905 108.658 26.9515C108.598 27.0125 108.521 27.0542 108.437 27.0714C106.096 27.6955 103.725 28.0336 101.308 27.7291C98.5547 27.3819 96.2785 26.1994 94.8834 23.6739C94.0252 22.1106 93.753 20.408 93.8692 18.6534C94.091 15.3156 95.4815 12.5484 98.0667 10.4053C99.6377 9.10197 101.47 8.43196 103.486 8.2331C104.877 8.09695 106.26 8.12296 107.617 8.50079C110.379 9.26565 112.221 11.4149 112.574 14.2601C112.778 15.8954 112.574 17.5016 112.31 19.1093C112.278 19.3097 112.177 19.3158 112.024 19.3158C111.282 19.3158 110.538 19.3158 109.796 19.3158C106.227 19.3158 102.658 19.3158 99.0886 19.3158C98.801 19.3158 98.7168 19.3862 98.7122 19.6814C98.6725 22.0861 100 23.6739 102.364 24.0793C104.111 24.3852 105.81 24.1206 107.507 23.7504C108.355 23.5607 109.19 23.3154 110.006 23.0161ZM103.765 16.1937H107.191C108.238 16.1937 108.238 16.1937 108.273 15.1474C108.345 13.0287 107.049 11.6474 104.943 11.5296C102.423 11.3873 100.048 13.2123 99.4358 15.9198C99.3853 16.1447 99.4358 16.1998 99.6653 16.1983C101.028 16.1875 102.388 16.1937 103.765 16.1937Z" fill="#114185"/>
<path d="M118.799 27.7905C116.553 27.7755 114.323 27.4038 112.194 26.6891C111.981 26.6156 111.925 26.5545 112.001 26.3235C112.351 25.2639 112.686 24.1992 113.006 23.1295C113.086 22.8664 113.179 22.8878 113.39 22.9887C115.436 23.9892 117.746 24.3148 119.988 23.9188C120.514 23.8387 121.013 23.6341 121.444 23.3222C121.643 23.184 121.809 23.0028 121.929 22.792C122.05 22.5812 122.121 22.3462 122.138 22.1042C122.156 21.8622 122.118 21.6194 122.03 21.3936C121.941 21.1679 121.802 20.9649 121.625 20.7997C121.236 20.4398 120.799 20.1351 120.327 19.8941C119.157 19.2394 117.967 18.626 116.855 17.8673C113.867 15.8221 114.231 11.5649 117.173 9.69715C118.476 8.86958 119.904 8.45503 121.42 8.29747C123.947 8.03589 126.39 8.46879 128.797 9.19387C129.018 9.25965 129.074 9.31931 128.99 9.55335C128.628 10.5584 128.277 11.5695 127.948 12.5868C127.861 12.8544 127.757 12.8346 127.551 12.7397C126.045 12.0291 124.396 11.6733 122.731 11.6995C121.923 11.7194 121.135 11.8525 120.451 12.3298C120.161 12.5151 119.939 12.7908 119.82 13.1144C119.701 13.438 119.692 13.7916 119.793 14.121C119.925 14.4904 120.174 14.8068 120.502 15.022C121.21 15.5544 122.021 15.9139 122.796 16.3391C123.745 16.8346 124.651 17.4087 125.504 18.0554C128.025 20.0563 127.769 23.8683 125.351 25.8049C123.791 27.0516 121.964 27.5503 120.021 27.7277C119.533 27.7706 119.049 27.7782 118.799 27.7905Z" fill="#114185"/>
<path d="M135.3 27.7903C133.084 27.7689 130.885 27.4009 128.782 26.6996C128.539 26.6186 128.476 26.5467 128.567 26.2897C128.912 25.2526 129.24 24.2093 129.558 23.163C129.634 22.909 129.711 22.8723 129.959 22.9917C131.995 23.9828 134.292 24.3092 136.524 23.9248C137.002 23.8497 137.461 23.679 137.872 23.423C138.886 22.776 139.01 21.5874 138.153 20.7552C137.794 20.4324 137.394 20.1573 136.965 19.9368C135.741 19.2423 134.47 18.6213 133.318 17.7953C130.661 15.8755 130.991 12.4015 132.616 10.6577C133.711 9.48439 135.094 8.85415 136.628 8.51608C138.664 8.05717 140.699 8.16731 142.732 8.54362C143.588 8.69659 144.427 8.9291 145.265 9.1555C145.543 9.23351 145.644 9.31612 145.526 9.6343C145.173 10.5934 144.852 11.5633 144.54 12.5407C144.453 12.8084 144.365 12.8467 144.102 12.7319C142.616 12.0342 140.993 11.6793 139.351 11.6933C138.586 11.707 137.847 11.8202 137.18 12.221C136.549 12.5989 136.229 13.148 136.324 13.9037C136.383 14.384 136.672 14.719 137.037 14.9944C137.801 15.5741 138.681 15.9566 139.513 16.4155C140.462 16.9402 141.398 17.4863 142.225 18.1914C144.544 20.1801 144.283 23.8666 141.956 25.7635C140.706 26.7838 139.256 27.3131 137.691 27.5869C136.901 27.7153 136.101 27.7833 135.3 27.7903Z" fill="#114185"/>
<path d="M74.6963 23.2869C74.6183 23.7458 74.421 24.1573 74.2757 24.5902C73.9988 25.4147 73.7036 26.2316 73.4297 27.0576C73.4096 27.1402 73.3638 27.2143 73.299 27.2693C73.2341 27.3242 73.1535 27.3572 73.0687 27.3636C71.2331 27.6695 69.3776 27.8638 67.5128 27.723C64.7303 27.5135 62.344 26.4993 60.7041 24.1282C59.5477 22.4578 59.1393 20.5594 59.2418 18.5601C59.4131 15.2254 60.8265 12.4964 63.4316 10.4068C64.9246 9.21058 66.6807 8.62318 68.5515 8.37843C70.8673 8.05019 73.2255 8.19117 75.4856 8.79297C75.917 8.91076 76.3331 9.07597 76.7568 9.21364C76.9098 9.26259 76.9496 9.32837 76.893 9.49511C76.532 10.5506 76.174 11.6092 75.836 12.6723C75.761 12.9063 75.6555 12.8589 75.504 12.7993C74.4239 12.3564 73.2801 12.0884 72.1157 12.0053C69.5963 11.8631 67.4058 12.556 65.8332 14.6533C64.3601 16.6189 64.1322 19.8833 65.7093 21.8566C66.6899 23.0804 67.984 23.729 69.5198 23.908C71.1765 24.1007 72.7781 23.781 74.3598 23.3267C74.4608 23.2976 74.5632 23.2777 74.6657 23.2532L74.6963 23.2869Z" fill="#114185"/>
<path d="M92.136 23.2656C91.7842 24.2783 91.3804 25.2802 91.0913 26.3143C90.8817 27.0685 90.5283 27.4264 89.7053 27.509C87.4108 27.7385 85.1162 27.9955 82.8217 27.3882C79.2131 26.429 76.8559 23.5501 76.6601 19.8085C76.4459 15.7425 78.0031 12.4935 81.2782 10.0903C82.655 9.08223 84.2611 8.60496 85.9377 8.38621C88.2529 8.05906 90.6103 8.19951 92.8703 8.79923C93.2894 8.91396 93.6918 9.08529 94.1094 9.20613C94.3281 9.27038 94.3342 9.36981 94.2623 9.56102C93.912 10.5844 93.5648 11.6078 93.239 12.6388C93.1609 12.8851 93.0676 12.8759 92.8672 12.7994C91.2641 12.1875 89.6243 11.8556 87.8942 12.0345C84.9556 12.3497 82.7192 14.2924 82.1547 17.1514C81.7478 19.215 82.1211 21.1026 83.7655 22.5635C85.0765 23.7261 86.672 24.0504 88.3715 23.9509C89.5704 23.872 90.7551 23.6459 91.8989 23.2779C91.9678 23.2656 92.029 23.209 92.136 23.2656Z" fill="#114185"/>
<path d="M33.8645 19.0555L14.809 0V2.92479L30.9397 19.0555L30.9459 19.0616L16.9736 33.0339L16.9567 33.0171L2.99363 19.0555L2.98139 19.0433L9.83598 12.1887H6.86071L0 19.0494L0.00611895 19.0555L16.9506 36L16.9567 35.9939L33.8798 19.0708L33.8645 19.0555Z" fill="#FE6309"/>
<path d="M14.8037 4.93781V7.8626L26.0027 19.0615L16.9805 28.0837L7.95066 19.0554L7.93842 19.0432L14.793 12.1886H11.8177L4.95703 19.0493L4.96315 19.0554L15.486 29.5782L16.9575 31.0498L18.4536 29.5553L28.9366 19.0707L14.8037 4.93781Z" fill="#FE6309"/>
<path d="M23.9981 19.0554L18.4101 13.4613L16.9232 11.9744L15.4608 13.4368L9.84375 19.0493L15.4639 24.6694L16.9354 26.141L18.4284 24.6465L24.0134 19.0707L23.9981 19.0554ZM16.9615 23.1856L12.8313 19.0554L12.819 19.0432L16.9385 14.9237L21.0687 19.0539L16.9615 23.1856Z" fill="#FE6309"/>
</svg>
