<svg width="141" height="36" viewBox="0 0 141 36" fill="none" xmlns="http://www.w3.org/2000/svg">
<path d="M123.77 11.9533C123.77 8.24505 123.77 4.53744 123.77 0.830457C123.77 0.617813 123.799 0.541335 124.04 0.5432C129.211 0.550662 134.381 0.550662 139.551 0.5432C139.768 0.5432 139.818 0.599159 139.816 0.811804C139.805 2.11752 139.805 3.42323 139.816 4.72895C139.816 4.94532 139.747 4.97703 139.557 4.97703C136.066 4.97703 132.575 4.97703 129.083 4.97703C128.888 4.97703 128.825 5.01247 128.827 5.22512C128.838 6.55322 128.838 7.88131 128.827 9.20941C128.827 9.40527 128.866 9.47055 129.077 9.46869C132.375 9.46869 135.676 9.46869 138.974 9.46869C139.19 9.46869 139.24 9.52278 139.239 9.73729C139.227 11.0057 139.227 12.2735 139.239 13.5407C139.239 13.7272 139.198 13.7906 138.998 13.7906C135.705 13.7831 132.414 13.7831 129.123 13.7906C128.79 13.7906 128.835 13.7458 128.835 14.0928C128.835 15.5999 128.835 17.1071 128.835 18.6124C128.835 18.8232 128.875 18.8848 129.095 18.8848C132.771 18.8754 136.449 18.8848 140.125 18.8736C140.352 18.8736 140.402 18.9314 140.4 19.1534C140.389 20.4889 140.391 21.8245 140.4 23.16C140.4 23.326 140.361 23.3727 140.191 23.3727C134.793 23.3727 129.394 23.3727 123.993 23.3727C123.779 23.3727 123.781 23.2775 123.781 23.119C123.774 19.3896 123.771 15.6677 123.77 11.9533Z" fill="#0F203C"/>
<path d="M40.3567 23.3167C40.0108 22.4717 39.6685 21.6267 39.3189 20.7855C39.0395 20.1084 38.7473 19.4387 38.4679 18.7616C38.1886 18.0845 37.9129 17.3888 37.6373 16.7098C37.2673 15.807 36.877 14.9116 36.5052 14.007C36.1352 13.1321 35.8022 12.248 35.4415 11.3732C35.0807 10.4983 34.7015 9.61417 34.3315 8.73188C34.0281 7.99695 33.734 7.25829 33.4343 6.51963C33.052 5.57579 32.6678 4.63194 32.2818 3.6881C31.9648 2.91213 31.6467 2.14114 31.3272 1.37512C31.2175 1.109 31.1071 0.842262 30.9961 0.574902C31.0516 0.530134 31.1108 0.550653 31.1663 0.550653C32.92 0.550653 34.6811 0.550653 36.4256 0.550653C36.4925 0.541834 36.5602 0.559134 36.6149 0.59901C36.6696 0.638886 36.7071 0.698325 36.7197 0.765163C37.5152 2.91959 38.3218 5.06842 39.1246 7.22099C39.8412 9.13852 40.5571 11.0567 41.2724 12.9755C41.6831 14.0778 42.0845 15.1821 42.4952 16.2845C42.5137 16.333 42.5174 16.4058 42.6043 16.4356C42.7277 16.1222 42.8473 15.8113 42.9632 15.5029C43.1797 14.9322 43.3924 14.3595 43.607 13.7887C43.792 13.2907 43.9862 12.7945 44.1731 12.2965C44.3599 11.7984 44.5431 11.3172 44.7281 10.8285C44.913 10.3398 45.098 9.82868 45.283 9.33624L45.9009 7.70597C46.0951 7.19487 46.2894 6.68378 46.4799 6.17082C46.6705 5.65786 46.8499 5.1934 47.0349 4.70469C47.2199 4.21598 47.4049 3.73659 47.5899 3.25162L48.2337 1.5374L48.5518 0.684955C48.5796 0.612208 48.6055 0.565575 48.7035 0.56744C50.4782 0.56744 52.2529 0.56744 54.0276 0.56744C54.0406 0.56744 54.0517 0.578632 54.0831 0.591689C53.85 1.15128 53.6151 1.71087 53.3838 2.27046C52.7672 3.74033 52.1543 5.21019 51.545 6.68005C51.0492 7.86825 50.5479 9.05458 50.0521 10.2428C49.4848 11.6007 48.9187 12.958 48.3539 14.3147C47.8532 15.5135 47.3512 16.7123 46.8481 17.9111C46.3547 19.0899 45.8614 20.2713 45.3681 21.4551C45.1054 22.0893 44.839 22.7217 44.5745 23.3559C44.5181 23.3757 44.4578 23.3815 44.3988 23.3727H40.5417C40.4806 23.3447 40.4066 23.3783 40.3567 23.3167Z" fill="#0F203C"/>
<path d="M109.563 16.499L111.897 10.2968C113.097 7.10593 114.297 3.91563 115.497 0.725959C115.534 0.627098 115.56 0.539429 115.702 0.539429C117.464 0.539429 119.217 0.539429 120.984 0.539429C121.005 0.543425 121.025 0.549678 121.045 0.558082L120.49 1.90856C117.543 8.96812 114.599 16.0215 111.659 23.0686C111.633 23.1612 111.575 23.2413 111.495 23.2935C111.414 23.3457 111.318 23.3666 111.224 23.3521C110.003 23.3391 108.782 23.3521 107.563 23.3521C107.499 23.361 107.435 23.3459 107.381 23.3098C107.328 23.2736 107.29 23.219 107.274 23.1563C104.361 16.0681 101.445 8.98367 98.526 1.90297C98.341 1.45902 98.1449 1.02254 97.9414 0.550621H98.1653C99.9116 0.550621 101.656 0.550621 103.402 0.550621C103.469 0.541746 103.537 0.558789 103.591 0.598286C103.646 0.637783 103.683 0.696771 103.697 0.763265C105.613 5.91773 107.533 11.0728 109.455 16.2285C109.487 16.3087 109.52 16.3889 109.563 16.499Z" fill="#0F203C"/>
<path d="M84.3438 23.3167C84.3438 23.229 84.3438 23.1302 84.3438 23.05C84.3438 15.6422 84.3438 8.23883 84.3438 0.839785C84.3438 0.615948 84.3826 0.541336 84.6249 0.543201C86.214 0.543201 87.8031 0.543201 89.394 0.543201C89.4495 0.625275 89.4199 0.716675 89.4199 0.804344C89.4199 6.72731 89.4199 12.649 89.4199 18.5695C89.4042 18.6582 89.4119 18.7496 89.4421 18.8344C89.4958 18.8597 89.5561 18.8669 89.6142 18.8549C92.7257 18.8549 95.8379 18.8549 98.9507 18.8549H99.0173C99.0765 18.9202 99.0469 18.9985 99.0469 19.0694C99.0469 20.4199 99.0469 21.7704 99.0469 23.119C99.0469 23.3055 98.9988 23.354 98.8138 23.354C94.0583 23.354 89.3022 23.354 84.5454 23.354C84.4806 23.3447 84.4029 23.3708 84.3438 23.3167Z" fill="#0F203C"/>
<path d="M7.11301 14.7195C8.2486 14.8434 9.3603 15.1331 10.4133 15.5794C10.5914 15.6464 10.7372 15.78 10.8202 15.9525C11.2604 16.8678 11.8382 17.7091 12.5333 18.4464C13.7487 19.7867 15.2928 20.7806 17.0101 21.3283C17.4842 21.4938 17.9782 21.5942 18.4789 21.6267C18.5492 21.6733 18.6343 21.6267 18.7065 21.6603L18.9229 21.6715C19.069 21.7237 19.2244 21.6715 19.3724 21.7051H19.8183C19.9644 21.6678 20.1198 21.7256 20.2659 21.6733C21.0232 21.6443 21.7726 21.5068 22.4914 21.2648C23.9418 20.8133 25.2992 20.1011 26.4983 19.1626C26.545 19.1296 26.5938 19.0996 26.6445 19.0731C27.3178 19.0451 27.9931 19.0731 28.6683 19.0619C28.696 19.0619 28.7071 19.0787 28.7256 19.0918V23.4603C28.6609 23.5144 28.5832 23.4883 28.5129 23.4883H0.493991C0.423694 23.4883 0.345997 23.5144 0.28125 23.4603C0.28125 22.8429 0.28125 22.2236 0.28125 21.595C0.28125 21.4458 0.325648 21.3861 0.466242 21.3488C1.6637 21.0514 2.78605 20.5043 3.76095 19.7428C4.56092 19.1325 5.22041 18.3549 5.69412 17.4634C6.0261 16.8797 6.30414 16.2666 6.52473 15.6316C6.61426 15.3712 6.68112 15.1035 6.72452 14.8314C6.72465 14.8112 6.72899 14.7913 6.73729 14.7729C6.74558 14.7545 6.75762 14.738 6.77264 14.7247C6.78765 14.7113 6.8053 14.7012 6.82442 14.6952C6.84355 14.6892 6.86372 14.6873 6.88362 14.6896C6.95576 14.7363 7.03901 14.6915 7.11301 14.7195Z" fill="#0F203C"/>
<path d="M26.5949 5.02368C25.7687 4.36798 24.8652 3.81788 23.9051 3.38594C23.3342 3.12536 22.7457 2.90595 22.144 2.72935C21.614 2.57626 21.0707 2.47445 20.5216 2.42531C20.4476 2.38613 20.3606 2.42531 20.2848 2.39173H20.0221C19.6808 2.35629 19.3367 2.35629 18.9954 2.39173H18.7309C18.6569 2.42717 18.5718 2.39173 18.4996 2.42531C17.7523 2.48412 17.0188 2.66099 16.326 2.94946C15.1412 3.42843 14.0548 4.12477 13.1219 5.00316C12.4795 5.60222 11.889 6.25559 11.3571 6.95613C11.3282 7.00163 11.2846 7.03562 11.2336 7.05229C11.1827 7.06896 11.1276 7.06728 11.0777 7.04753C10.8853 7.01167 10.6906 6.98986 10.495 6.98225C10.4044 6.94121 10.31 6.98225 10.2157 6.9524L9.77539 6.94121C9.49226 6.90484 9.2057 6.90484 8.92257 6.94121L8.48044 6.95427C8.39165 6.98225 8.29545 6.93935 8.20666 6.98411L7.99391 6.99531C7.92177 7.03075 7.83852 6.98225 7.77007 7.03075C7.19765 7.07895 6.63059 7.1782 6.07555 7.32733C5.9886 7.34785 5.97935 7.33852 5.94975 7.25085C5.74773 6.67666 5.44855 6.14211 5.06549 5.67094C4.86918 5.39544 4.64878 5.13824 4.40692 4.90243C3.85596 4.38311 3.24106 3.93738 2.57735 3.5762C2.09023 3.3248 1.58719 3.10608 1.07151 2.92148C0.862845 2.84482 0.6481 2.78616 0.42959 2.74614C0.298246 2.72562 0.283447 2.67526 0.285297 2.55961C0.285297 1.91981 0.285297 1.27814 0.285297 0.638343C0.350044 0.578654 0.42774 0.606633 0.498037 0.606633H28.5095C28.5798 0.606633 28.6575 0.578654 28.7223 0.638343V5.01062C28.7112 5.01995 28.6982 5.03487 28.6871 5.03487C27.9897 5.03673 27.2923 5.05725 26.5949 5.02368Z" fill="#0F203C"/>
<path d="M24.1579 11.3302C24.9617 11.2576 25.751 11.0692 26.5017 10.7706C26.7212 10.685 26.9355 10.5866 27.1437 10.4759C27.2417 10.4255 27.2731 10.4218 27.3138 10.5375C27.4082 10.8005 27.5155 11.0579 27.632 11.3134C27.6764 11.4142 27.6487 11.4552 27.5636 11.5C26.7691 11.9616 25.9388 12.3577 25.081 12.6844C24.0887 13.0448 23.0639 13.3065 22.0212 13.466C21.9481 13.4741 21.8746 13.4784 21.8011 13.479C21.7271 13.5108 21.6438 13.4679 21.5717 13.5126L21.3127 13.5238C21.1666 13.5648 21.013 13.5033 20.8669 13.5593H19.8975C19.7514 13.5033 19.5978 13.5593 19.4517 13.5238L19.1927 13.5126C19.1205 13.4679 19.0373 13.5126 18.9633 13.479C17.9327 13.3794 16.9188 13.1481 15.9461 12.7907C15.097 12.4979 14.3182 12.0446 13.5227 11.6324C12.6519 11.1722 11.7217 10.8369 10.7589 10.6363C10.2428 10.5319 9.72665 10.4498 9.20683 10.3789C9.13468 10.336 9.05143 10.3789 8.97744 10.3453H8.7129C8.5834 10.2931 8.44466 10.3453 8.31331 10.3136C7.89805 10.2894 7.48173 10.2894 7.06647 10.3136C6.92032 10.3547 6.76493 10.2931 6.62064 10.3491H6.3561C6.26915 10.3864 6.17111 10.3323 6.08786 10.3845L5.91212 10.3938C5.84182 10.4293 5.75672 10.3808 5.68828 10.4293C4.93352 10.5057 4.18695 10.6493 3.45727 10.8583C3.18163 10.9366 2.9023 11.0224 2.63961 11.1138C2.55636 11.1418 2.51566 11.1418 2.46387 11.0579C2.34732 10.8713 2.21043 10.6997 2.09388 10.5169C2.03468 10.4293 1.99584 10.3435 2.12718 10.2614C3.30569 9.50854 4.58362 8.92705 5.92322 8.53412C6.69239 8.32252 7.47757 8.17528 8.27077 8.09391C8.37251 8.0566 8.48536 8.1107 8.58525 8.06033L9.16058 8.04541C9.30619 8.02769 9.45339 8.02769 9.59901 8.04541H10.1299C10.2298 8.09764 10.3408 8.04541 10.4426 8.07899L10.6609 8.09204C10.7312 8.13868 10.8144 8.09204 10.8866 8.12562C11.7602 8.25652 12.6194 8.47138 13.4524 8.76728C13.9152 8.95227 14.3684 9.16083 14.8102 9.39216C16.1408 10.0554 17.5365 10.5768 18.9744 10.9478C19.6928 11.1513 20.4309 11.2764 21.1758 11.3209C21.2461 11.3675 21.3275 11.3209 21.3996 11.3545L21.6642 11.3657C21.7789 11.4179 21.9047 11.3657 22.0231 11.3992C22.4679 11.4253 22.9139 11.4253 23.3587 11.3992C23.4623 11.3657 23.5752 11.4123 23.6788 11.3675L23.934 11.3545C24.0062 11.3302 24.0894 11.3787 24.1579 11.3302Z" fill="#00ADEE"/>
<path d="M16.879 16.7098C16.1399 16.6471 15.4098 16.5032 14.7016 16.2808C13.8315 16.0296 12.992 15.6811 12.1987 15.2418C11.0539 14.5619 9.80276 14.0832 8.49885 13.826C8.04006 13.7421 7.57388 13.66 7.11695 13.6078C7.04296 13.5686 6.95971 13.6078 6.88571 13.5779L6.58418 13.563C6.43618 13.5145 6.28079 13.563 6.13095 13.5313H5.10424C4.95516 13.532 4.80627 13.5419 4.65841 13.5611L4.35132 13.5742C4.27548 13.6022 4.19223 13.5649 4.11823 13.604L3.91474 13.6171C3.84445 13.6525 3.7612 13.6022 3.69275 13.6525C2.9402 13.7243 2.19583 13.8661 1.46915 14.076C1.18056 14.1524 0.893823 14.242 0.608935 14.3352C0.518289 14.3651 0.475741 14.3707 0.423943 14.2737C0.312948 14.0872 0.174204 13.9137 0.0539589 13.7346C-0.0107883 13.6432 -0.0385371 13.591 0.0946572 13.5052C1.51326 12.5819 3.08568 11.9247 4.73611 11.5653C5.25778 11.4534 5.78686 11.3787 6.31594 11.3265C6.41768 11.2948 6.52683 11.347 6.62673 11.2948H8.03267C8.13626 11.3414 8.24911 11.2948 8.3527 11.3265L8.57469 11.3377C8.64314 11.3862 8.72639 11.3377 8.79668 11.3713C9.77443 11.5029 10.734 11.747 11.6567 12.0987C12.256 12.3394 12.8147 12.6583 13.4011 12.9288C14.891 13.6207 16.4608 14.122 18.074 14.4211C18.4083 14.5011 18.7499 14.5461 19.0933 14.5554C19.1618 14.602 19.2432 14.5554 19.3153 14.5871L19.5762 14.602C19.6779 14.6486 19.7889 14.602 19.8925 14.6318C20.3964 14.6654 20.9019 14.6654 21.4057 14.6318C21.5075 14.5983 21.6185 14.6505 21.7202 14.6001L21.9385 14.5889C22.0088 14.5554 22.0921 14.6039 22.1605 14.5554C22.925 14.4857 23.6761 14.308 24.3915 14.0275C24.644 13.9448 24.8866 13.834 25.1148 13.6973C25.1981 13.6432 25.2462 13.6656 25.2813 13.7533C25.3849 14.0126 25.4922 14.27 25.5995 14.5274C25.6421 14.63 25.5995 14.6803 25.5144 14.74C25.0717 15.0117 24.6127 15.2553 24.1399 15.4694C23.5667 15.7372 22.9765 15.9665 22.3732 16.1558C21.6547 16.3846 20.9183 16.5518 20.1718 16.6557C20.0497 16.6725 19.9295 16.693 19.8019 16.7116C19.7297 16.7415 19.6465 16.6967 19.5762 16.7434L19.3135 16.7564C19.1951 16.79 19.0693 16.7378 18.9435 16.7863H17.7318C17.6134 16.7396 17.4876 16.7863 17.3618 16.7564L17.101 16.7415C17.0344 16.6986 16.9511 16.7415 16.879 16.7098Z" fill="#00ADEE"/>
<path d="M50.9171 35.8571C50.4953 35.8571 50.0736 35.8571 49.6536 35.8571C49.5969 35.8624 49.5398 35.8501 49.4902 35.8217C49.4406 35.7934 49.4008 35.7504 49.3761 35.6986C48.7373 34.6453 48.0954 33.5927 47.4504 32.5406C47.4171 32.5406 47.393 32.5406 47.393 32.5817C47.3788 32.9871 47.385 33.393 47.4115 33.7978C47.4115 34.4171 47.4115 35.0364 47.4115 35.6631C47.4115 35.8142 47.3819 35.8702 47.2265 35.8627C46.9305 35.8497 46.6346 35.8534 46.3386 35.8627C46.2128 35.8627 46.1758 35.8254 46.1758 35.6986C46.1758 34.0497 46.1758 32.4013 46.1758 30.7537C46.1758 30.6082 46.2294 30.5802 46.3608 30.5821C46.7308 30.5821 47.0859 30.5914 47.4485 30.5821C47.5054 30.5756 47.5629 30.5875 47.6127 30.616C47.6626 30.6445 47.7022 30.6881 47.726 30.7406C48.3624 31.802 49.0062 32.8577 49.6481 33.9116C49.6481 33.9116 49.674 33.9116 49.7147 33.9359V32.2702C49.6943 31.7236 49.7147 31.1771 49.7054 30.6306C49.7054 30.6063 49.7221 30.5914 49.7332 30.5727H50.9134C50.9671 30.6194 50.9449 30.6846 50.9449 30.7406C50.9449 32.3933 50.9449 34.0465 50.9449 35.7004C50.9548 35.7543 50.9449 35.81 50.9171 35.8571Z" fill="#00ADEE"/>
<path d="M55.4424 33.4491C55.4424 34.2232 55.4424 34.9301 55.4424 35.6371C55.4424 35.8012 55.4147 35.8739 55.2297 35.8628C54.9567 35.8469 54.6831 35.8469 54.4102 35.8628C54.2455 35.8721 54.1974 35.8255 54.1993 35.6557C54.1993 34.6559 54.1993 33.6561 54.1993 32.6582C54.1993 32.0314 54.1993 31.4047 54.1993 30.7798C54.1993 30.6175 54.2492 30.5765 54.4009 30.5821C54.6821 30.5933 54.9559 30.5933 55.2426 30.5821C55.3962 30.5821 55.4443 30.6175 55.4424 30.7779C55.4332 31.4028 55.4424 32.0258 55.4424 32.6899C55.6125 32.5391 55.768 32.3724 55.9067 32.1918C56.3637 31.6882 56.7966 31.1622 57.235 30.6399C57.2886 30.5765 57.3497 30.5858 57.42 30.5858C57.8991 30.5858 58.3801 30.5858 58.8999 30.5858C58.7649 30.7406 58.652 30.8805 58.5299 31.0111C57.9602 31.6248 57.3922 32.2403 56.8114 32.8428C56.6819 32.9771 56.693 33.0536 56.8114 33.1842C57.5513 34.0609 58.2913 34.945 59.0572 35.859C58.5022 35.859 57.9731 35.8702 57.4514 35.859C57.2424 35.859 57.1924 35.6184 57.0814 35.486C56.7115 35.0607 56.3748 34.613 56.0251 34.1803L55.4424 33.4491Z" fill="#00ADEE"/>
<path d="M91.0058 30.5784H92.2268C92.2897 30.6493 92.2582 30.7351 92.2582 30.8134C92.2582 31.789 92.2582 32.7645 92.2582 33.7401C92.2445 33.8207 92.2515 33.9035 92.2786 33.9807C92.286 34.1927 92.3684 34.395 92.5109 34.551C92.6534 34.707 92.8466 34.8064 93.0555 34.8313C93.3033 34.8782 93.5594 34.824 93.7675 34.6806C93.9757 34.5372 94.1188 34.3163 94.1655 34.0665C94.1933 33.9297 94.2063 33.7902 94.2043 33.6505C94.2043 32.6974 94.2043 31.7423 94.2043 30.7891C94.2043 30.6194 94.2524 30.5728 94.4171 30.5802C94.7112 30.5933 95.0072 30.5802 95.3032 30.5802C95.4308 30.5802 95.4882 30.6064 95.4882 30.7518C95.4882 31.8244 95.5122 32.8988 95.4882 33.9695C95.4512 35.1428 94.6372 35.887 93.5088 35.984C92.9075 36.0363 92.323 35.9728 91.8124 35.611C91.5771 35.4458 91.3822 35.2288 91.2425 34.9764C91.1027 34.724 91.0218 34.4428 91.0058 34.1542L90.9947 34.0217C90.9633 33.6058 90.9947 33.1898 90.9818 32.7738C90.9818 32.1135 90.9818 31.4513 90.9818 30.791C90.9762 30.7201 90.9448 30.6418 91.0058 30.5784Z" fill="#00ADEE"/>
<path d="M99.8234 32.1489C99.8511 32.3746 100.038 32.4287 100.203 32.5033C100.608 32.6898 101.044 32.7812 101.446 32.9827C102.43 33.477 102.371 34.7323 101.816 35.3516C101.385 35.8291 100.83 35.9858 100.216 35.9914C99.6471 36.0095 99.0863 35.8548 98.6061 35.5475C98.4951 35.4747 98.4211 35.3609 98.2972 35.3106C98.2269 35.2807 98.2158 35.2192 98.2842 35.152C98.5229 34.917 98.7597 34.682 98.989 34.4395C99.0815 34.3388 99.1222 34.4171 99.174 34.4731C99.323 34.6319 99.5058 34.7546 99.7087 34.8318C99.9115 34.909 100.129 34.9388 100.345 34.9189C100.485 34.9146 100.618 34.8592 100.72 34.7631C100.822 34.667 100.886 34.5367 100.9 34.3966C100.924 34.1597 100.774 34.0235 100.597 33.9247C100.272 33.7582 99.9312 33.6274 99.5792 33.5348C99.3592 33.476 99.1556 33.3668 98.9843 33.2157C98.8129 33.0646 98.6785 32.8757 98.5913 32.6637C98.5632 32.5813 98.5427 32.4963 98.5303 32.41C98.5109 32.2178 98.5109 32.024 98.5303 31.8318C98.6061 31.1883 99.0852 30.7126 99.7882 30.541C100.153 30.4424 100.535 30.4209 100.908 30.4777C101.282 30.5345 101.64 30.6685 101.96 30.8712C101.979 30.8823 101.999 30.8917 102.017 30.9047C102.282 31.0782 102.278 31.0763 102.058 31.3058C101.884 31.4923 101.712 31.6695 101.549 31.8654C101.459 31.9717 101.407 31.9605 101.307 31.8654C101.163 31.7151 100.981 31.6072 100.781 31.5533C100.581 31.4994 100.37 31.5015 100.171 31.5595C99.9954 31.6098 99.8474 31.6994 99.8271 31.9101C99.795 31.9862 99.7937 32.0719 99.8234 32.1489Z" fill="#00ADEE"/>
<path d="M76.9798 30.5784C78.3007 30.5784 79.6215 30.5784 80.9423 30.5784C81.1421 30.5784 81.1976 30.6343 81.181 30.8265C81.1634 31.0418 81.1634 31.2583 81.181 31.4737C81.1958 31.6602 81.1199 31.692 80.9534 31.692C80.5415 31.673 80.1289 31.6792 79.7177 31.7106C79.6889 31.7874 79.6819 31.8707 79.6974 31.9512C79.6974 33.1711 79.6974 34.3923 79.6974 35.6147C79.7076 35.6958 79.702 35.7782 79.6807 35.8572H78.4357C78.4054 35.7815 78.3977 35.6985 78.4135 35.6184C78.4135 34.3935 78.4135 33.168 78.4135 31.9419C78.4281 31.8619 78.4211 31.7795 78.3932 31.7032L76.9835 31.692C76.9286 31.3229 76.9274 30.9478 76.9798 30.5784Z" fill="#00ADEE"/>
<path d="M40.3594 23.3167C40.4109 23.3467 40.4704 23.3598 40.5296 23.354H44.4865C44.5159 23.3518 44.545 23.3468 44.5735 23.3391C44.505 23.4062 44.4181 23.3783 44.3404 23.3783C43.0936 23.3783 41.8467 23.3783 40.5999 23.3783C40.5185 23.3671 40.4186 23.4118 40.3594 23.3167Z" fill="#FCFCFC"/>
<path d="M108.876 30.8264C108.891 30.6399 108.838 30.5765 108.636 30.5783C107.315 30.5783 105.994 30.5783 104.673 30.5783C104.599 30.6194 104.62 30.694 104.62 30.7649C104.62 31.0167 104.62 31.2685 104.62 31.5222C104.62 31.5856 104.599 31.6583 104.673 31.7087C105.08 31.7087 105.487 31.7087 105.892 31.6994C106.089 31.6994 106.135 31.7479 106.133 31.9437C106.133 33.1804 106.133 34.4153 106.133 35.652C106.133 35.8385 106.187 35.887 106.366 35.8795C106.705 35.8646 107.045 35.8795 107.385 35.8795C107.454 35.8031 107.422 35.7098 107.422 35.624C107.422 34.3183 107.422 33.0293 107.422 31.733C107.834 31.7016 108.246 31.6953 108.658 31.7143C108.823 31.7143 108.9 31.6845 108.884 31.4961C108.864 31.2734 108.861 31.0495 108.876 30.8264Z" fill="#00ADEE"/>
<path d="M69.6849 34.695C69.6127 34.6204 69.5128 34.5701 69.6072 34.4469L70.645 33.0722C70.6228 33.0088 70.571 33.0125 70.5192 33.0125C70.1122 33.0125 69.7034 32.9995 69.2964 33.0219C69.1947 33.1823 69.0911 33.3408 68.9912 33.5031C68.7969 33.8202 68.8062 33.8202 68.5379 33.5535C68.4195 33.4322 68.2105 33.3072 68.2105 33.1804C68.2105 33.0219 68.4695 32.9939 68.6045 32.8801C68.7942 32.7505 68.9478 32.5741 69.0507 32.3678C69.1537 32.1615 69.2026 31.932 69.1928 31.7012C69.1869 31.4583 69.1081 31.2229 68.9667 31.026C68.8254 30.8292 68.6281 30.6803 68.401 30.5988C67.9006 30.3947 67.3436 30.3814 66.8342 30.5615C66.0942 30.7965 65.8223 31.4942 66.022 32.2142C66.121 32.4744 66.2637 32.7154 66.4438 32.9267C65.9147 33.1785 65.5059 33.5292 65.4208 34.1541C65.4014 34.3158 65.4014 34.4792 65.4208 34.6409C65.4475 34.8657 65.5291 35.0804 65.6582 35.2656C65.7873 35.4508 65.96 35.6009 66.1608 35.7023C66.458 35.8615 66.7882 35.9477 67.1246 35.9541C67.2407 35.969 67.3582 35.969 67.4742 35.9541C67.8879 35.9434 68.2858 35.7915 68.6027 35.5232C68.7877 35.3628 68.8617 35.415 68.993 35.5568C69.0929 35.6669 69.178 35.8403 69.3371 35.8459C69.8273 35.859 70.3157 35.8459 70.78 35.8459C70.4138 35.471 70.053 35.0811 69.6849 34.695ZM67.9941 34.7062C67.9138 34.7937 67.8161 34.8632 67.7074 34.9102C67.5987 34.9571 67.4815 34.9804 67.3632 34.9786C67.2029 34.9949 67.0421 34.9519 66.9108 34.8575C66.7796 34.7631 66.6869 34.6238 66.65 34.4656C66.6131 34.3074 66.6345 34.1411 66.7103 33.9976C66.786 33.8541 66.9109 33.7434 67.0617 33.6859C67.0923 33.6653 67.1296 33.6571 67.1659 33.663C67.2023 33.6689 67.2351 33.6884 67.2578 33.7176C67.5057 33.9806 67.7536 34.2474 68.0107 34.5048C68.0995 34.5962 68.0514 34.6521 67.9941 34.71V34.7062ZM67.5501 32.4679C67.53 32.4725 67.5091 32.4725 67.489 32.4679C67.2781 32.4007 67.0654 31.9269 67.1375 31.6844C67.1759 31.5589 67.2622 31.4538 67.3773 31.3922C67.4924 31.3307 67.6271 31.3177 67.7517 31.3561C67.8523 31.3813 67.9415 31.4399 68.0049 31.5225C68.0683 31.6051 68.1023 31.7068 68.1014 31.8113C68.0805 31.9627 68.0177 32.1052 67.9202 32.2223C67.8227 32.3395 67.6944 32.4265 67.5501 32.4735V32.4679Z" fill="#00ADEE"/>
<path d="M35.5577 34.2027C35.5467 33.9869 35.4756 33.7787 35.3526 33.6019C35.2295 33.425 35.0595 33.2867 34.8621 33.2029C34.7733 33.16 34.6605 33.1544 34.592 33.0574C34.7845 32.9813 34.9547 32.8575 35.087 32.6974C35.2193 32.5373 35.3093 32.3461 35.3487 32.1415C35.3689 32.0092 35.3689 31.8746 35.3487 31.7423C35.3192 31.5236 35.2311 31.3172 35.0938 31.1453C34.9566 30.9734 34.7754 30.8425 34.5698 30.7668C34.3999 30.7048 34.2263 30.6537 34.05 30.6138C33.9797 30.5765 33.8946 30.625 33.8243 30.5784C33.1158 30.5784 32.4054 30.5784 31.6969 30.5784C31.5397 30.5784 31.4805 30.6063 31.4805 30.7836C31.4879 32.4089 31.4879 34.0335 31.4805 35.6576C31.4805 35.8106 31.5138 35.8628 31.6655 35.8591C32.3092 35.8497 32.9604 35.8591 33.5949 35.8591C34.0718 35.882 34.5445 35.7591 34.9509 35.5065C35.166 35.3714 35.3378 35.1764 35.4455 34.945C35.5531 34.7137 35.5921 34.4559 35.5577 34.2027ZM33.2619 31.6043C33.4319 31.599 33.6019 31.6172 33.767 31.6584C33.8676 31.6751 33.9594 31.7264 34.0269 31.8036C34.0943 31.8807 34.1332 31.979 34.137 32.0818C34.1494 32.1867 34.1278 32.2928 34.0755 32.3842C34.0231 32.4757 33.9428 32.5476 33.8465 32.5892C33.508 32.7403 33.1491 32.6638 32.7976 32.6768C32.7218 32.6768 32.731 32.6134 32.731 32.5631C32.731 32.4213 32.731 32.2814 32.731 32.1396C32.7236 31.6062 32.7236 31.608 33.2619 31.6043ZM34.0019 34.7026C33.6153 34.8891 33.2046 34.8107 32.8013 34.8182C32.7273 34.8182 32.7292 34.7585 32.7292 34.7063C32.7292 34.3873 32.7292 34.0665 32.7292 33.7475C32.7292 33.6431 32.7773 33.6226 32.8642 33.6263C32.9826 33.6263 33.101 33.6263 33.273 33.6263C33.4982 33.6129 33.724 33.6381 33.9409 33.7009C34.0435 33.724 34.1355 33.781 34.2025 33.8627C34.2695 33.9444 34.3076 34.0463 34.3108 34.1523C34.3231 34.2648 34.2991 34.3783 34.2425 34.476C34.1858 34.5738 34.0996 34.6506 33.9964 34.6951L34.0019 34.7026Z" fill="#00ADEE"/>
<path d="M88.0873 35.6277C87.7081 34.9972 87.3325 34.363 86.9441 33.74C86.8701 33.6188 86.8978 33.5777 87.0033 33.5348C87.2608 33.4457 87.4868 33.2825 87.6535 33.0654C87.8202 32.8483 87.9202 32.5868 87.9412 32.3131C87.9615 32.2109 87.9615 32.1056 87.9412 32.0034C87.9251 31.7566 87.8448 31.5183 87.7085 31.3127C87.5721 31.107 87.3843 30.9412 87.1642 30.832C86.9251 30.7323 86.6774 30.6549 86.4242 30.6007C86.3521 30.5727 86.2707 30.6175 86.2022 30.569H84.1396C84.0267 30.569 83.9435 30.569 83.9453 30.7257C83.9453 32.3808 83.9453 34.036 83.9453 35.6911C83.9453 35.831 84.0027 35.8478 84.1174 35.8459C84.4707 35.8459 84.8259 35.8459 85.1811 35.8459C85.2104 35.7779 85.2182 35.7023 85.2033 35.6296C85.2033 35.1259 85.2033 34.6204 85.2033 34.1168C85.2033 33.7158 85.2033 33.7158 85.6121 33.7885C85.9155 34.363 86.2096 34.9431 86.5371 35.5083C86.6037 35.624 86.6222 35.831 86.7868 35.8385C87.2549 35.859 87.7229 35.8385 88.2242 35.8385L88.0873 35.6277ZM86.3558 32.7178C86.0043 32.8745 85.6288 32.8148 85.2625 32.8223C85.1737 32.8223 85.1811 32.757 85.1811 32.6973C85.1811 32.5332 85.1811 32.369 85.1811 32.1676C85.1996 32.0127 85.0978 31.7609 85.2181 31.6453C85.3383 31.5296 85.5973 31.608 85.7953 31.608C85.9721 31.602 86.1487 31.6272 86.3169 31.6826C86.4212 31.7117 86.5134 31.7738 86.58 31.8598C86.6466 31.9458 86.6841 32.051 86.6869 32.1601C86.7008 32.2779 86.6759 32.397 86.6161 32.4991C86.5563 32.6013 86.4648 32.6807 86.3558 32.7253V32.7178Z" fill="#00ADEE"/>
<path d="M43.4434 35.6072C43.2732 35.1931 43.0993 34.7809 42.9291 34.3668C42.421 33.1431 41.9203 31.9195 41.427 30.6958C41.4172 30.6604 41.3953 30.6296 41.3652 30.6088C41.3351 30.588 41.2987 30.5785 41.2624 30.5821C40.9312 30.5821 40.5982 30.5821 40.2653 30.5821C40.2246 30.5766 40.1834 30.5863 40.1493 30.6093C40.1153 30.6323 40.0907 30.6671 40.0803 30.707C39.7917 31.3972 39.492 32.0818 39.2053 32.7738C38.802 33.7475 38.4116 34.7249 38.001 35.6949C37.9381 35.8441 37.9658 35.859 38.0972 35.859C38.4671 35.859 38.8223 35.859 39.1831 35.859C39.2291 35.8647 39.2756 35.8526 39.3133 35.8253C39.351 35.798 39.3771 35.7575 39.3866 35.7116C39.4679 35.4524 39.5715 35.2024 39.6659 34.945C39.6973 34.8555 39.7343 34.8182 39.8324 34.8182C40.417 34.8182 41.0015 34.8182 41.5843 34.8182C41.6258 34.8166 41.6666 34.8292 41.7002 34.8539C41.7337 34.8786 41.7581 34.914 41.7693 34.9543C41.871 35.2173 41.9801 35.4785 42.0689 35.7471C42.0967 35.8366 42.1263 35.8609 42.2114 35.859C42.6406 35.859 43.0697 35.859 43.5285 35.859C43.4989 35.7583 43.4749 35.6818 43.4434 35.6072ZM40.0951 33.7773C40.3041 33.2065 40.5095 32.6413 40.7388 32.0127L41.3715 33.7773H40.0951Z" fill="#00ADEE"/>
<path d="M66.3348 0.00968637C66.2136 0.0374971 66.089 0.0475486 65.9648 0.0395313C66.0832 -0.0313504 66.2183 0.0171476 66.3348 0.00968637Z" fill="#FCFCFC"/>
<path d="M68.4019 0.0376869C68.281 0.0459847 68.1596 0.0333672 68.043 0.000380773C68.1614 0.0171685 68.2872 -0.0294641 68.4019 0.0376869Z" fill="#FCFCFC"/>
<path d="M68.9344 0.0842946C68.8559 0.0925737 68.7766 0.0816978 68.7031 0.0525844C68.7808 0.056315 68.8641 0.0246048 68.9344 0.0842946Z" fill="#FCFCFC"/>
<path d="M65.7023 0.0507582C65.6312 0.0816406 65.5533 0.0925968 65.4766 0.0824684C65.545 0.0246439 65.6264 0.0563541 65.7023 0.0507582Z" fill="#FCFCFC"/>
<path d="M79.9052 11.1064L79.8923 10.7632C79.8553 10.6868 79.8923 10.6028 79.8645 10.5245C79.8368 10.4461 79.8183 10.323 79.809 10.2204C79.7479 9.54939 79.6171 8.88667 79.4187 8.2432C78.8395 6.22126 77.6865 4.41424 76.1018 3.04459C75.1442 2.22459 74.0641 1.56232 72.9014 1.08229C71.6314 0.56646 70.2967 0.230618 68.9352 0.0843548C68.8612 0.0545099 68.778 0.0955466 68.704 0.0526446L68.4024 0.0377222C68.284 0.00601196 68.1582 0.0563752 68.0435 0.00601196H66.3324C66.2121 0.0507793 66.0845 0.00601196 65.9624 0.0358569L65.6997 0.0470487C65.6294 0.091816 65.5461 0.0470487 65.474 0.0787589C65.104 0.129122 64.734 0.158967 64.364 0.233579C63.3141 0.433804 62.2884 0.74646 61.3043 1.16623C60.0561 1.71066 58.9103 2.46786 57.9171 3.4046C57.5736 3.72991 57.2556 4.08164 56.9662 4.45663C56.1652 5.48316 55.5479 6.64273 55.1422 7.8832C54.8846 8.65344 54.7146 9.45068 54.6353 10.2596C54.6039 10.3323 54.6501 10.4163 54.602 10.4853L54.5909 10.7073C54.5576 10.8136 54.6039 10.9292 54.5613 11.0356L54.5465 11.6474C54.5262 11.8103 54.5262 11.9751 54.5465 12.138L54.5558 12.7181C54.6057 12.8188 54.5558 12.9289 54.5872 13.0314C54.6205 13.218 54.6261 13.4269 54.6427 13.6227C54.678 14.0183 54.7435 14.4106 54.8388 14.796C55.0124 15.5454 55.2603 16.2753 55.5788 16.9747C56.0078 17.9195 56.5603 18.8021 57.2215 19.5992C57.4916 19.9163 57.7765 20.2073 58.0762 20.502C58.3373 20.7679 58.6147 21.0171 58.9068 21.2481C60.0978 22.1691 61.4448 22.8644 62.8823 23.3C63.7686 23.5733 64.6805 23.754 65.6035 23.839C65.6775 23.8651 65.7607 23.826 65.8329 23.8689L66.1363 23.8819C66.2824 23.9192 66.4378 23.8614 66.5839 23.9136H67.7734C67.9344 23.8577 68.1027 23.9136 68.2637 23.8782H68.5282C68.6133 23.826 68.7132 23.8782 68.7965 23.8428C69.4604 23.7746 70.1188 23.6592 70.7666 23.4977C72.5452 23.0623 74.2106 22.2475 75.6504 21.1082C76.8739 20.1334 77.8821 18.9116 78.6103 17.5212C79.2943 16.1917 79.7224 14.7436 79.8719 13.2534C79.9071 13.1639 79.8571 13.0669 79.9052 12.9792L79.92 12.6248C79.9256 12.1249 79.9293 11.6119 79.9052 11.1064ZM72.8311 16.8889C71.7309 18.2218 70.1698 19.0838 68.4635 19.3007C67.0131 19.5152 65.5831 19.4071 64.229 18.8102C61.7964 17.7357 60.4496 15.8257 60.0593 13.2012C59.7972 11.6626 59.9902 10.0803 60.6143 8.6517C61.6465 6.3667 63.4039 4.9957 65.8551 4.57974C67.581 4.28689 69.2608 4.48088 70.8221 5.33706C72.7719 6.40588 73.893 8.09025 74.337 10.254C74.4441 10.8026 74.4962 11.3606 74.4924 11.9197C74.4942 13.757 74.0225 15.447 72.833 16.8814L72.8311 16.8889Z" fill="#0F203C"/>
</svg>
