<svg width="239" height="44" viewBox="0 0 239 44" fill="none" xmlns="http://www.w3.org/2000/svg">
<path fill-rule="evenodd" clip-rule="evenodd" d="M34.5043 0C34.5724 0.120064 34.6465 0.236615 34.7263 0.349206C35.3214 1.0993 35.2683 1.50438 34.6537 2.2447C34.4838 2.44913 34.3135 2.65339 34.1432 2.85769L34.1431 2.85781L34.143 2.85793L34.1429 2.85805L34.1428 2.85817L34.1427 2.8583L34.1426 2.85842L34.1425 2.85854L34.1424 2.85866L34.1423 2.85879L34.1422 2.85891L34.141 2.86034L34.1409 2.8604L34.1409 2.86044L34.1409 2.86046C32.9749 4.25909 31.8072 5.65969 30.7426 7.13359C30.3048 7.73601 29.9604 8.4044 29.6157 9.07359C29.384 9.52314 29.1522 9.97305 28.8918 10.4036C28.6823 10.7486 28.3121 11.1243 27.9503 11.2109C27.6249 11.2877 27.0243 11.0908 26.879 10.8282C26.6778 10.465 26.608 9.82946 26.798 9.48305C27.8218 7.6127 28.8597 5.73816 30.0582 3.97816C30.6176 3.15271 31.3025 2.41264 31.9869 1.67317L31.987 1.67308C32.3159 1.31766 32.6447 0.962388 32.9594 0.597841C33.0716 0.471866 33.1685 0.32578 33.2649 0.180594V0.180589L33.2649 0.180579C33.3052 0.119712 33.3455 0.0590026 33.3868 0H34.5043ZM0.130132 20.2185L0.130157 20.2185C0.225913 20.1955 0.321775 20.1725 0.358984 20.1143C0.669079 19.6198 1.17194 19.4522 1.61613 19.6715C1.96952 19.8447 2.38718 20.3001 2.41232 20.6563C2.56693 22.9034 2.64141 25.1569 2.71587 27.4095L2.7266 27.734C2.75314 28.5609 2.25867 29.0344 1.50578 28.9911C0.947048 28.959 0.586667 28.6447 0.490286 28.1111C0.424163 27.7404 0.38377 27.3652 0.343356 26.9898C0.312057 26.6991 0.280746 26.4082 0.23746 26.1193C0.217645 25.989 0.153209 25.8652 0.0885059 25.7408C0.0574275 25.6811 0.0262873 25.6213 0 25.5605L0.00279365 20.254C0.0412869 20.2398 0.0856664 20.2292 0.130072 20.2185H0.130075H0.130078H0.130083H0.13009H0.1301L0.130113 20.2185L0.130132 20.2185ZM28.8779 38.1124C30.2999 40.3026 31.9244 42.3238 33.9456 44H34.225C34.3221 43.9394 34.4234 43.8857 34.5281 43.8394C35.4681 43.5013 35.6958 42.6884 35.0644 41.9313C33.6369 40.2216 32.2121 38.51 30.7902 36.7966C30.2915 36.1945 29.702 36.0479 29.1433 36.4041C28.5692 36.7742 28.4365 37.4307 28.8779 38.1124ZM238.301 15.2254L237.296 15.1528V11.6202L237.075 11.595C237.006 11.8779 236.933 12.16 236.86 12.4422L236.86 12.4432L236.86 12.4441L236.86 12.4451L236.859 12.4462L236.859 12.4472L236.859 12.4476C236.691 13.1016 236.522 13.7558 236.4 14.418C236.277 15.0815 236.008 15.3707 235.266 15.1164C235.126 14.5437 234.984 13.9622 234.84 13.3758L234.824 13.31C234.676 12.7051 234.527 12.0953 234.378 11.4847L234.192 11.5015V15.1332H233.315V10.1479H234.76L235.665 13.4263L235.805 13.4542C236.008 12.7214 236.212 11.988 236.416 11.2542C236.738 10.1005 236.74 10.1004 237.957 10.0893L237.962 10.0893C238.04 10.0893 238.118 10.0795 238.196 10.0698C238.233 10.0652 238.269 10.0607 238.305 10.0571L238.301 15.2254ZM177.436 20.5658C177.437 20.86 177.437 21.1568 177.437 21.4566C177.566 21.4146 177.683 21.3741 177.792 21.3362L177.792 21.336C177.973 21.2734 178.132 21.218 178.292 21.1745C179.569 20.8392 180.689 21.1242 181.622 22.0601C182.555 22.9959 182.828 24.1441 182.473 25.4013C182.001 27.0761 180.459 28.0664 178.742 27.8457C177.937 27.7522 177.193 27.3668 176.653 26.7625C176.112 26.1581 175.812 25.3767 175.809 24.566C175.785 23.1984 175.786 21.8309 175.787 20.4633V20.4605C175.788 19.7114 175.788 18.9623 175.785 18.2132C175.785 18.0247 175.766 17.8354 175.747 17.646L175.746 17.6439C175.742 17.6016 175.738 17.5593 175.734 17.517C175.732 17.4954 175.73 17.4738 175.728 17.4521C175.726 17.4353 175.725 17.4185 175.723 17.4017H171.882V40.2956H175.837V31.0766C177.331 31.7778 178.794 32.0236 180.29 31.761C184.445 31.0333 186.99 27.5035 186.447 23.2935C185.94 19.367 181.684 16.3512 177.868 17.2326C177.7 17.2704 177.457 17.5036 177.457 17.6517C177.431 18.6127 177.433 19.5745 177.436 20.564V20.5658ZM100.434 21.8128C99.8156 20.7959 99.0627 20.416 98.1869 20.3531C96.7901 20.2582 95.6196 20.7638 94.8876 22.0154C94.1194 23.3298 94.2032 24.6456 95.0692 25.8846C95.9073 27.0789 97.082 27.6446 98.5124 27.3624C99.2597 27.2227 99.979 26.8246 100.652 26.4433C101.025 26.231 101.27 26.1374 101.64 26.407C102.194 26.8119 102.762 27.199 103.344 27.5944L103.344 27.5946C103.625 27.7857 103.908 27.9788 104.195 28.1768C103.002 29.6784 101.58 30.6463 99.7388 31.0305C96.6001 31.687 93.5788 30.5821 91.8034 28.058C89.7487 25.1387 90.1496 21.0739 92.7407 18.5484C95.2745 16.083 99.2611 15.7743 102.006 17.8961C103.649 19.1658 104.541 20.8909 104.723 22.9694C104.748 23.2661 104.764 23.5639 104.781 23.8624C104.798 24.1694 104.814 24.4772 104.841 24.7853C104.889 25.3147 104.716 25.527 104.143 25.5186C103.745 25.5126 103.346 25.505 102.948 25.4973C101.203 25.4637 99.4562 25.4301 97.7176 25.5382C96.2677 25.6276 95.6712 24.1637 96.1462 23.0797C96.5037 22.2598 97.1407 21.8156 98.0598 21.8226L100.434 21.8128ZM203.406 17.3695H199.634V18.1266C199.633 18.7635 199.635 19.4006 199.636 20.0377V20.0378V20.038V20.0381V20.0383V20.0385V20.0386V20.0388V20.0389V20.0391V20.0392V20.0394V20.0395V20.0397V20.0398V20.04V20.0401V20.0403V20.0404V20.0406V20.0408V20.0409V20.0411V20.0412V20.0414V20.0415V20.0417V20.0418V20.042V20.0421V20.0423V20.0424V20.0426V20.0428V20.0429V20.0431C199.639 21.521 199.641 22.9995 199.619 24.478C199.591 26.3749 198.129 27.9002 196.322 27.9826C194.46 28.0678 192.853 26.7785 192.61 25.0032C192.347 23.0825 193.537 21.3463 195.473 21.025C195.976 20.9413 196.504 21.0059 197.051 21.0729C197.307 21.1043 197.567 21.1361 197.831 21.1535C197.831 20.9047 197.832 20.6501 197.833 20.3911C197.836 19.5146 197.84 18.5876 197.807 17.6615C197.803 17.5134 197.497 17.2494 197.316 17.234L197.282 17.2312C196.58 17.1734 195.857 17.1139 195.17 17.1991C193.315 17.4265 191.617 18.3534 190.422 19.7908C189.227 21.2281 188.626 23.0673 188.742 24.9328C188.857 26.7982 189.68 28.5492 191.043 29.8281C192.406 31.107 194.206 31.8174 196.075 31.8141C196.832 31.8055 197.586 31.6492 198.353 31.4903C198.712 31.416 199.073 31.3411 199.439 31.2805C199.328 31.7389 199.658 31.7309 200 31.7227L200.001 31.7227C200.025 31.7221 200.048 31.7216 200.072 31.7211C200.094 31.7208 200.116 31.7205 200.137 31.7205C200.386 31.7205 200.636 31.7174 200.885 31.7143L200.885 31.7143C201.474 31.707 202.063 31.6997 202.651 31.7331C203.276 31.7666 203.48 31.592 203.48 30.9285C203.452 26.6766 203.452 22.4135 203.452 18.1559C203.452 17.989 203.439 17.8189 203.425 17.6412L203.425 17.6407L203.425 17.6394L203.425 17.6379C203.418 17.5505 203.411 17.4612 203.406 17.3695ZM83.4701 30.6477C83.1096 30.6923 82.7391 30.7529 82.3617 30.8146C81.5573 30.9461 80.7215 31.0827 79.8858 31.0808C76.6396 31.0808 73.6504 28.4184 73.1182 25.2057C72.4198 20.9594 75.1017 17.2438 79.3522 16.5705C82.6864 16.0481 86.0779 18.311 87.0906 21.8072C87.3401 22.6999 87.4785 23.6199 87.5027 24.5464C87.5379 25.5776 87.5345 26.6104 87.5312 27.6426C87.5284 28.4953 87.5256 29.3475 87.5446 30.198C87.5614 30.8726 87.3141 31.05 86.6981 31.0165C86.3588 30.9974 86.0182 31.0016 85.6777 31.0058C85.2964 31.0105 84.9151 31.0152 84.5358 30.9872C84.2967 30.97 84.0633 30.8768 83.8195 30.7794L83.8194 30.7794C83.7058 30.734 83.5899 30.6877 83.4701 30.6477ZM80.2574 27.3023C81.1743 27.2969 82.0524 26.9309 82.7018 26.2836C83.3513 25.6362 83.7201 24.7594 83.7285 23.8424C83.7285 21.9497 82.0998 20.3196 80.2113 20.335C79.7517 20.3417 79.2981 20.4389 78.8761 20.621C78.4542 20.8031 78.0722 21.0665 77.7521 21.3963C77.432 21.726 77.1799 22.1155 77.0104 22.5427C76.8408 22.9698 76.7571 23.4262 76.7639 23.8857C76.7683 24.3396 76.8622 24.7882 77.0402 25.2058C77.2183 25.6233 77.477 26.0017 77.8015 26.3191C78.1261 26.6365 78.51 26.8867 78.9315 27.0554C79.3529 27.2241 79.8035 27.3081 80.2574 27.3023ZM132.107 28.8049L132.107 28.8004C132.106 28.5339 132.105 28.2627 132.105 27.9854L131.993 27.9854L131.884 27.9855H131.882H131.882C131.545 27.9857 131.278 27.9858 131.014 27.9812C129.456 27.9728 128.782 27.3512 128.758 25.8036C128.744 24.7038 128.743 23.6041 128.742 22.5043V22.5023C128.742 21.5312 128.741 20.5601 128.731 19.5891C128.727 19.1589 128.902 19.0038 129.301 19.0038H131.117C131.47 19.0052 131.688 18.9088 131.688 18.4898C131.683 18.1627 131.684 17.8349 131.685 17.5069V17.5068V17.5067V17.5066V17.5065V17.5064V17.5063V17.5062V17.5061V17.506V17.5059V17.5058V17.5057V17.5056V17.5055V17.5054V17.5053V17.5052V17.5051V17.505V17.5049V17.5048V17.5047V17.5046V17.5045V17.5044V17.5043V17.5042V17.5041V17.504V17.5039V17.5038V17.5037V17.5036V17.5035C131.687 16.9249 131.689 16.3457 131.658 15.7688C131.648 15.6005 131.378 15.423 131.187 15.2978L131.17 15.2869C131.097 15.2423 130.991 15.2535 130.886 15.2645C130.84 15.2694 130.794 15.2743 130.751 15.2743C129.743 15.2729 129.236 15.2722 128.981 15.0185C128.724 14.7624 128.724 14.2484 128.724 13.2155V13.2154V11.5951C128.447 11.7762 128.176 11.9531 127.91 12.1267L127.906 12.1294C126.884 12.7956 125.936 13.4145 124.995 14.0465C124.936 14.0987 124.889 14.1633 124.858 14.2358C124.826 14.3082 124.812 14.3867 124.815 14.4655C124.893 15.1234 124.602 15.3595 123.976 15.2799C123.513 15.2212 123.359 15.4531 123.373 15.8931C123.385 16.3121 123.381 16.7312 123.377 17.1502C123.375 17.3597 123.373 17.5693 123.373 17.7788C123.372 18.3699 123.371 18.666 123.518 18.8301C123.665 18.9949 123.961 19.0265 124.555 19.09L124.559 19.0904C124.643 19.1202 124.722 19.1615 124.795 19.2133V20.0193C124.795 20.734 124.786 21.4486 124.777 22.163C124.758 23.7317 124.738 25.2994 124.808 26.8638C124.972 30.6017 128.069 32.6047 131.677 31.5794C131.848 31.5319 132.085 31.2945 132.085 31.1394C132.113 30.3752 132.11 29.611 132.107 28.8049ZM151.37 28.3891C151.37 28.6725 151.371 28.9501 151.372 29.223V29.2237V29.2244V29.2248V29.2251V29.2255V29.2258V29.2261V29.2264V29.2268V29.2271V29.2274V29.2277V29.228V29.2283V29.2286V29.2289V29.2292V29.2295V29.2298V29.2301V29.2304V29.2306V29.2309V29.2312V29.2315V29.2317V29.232V29.2323V29.2325V29.2328V29.233V29.2333V29.2335V29.2338V29.234C151.375 30.0332 151.377 30.7936 151.354 31.5501C151.332 31.6418 151.289 31.727 151.227 31.7987C151.166 31.8703 151.088 31.9263 151.001 31.9622C147.442 33.0796 144.21 31.0361 144.057 27.456C143.969 25.3524 144.006 23.2423 144.043 21.1353C144.048 20.8456 144.053 20.556 144.057 20.2665C144.066 19.6268 143.859 19.3502 143.219 19.4284C142.661 19.4941 142.494 19.2343 142.521 18.6965C142.563 17.9073 142.557 17.1139 142.521 16.3219C142.501 15.8372 142.669 15.6235 143.158 15.6822C143.799 15.7632 144.122 15.5425 144.064 14.8441C144.072 14.7449 144.1 14.6486 144.148 14.5617C144.197 14.4749 144.263 14.3996 144.344 14.3412C145.199 13.7652 146.063 13.2055 147.014 12.589L147.015 12.5886L147.016 12.5879L147.017 12.5872L147.018 12.587L147.02 12.5856L147.021 12.5846C147.311 12.3967 147.61 12.2035 147.918 12.0029V14.1973C147.919 14.2567 147.919 14.3137 147.919 14.3685C147.919 14.4025 147.919 14.4357 147.919 14.468V14.4738V14.4803V14.4877V14.4963C147.92 15.1281 147.921 15.4251 148.069 15.5627C148.2 15.6848 148.448 15.6816 148.916 15.6755C149.049 15.6737 149.2 15.6718 149.371 15.6724L149.392 15.6725C150.942 15.6793 150.944 15.6793 150.945 17.255C150.945 17.411 150.944 17.5671 150.942 17.7232C150.938 18.1026 150.934 18.4819 150.954 18.8599C150.976 19.2915 150.797 19.441 150.385 19.4298C149.966 19.4187 149.547 19.4224 149.128 19.4261C148.918 19.428 148.709 19.4298 148.499 19.4298C148.119 19.4298 147.941 19.5975 147.941 19.9732C147.949 20.6164 147.954 21.2597 147.958 21.9027V21.9035V21.9042V21.905V21.9057V21.9065V21.9072V21.908V21.9088V21.9095V21.9103V21.911V21.9118V21.9125V21.9133V21.914V21.9148V21.9155V21.9163V21.9171V21.9178V21.9186V21.9193V21.9201V21.9208V21.9216V21.9223V21.9231V21.9238V21.9246V21.9254V21.9261V21.9269V21.9276V21.9286C147.97 23.5112 147.982 25.0928 148.041 26.671C148.083 27.7884 148.798 28.3653 149.931 28.4003C150.144 28.4003 150.355 28.3977 150.576 28.3951L150.577 28.3951C150.822 28.3922 151.081 28.3891 151.37 28.3891ZM224.401 21.6424L227.74 19.8265C226.751 18.2635 225.572 17.181 223.642 17.1349C221.572 17.0916 219.779 18.0721 219.128 19.7665C218.459 21.5097 219.061 23.3745 220.738 24.7071C221.015 24.9257 221.298 25.1378 221.581 25.3501C221.856 25.5569 222.132 25.7638 222.403 25.9768C222.486 26.0421 222.571 26.1063 222.657 26.1708L222.657 26.1709L222.657 26.171L222.657 26.171L222.657 26.1711L222.657 26.1712L222.657 26.1713L222.657 26.1714C222.965 26.403 223.275 26.637 223.505 26.9308C223.651 27.1183 223.71 27.3752 223.769 27.6324L223.769 27.6326C223.795 27.7471 223.821 27.8616 223.855 27.97C223.726 27.997 223.59 28.0421 223.455 28.0871C223.162 28.1842 222.871 28.2808 222.65 28.1949C222.317 28.0654 222.072 27.6535 221.861 27.2992C221.844 27.2714 221.828 27.244 221.812 27.2171C221.726 27.0729 221.708 26.8878 221.687 26.674C221.677 26.5691 221.667 26.4572 221.647 26.3399L218.275 28.269C218.6 30.2441 219.631 31.4356 221.488 31.8392C222.281 32.0042 223.095 32.0405 223.9 31.9468C226.048 31.7065 227.581 30.2832 227.877 28.2466C228.124 26.5355 227.551 25.073 226.189 23.9793C225.734 23.6142 225.265 23.2655 224.796 22.9168L224.796 22.9167L224.796 22.9166L224.796 22.9165L224.795 22.9164L224.795 22.9163L224.795 22.9162L224.795 22.9161L224.795 22.916L224.795 22.9159L224.795 22.9158L224.795 22.9157L224.795 22.9156L224.795 22.9155L224.794 22.9154L224.794 22.9153L224.794 22.9152L224.794 22.9151L224.794 22.915L224.794 22.9149L224.794 22.9148L224.794 22.9147L224.794 22.9146L224.794 22.9146L224.793 22.9145L224.793 22.9144L224.793 22.9143L224.793 22.9142L224.793 22.9141L224.793 22.914L224.793 22.9139L224.793 22.9138L224.792 22.9135C224.255 22.5134 223.717 22.1133 223.199 21.6885C223.084 21.5942 223.067 21.3796 223.05 21.1641C223.043 21.0636 223.035 20.963 223.017 20.8742C223.11 20.8887 223.205 20.8978 223.3 20.9069C223.524 20.9284 223.749 20.95 223.939 21.0432C224.074 21.1093 224.167 21.2641 224.263 21.4252L224.263 21.4255L224.264 21.4269C224.307 21.5001 224.352 21.5745 224.401 21.6424ZM215.687 19.8349L212.38 21.6354C212.338 21.5768 212.301 21.5169 212.264 21.4588C212.179 21.3231 212.099 21.1973 211.988 21.12C211.756 20.9608 211.497 20.8466 211.224 20.7834C211.132 20.761 210.873 20.9859 210.89 21.046C210.956 21.2946 211.038 21.6047 211.222 21.7444C211.692 22.1175 212.174 22.4745 212.656 22.8313L212.657 22.8315C213.165 23.2079 213.673 23.5842 214.167 23.9793C215.506 25.0535 216.085 26.4936 215.86 28.1796C215.58 30.2301 214.091 31.6716 211.937 31.9286C211.018 32.0329 210.087 31.978 209.186 31.7666C207.429 31.3476 206.582 30.0318 206.222 28.2745L209.615 26.3344C209.635 26.4499 209.649 26.5578 209.663 26.6591C209.69 26.8688 209.714 27.0505 209.782 27.2144C209.909 27.5217 210.062 27.8625 210.299 28.072C210.696 28.4184 211.528 28.3514 211.777 28.0091C212.133 27.5105 211.736 27.1264 211.439 26.8665C210.825 26.3334 210.18 25.8358 209.536 25.3384L209.536 25.3383C209.26 25.1255 208.984 24.9128 208.711 24.6973C207.746 23.936 207.043 22.9973 206.895 21.7458C206.616 19.3544 208.166 17.4883 210.566 17.1838C212.879 16.9016 214.541 17.7746 215.687 19.8349ZM156.047 36.7348C156.012 36.8249 155.974 36.9221 155.93 37.0298C156.296 37.0298 156.654 37.0276 157.007 37.0253C157.859 37.0199 158.679 37.0147 159.499 37.0424C160.02 37.0592 160.272 36.8748 160.488 36.4041C163.323 30.299 166.159 24.1944 168.998 18.0903C169.051 17.9683 169.099 17.8427 169.155 17.6941L169.155 17.6933C169.191 17.5987 169.23 17.4948 169.277 17.3765C168.892 17.3765 168.515 17.3787 168.145 17.3809C167.261 17.386 166.414 17.3909 165.567 17.3653C165.053 17.35 164.785 17.5134 164.567 17.9925C161.798 24.0752 159.025 30.1575 156.249 36.2392C156.179 36.395 156.119 36.5502 156.047 36.7348ZM139.628 32.0558H135.298C135.296 32.0147 135.293 31.9745 135.291 31.9349L135.288 31.8985L135.287 31.8743L135.284 31.8336L135.284 31.8334C135.273 31.6648 135.263 31.5065 135.263 31.349C135.263 29.8539 135.265 28.3588 135.268 26.8638C135.273 23.8736 135.278 20.8835 135.263 17.8934C135.263 17.2271 135.47 17.0553 136.101 17.0832C137.062 17.129 138.027 17.1073 138.99 17.0856L138.99 17.0856L139.099 17.0832C139.477 17.0832 139.642 17.2005 139.642 17.6028C139.627 21.7632 139.628 25.9183 139.628 30.1284V30.1318V30.1351V30.1385V30.1419V30.1453V30.1487V30.1521V30.1555V30.1589V30.1623V30.1658V30.1692V30.1726V30.176V30.1794V30.1829V30.1863V30.1897V30.1932V30.1966V30.2V30.2035V30.2069V30.2104V30.2138V30.2173V30.2208V30.2242V30.2277L139.628 31.3056L139.628 32.0558ZM70.6131 25.6273C70.6141 25.0542 70.615 24.4811 70.615 23.9081C70.615 23.2884 70.6143 22.6687 70.6137 22.0489V22.0486V22.0484V22.0481V22.0478V22.0476V22.0473V22.0471V22.0468V22.0466V22.0463V22.0461V22.0458V22.0455V22.0453V22.045V22.0448V22.0445V22.0443V22.044V22.0438V22.0435V22.0432V22.043V22.0427V22.0425V22.0422C70.6121 20.3829 70.6104 18.723 70.6206 17.0608C70.6234 16.5929 70.4907 16.3806 69.9878 16.3959C69.01 16.4239 68.0322 16.4267 67.0545 16.3959C66.5279 16.3834 66.3686 16.5901 66.3686 17.0944C66.3826 21.6126 66.3826 26.129 66.3686 30.6436C66.3658 31.1772 66.5279 31.3979 67.0866 31.3769C68.0169 31.3392 68.9514 31.335 69.8802 31.3769C70.4725 31.4048 70.6345 31.1827 70.6275 30.6128C70.6078 28.951 70.6105 27.2891 70.6131 25.6273ZM113.602 19.5279L113.602 19.5258C113.597 18.726 113.592 17.9439 113.635 17.1642C113.644 16.9938 114.022 16.7228 114.246 16.7032C117.613 16.3987 120.253 18.5359 120.464 21.9134C120.591 23.9826 120.601 26.0593 120.611 28.1364V28.1364V28.1365V28.1366V28.1367V28.1367V28.1368V28.1369V28.1369V28.137V28.1371V28.1372V28.1372V28.1373V28.1374V28.1374V28.1375V28.1376V28.1376V28.1377V28.1378V28.1379V28.1379V28.138V28.1381V28.1381V28.1382V28.1383C120.615 29.0121 120.618 29.8861 120.631 30.7595C120.622 30.8617 120.602 30.9628 120.573 31.0612H116.723C116.719 30.9846 116.714 30.9078 116.708 30.8309C116.696 30.643 116.684 30.4544 116.68 30.265C116.668 29.5232 116.661 28.7809 116.655 28.0386V28.0385V28.0384V28.0383V28.0382V28.0381V28.038V28.0379V28.0378V28.0377V28.0376V28.0375V28.0374V28.0373V28.0372V28.0371V28.037V28.0369V28.0368V28.0367V28.0366V28.0365V28.0364V28.0363V28.0362V28.0361V28.0359V28.0358C116.641 26.3626 116.626 24.6891 116.547 23.0197C116.451 21.0027 115.702 20.3671 113.605 20.3266C113.605 20.0581 113.604 19.792 113.602 19.5279ZM111.837 25.6253V25.6251V25.625V25.6248V25.6246V25.6245V25.6243V25.6241V25.624V25.6238V25.6236V25.6235V25.6233V25.6231V25.623V25.6228V25.6226V25.6225V25.6223V25.6221V25.622V25.6218V25.6216V25.6215C111.838 25.0303 111.84 24.4391 111.84 23.848L111.831 23.8703C111.831 23.2724 111.83 22.6748 111.829 22.0774V22.0767V22.0759V22.0751V22.0744V22.0736V22.0728V22.0721V22.0713V22.0706V22.0698V22.069V22.0683V22.0675V22.0668V22.066V22.0652V22.0645V22.0637V22.063V22.0622V22.0614V22.0607V22.0599V22.0591V22.0584V22.0576C111.827 20.4721 111.824 18.8883 111.84 17.3053C111.84 16.7884 111.726 16.53 111.141 16.5566C110.32 16.589 109.497 16.5744 108.676 16.5599L108.487 16.5566C108.078 16.5426 107.901 16.6865 107.901 17.1153C107.904 21.6047 107.899 26.095 107.885 30.5863C107.884 30.9844 108.032 31.1185 108.419 31.1115C109.324 31.0947 110.235 31.078 111.14 31.1185C111.689 31.1436 111.861 30.9718 111.852 30.4131C111.83 28.816 111.833 27.2205 111.837 25.6253ZM33.5656 21.0753C33.6104 20.8246 33.6614 20.5368 33.7174 20.2201C33.9148 19.1057 34.1755 17.6339 34.4539 16.1654C34.5178 15.8702 34.652 15.5946 34.845 15.3623C35.2208 14.9055 35.739 14.8776 36.2419 15.1164C36.8202 15.3958 36.897 15.9336 36.7922 16.4923C36.7138 16.9075 36.6212 17.3206 36.5286 17.7339L36.5285 17.7342C36.4234 18.2036 36.3182 18.6731 36.2335 19.1463C35.5351 23.1705 36.3159 26.9392 38.2114 30.515C38.2536 30.5925 38.2977 30.6699 38.342 30.7479L38.3421 30.748L38.3421 30.7481L38.3422 30.7483L38.3423 30.7484L38.3424 30.7486L38.3424 30.7487L38.3425 30.7488C38.4578 30.9516 38.575 31.1577 38.6668 31.3755C38.9559 32.0599 38.7911 32.6494 38.2477 32.9623C37.6359 33.3171 37.0674 33.1983 36.6483 32.4999C36.134 31.6434 35.6709 30.7572 35.2613 29.846C34.1257 27.3107 33.6871 24.619 33.5656 21.0753ZM44.0308 9.93982C40.5722 12.8787 38.7102 16.6125 38.4588 21.0069V21.5684C38.4602 22.4693 38.8695 23.063 39.5567 23.0798C40.244 23.0965 40.6365 22.5699 40.7482 21.6508C40.8588 20.5443 41.0351 19.4454 41.2762 18.3599C41.9411 15.6431 43.5209 13.4933 45.5994 11.6775C46.2796 11.0796 46.3313 10.4776 45.834 9.91886C45.3703 9.39924 44.6719 9.39366 44.0308 9.93982ZM39.6727 40.054C39.5631 40.1794 39.4658 40.3062 39.3731 40.427C39.1799 40.6788 39.0066 40.9047 38.7829 41.0387C38.3275 41.3083 37.8149 41.1784 37.4517 40.7747C37.0449 40.325 36.625 39.8839 36.2051 39.4429C35.1632 38.3486 34.1213 37.2541 33.278 36.0255C32.3291 34.6431 31.6174 33.0936 30.9088 31.5506L30.9088 31.5505L30.9087 31.5505L30.9087 31.5504L30.9087 31.5504L30.9086 31.5503L30.9086 31.5503L30.9086 31.5502L30.9086 31.5501L30.9085 31.5501L30.9085 31.55L30.9085 31.55L30.9085 31.5499L30.9084 31.5499L30.9084 31.5498L30.9084 31.5497L30.9084 31.5497L30.9083 31.5496L30.9083 31.5496L30.9083 31.5495L30.9083 31.5495L30.9082 31.5494L30.9082 31.5493L30.9082 31.5493C30.7334 31.1688 30.5589 30.7887 30.381 30.4117C30.2329 30.0988 30.3391 29.48 30.5723 29.2202C30.8056 28.9604 31.4104 28.783 31.7373 28.8975C32.1033 29.0246 32.4567 29.4716 32.6159 29.8613C33.4777 31.9566 34.4904 33.9708 35.932 35.728C36.503 36.4233 37.1256 37.0747 37.7489 37.7269L37.7489 37.727L37.7491 37.7272C38.1213 38.1166 38.4937 38.5063 38.8555 38.9058C39.0501 39.1157 39.2099 39.3586 39.3957 39.6411L39.3957 39.6412C39.4807 39.7703 39.571 39.9077 39.6727 40.054ZM24.125 20.291L24.1248 20.2928L24.124 20.3006C24.0843 20.6812 24.0467 21.0406 24.0115 21.3714C24.042 21.8921 24.0645 22.3644 24.0855 22.8036C24.1287 23.7101 24.1652 24.4757 24.2517 25.2351C24.3836 26.3179 24.5701 27.3935 24.8105 28.4575C24.9739 29.2076 25.5745 29.6253 26.1528 29.5093C26.8275 29.3725 27.1725 28.8263 27.0845 28.0217C27.0673 27.8365 27.0402 27.6523 27.0035 27.47C26.4015 24.6959 26.326 21.8966 26.6054 19.082C26.6426 18.7092 26.6851 18.337 26.7276 17.9648L26.7276 17.9647L26.7276 17.9646L26.7276 17.9644L26.7276 17.9643L26.7276 17.9642L26.7276 17.9641L26.7277 17.9639L26.7277 17.9638L26.7277 17.9637L26.7277 17.9635L26.7277 17.9634L26.7277 17.9633L26.7277 17.9632L26.7277 17.963L26.7278 17.9629L26.7278 17.9628L26.7278 17.9626L26.7278 17.9625L26.7278 17.9624L26.7278 17.9623L26.7278 17.9621L26.7278 17.962C26.7904 17.4136 26.853 16.8653 26.8987 16.3149C26.949 15.7059 26.5607 15.2729 26.0313 15.2324C25.6472 15.2031 25.1876 15.474 24.8538 15.7325C24.6512 15.8875 24.5674 16.266 24.5325 16.5552C24.3794 17.855 24.2426 19.1649 24.125 20.291ZM4.84142 22.1006L4.87697 21.5737C5.00186 19.722 5.11321 18.0709 5.24091 16.4211C5.30237 15.6221 5.88066 15.0871 6.54275 15.1639C7.25234 15.2491 7.64345 15.9029 7.56244 16.7158C7.27469 19.6491 7.13082 22.5937 7.44929 25.5424C7.54428 26.4182 7.61412 27.2996 7.64904 28.1796C7.68256 28.9911 7.3152 29.4367 6.62796 29.5149C6.01615 29.5862 5.45882 29.1224 5.38478 28.3695C5.22895 26.7877 5.09836 25.2029 4.9757 23.7143L4.9757 23.7143C4.93014 23.1614 4.88568 22.6218 4.84142 22.1006ZM153.933 17.3807L158.593 27.111C158.778 26.7096 158.96 26.3174 159.139 25.9316L159.141 25.9277C159.67 24.7869 160.173 23.7027 160.654 22.6076C160.737 22.4177 160.654 22.1104 160.559 21.8966C160.417 21.5791 160.256 21.2675 160.095 20.956L160.095 20.9556L160.094 20.9552C159.805 20.3954 159.515 19.8357 159.336 19.2427C158.855 17.6698 157.914 17.0957 156.308 17.3597C155.811 17.4413 155.297 17.4218 154.745 17.4009C154.484 17.3909 154.214 17.3807 153.933 17.3807ZM83.7397 8.17982C84.0592 8.37795 84.3697 8.56954 84.6732 8.75681L84.6734 8.75691L84.6744 8.75754C85.5515 9.29874 86.3702 9.80388 87.1773 10.3267C87.2678 10.3917 87.3436 10.4751 87.3997 10.5714C87.4557 10.6677 87.4909 10.7747 87.5028 10.8855C87.5203 12.8252 87.5189 14.765 87.5175 16.7781L87.5175 16.7975C87.5171 17.3468 87.5167 17.9015 87.5167 18.4632C86.539 17.1586 85.4341 16.2283 84.0722 15.6249C83.9865 15.5762 83.9132 15.5084 83.8579 15.4268C83.8027 15.3451 83.767 15.2518 83.7537 15.1542C83.737 13.3411 83.738 11.5325 83.7392 9.63822L83.7392 9.6127C83.7394 9.14087 83.7397 8.6637 83.7397 8.17982ZM51.4548 27.2504C51.6789 27.3731 51.9025 27.4955 52.1183 27.625L52.2161 27.4602C52.7902 27.5049 53.1185 27.2255 53.342 26.7073C53.5654 26.1891 53.3434 25.7966 52.9676 25.4767C52.7428 25.3125 52.505 25.1667 52.2566 25.0409C50.9422 24.2601 50.1879 23.13 50.4002 21.5838C50.4804 21.0031 50.754 20.4431 51.0224 19.8938L51.0224 19.8937C51.0814 19.7731 51.1401 19.653 51.1964 19.5332C51.6113 18.6518 51.2118 17.7215 50.3332 17.6838C49.6976 17.6573 49.3219 18.0917 48.9992 18.5652C47.3496 20.9817 47.7798 24.4556 50.0231 26.34C50.4497 26.7 50.9537 26.9759 51.4548 27.2504ZM16.02 15.157C16.745 15.157 17.2856 15.8121 17.2353 16.5538C17.0956 18.73 16.9559 20.9077 16.8567 23.0867C16.8404 23.4338 16.8758 23.7831 16.9113 24.1326L16.9113 24.1327C16.9393 24.409 16.9674 24.6856 16.9699 24.9613C16.9699 25.7505 16.5075 26.2841 15.8524 26.3148C15.6935 26.318 15.5356 26.2894 15.3879 26.2308C15.2402 26.1722 15.1056 26.0848 14.992 25.9736C14.8785 25.8624 14.7883 25.7297 14.7266 25.5832C14.665 25.4367 14.6331 25.2794 14.633 25.1205C14.559 23.4513 14.5226 21.7779 14.5618 20.1087C14.5846 19.1526 14.6881 18.1974 14.7916 17.243L14.7916 17.2426C14.8208 16.9729 14.85 16.7032 14.8774 16.4337C14.9487 15.6752 15.4348 15.1611 16.02 15.157ZM19.3412 21.2813C19.3429 21.5372 19.3446 21.7932 19.3446 22.0489L19.1602 22.0698C19.2324 22.6828 19.3025 23.2962 19.3727 23.9096L19.3728 23.9111C19.5415 25.3869 19.7103 26.8628 19.9075 28.3346C20.0193 29.1699 20.5682 29.6043 21.1954 29.5093C21.9441 29.3948 22.2738 28.8752 22.1732 27.9491C22.1233 27.4945 22.0682 27.0402 22.0131 26.5859C21.8953 25.6149 21.7775 24.6437 21.7109 23.6692C21.6547 22.8546 21.6488 22.0373 21.6428 21.2196V21.2195C21.6392 20.7151 21.6355 20.2105 21.6201 19.7064C21.5949 18.9326 21.2052 18.5191 20.5515 18.5051C19.8601 18.4926 19.36 18.987 19.3446 19.7497C19.3344 20.2573 19.3378 20.768 19.3412 21.2788V21.279V21.2792V21.2793V21.2795V21.2796V21.2798V21.2799V21.2801V21.2802V21.2804V21.2805V21.2807V21.2808V21.281V21.2812V21.2813ZM137.489 15.5997C136.809 15.6096 136.152 15.3514 135.66 14.881C135.168 14.4106 134.881 13.7657 134.861 13.0855C134.857 12.7467 134.921 12.4107 135.049 12.0969C135.177 11.7831 135.365 11.4979 135.604 11.2577C135.843 11.0175 136.127 10.8272 136.441 10.6978C136.754 10.5685 137.089 10.5026 137.428 10.5041C138.886 10.4943 140.027 11.5895 140.044 13.0184C140.047 13.3559 139.983 13.6907 139.856 14.0034C139.729 14.3161 139.541 14.6005 139.304 14.8404C139.066 15.0804 138.784 15.2709 138.472 15.4012C138.161 15.5316 137.827 15.599 137.489 15.5997ZM65.8797 12.3382C65.8714 13.7056 67.0768 14.8832 68.4876 14.8832C69.1669 14.8754 69.8156 14.5997 70.2925 14.116C70.7694 13.6323 71.0359 12.9797 71.034 12.3004C71.0263 11.6319 70.7537 10.9936 70.2761 10.5257C69.7985 10.0578 69.1548 9.79835 68.4862 9.80431C67.8057 9.79866 67.1505 10.0615 66.6625 10.5359C66.1746 11.0102 65.8933 11.6578 65.8797 12.3382ZM49.6067 30.1898L49.6066 30.19L49.6066 30.19L49.6065 30.19L49.6065 30.1901L49.6064 30.1901L49.6064 30.1901C49.4406 30.4154 49.2926 30.6163 49.1012 30.7637C48.9125 30.9099 48.6762 30.981 48.4381 30.9632C48.1999 30.9454 47.9768 30.84 47.8119 30.6673C47.7644 30.6218 47.7169 30.5764 47.6693 30.531L47.5391 30.4067L47.539 30.4066C46.6598 29.5677 45.7771 28.7253 45.0113 27.7912C44.5553 27.2349 44.2679 26.5237 43.9906 25.8374L43.9897 25.8353C43.9767 25.803 43.9636 25.7707 43.9506 25.7385L43.9376 25.7064L43.9239 25.6726L43.9078 25.6331C43.6173 24.918 43.8827 24.3481 44.5098 24.0743C45.137 23.8005 45.7237 23.9961 46.031 24.7336C46.7002 26.3526 47.7907 27.7629 49.1892 28.8179C49.3695 28.9579 49.4899 29.1784 49.6273 29.43C49.6995 29.5624 49.7765 29.7034 49.8695 29.846C49.7728 29.9641 49.6876 30.0799 49.6067 30.1898ZM35.9866 7.67804C36.0252 7.56473 36.0693 7.43559 36.1261 7.28444C36.049 7.20021 35.9743 7.10176 35.8978 7.00099L35.8978 7.00094L35.8977 7.0009C35.7193 6.76583 35.5313 6.51813 35.281 6.40863C35.0349 6.28809 34.7519 6.26683 34.4906 6.34926C34.2292 6.43169 34.0096 6.6115 33.8772 6.85143C32.8911 8.49596 31.9277 10.1563 30.9872 11.8325C30.8573 12.0574 30.7944 12.4806 30.9201 12.6706C31.1427 13.0247 31.4697 13.3009 31.856 13.4612C32.4105 13.6484 32.8086 13.2824 33.088 12.7949C33.5795 11.945 34.0765 11.0972 34.573 10.2503C34.9781 9.55923 35.3828 8.86882 35.7839 8.17841C35.8633 8.03937 35.9159 7.88515 35.9866 7.67804ZM49.7074 14.0451C49.6102 14.1908 49.53 14.3304 49.4558 14.4595C49.3165 14.7018 49.1985 14.9072 49.0299 15.0466C47.8281 16.0091 46.8585 17.2299 46.193 18.6183C45.8493 19.3265 45.2613 19.4997 44.6327 19.1882C44.0041 18.8767 43.7946 18.2775 44.0879 17.6028C44.859 15.84 46.0044 14.358 47.5884 13.2726C47.7768 13.1577 47.9866 13.082 48.205 13.0501C48.4234 13.0182 48.646 13.0307 48.8595 13.0869C49.0864 13.1577 49.2555 13.4063 49.4389 13.6758L49.4389 13.6759C49.5231 13.7996 49.6102 13.9277 49.7074 14.0451ZM42.1094 28.3448C42.0574 28.3143 42.013 28.2882 41.98 28.2662C40.7592 28.276 40.2536 29.1727 40.7592 30.0429C41.6659 31.5905 42.8681 32.9445 44.2974 34.0281C44.8729 34.4709 45.5992 34.4318 46.0001 33.9736C46.468 33.4358 46.3772 32.8534 45.8185 32.2499C45.2933 31.6807 44.7797 31.1011 44.266 30.5214C43.7523 29.9417 43.2386 29.362 42.7134 28.7928C42.5255 28.5889 42.278 28.4437 42.1094 28.3448ZM12.4708 28.1321C12.5169 28.9143 12.0894 29.4702 11.4427 29.5163C10.8421 29.561 10.275 29.1071 10.1856 28.3681C9.99281 26.7609 9.83823 25.1489 9.72182 23.5323C9.66595 22.7515 10.2359 22.1481 10.891 22.1453C11.5461 22.1425 12.0406 22.725 12.095 23.5002C12.1724 24.5978 12.2654 25.6946 12.3583 26.7913C12.3961 27.2382 12.434 27.6852 12.4708 28.1321ZM29.0394 18.7954C28.9795 19.1267 28.9197 19.458 28.8584 19.7888L28.9673 19.8042V20.5026C28.9771 21.1312 29.2886 21.5069 29.9199 21.581C30.5695 21.6578 31.0723 21.3742 31.1771 20.7568C31.4201 19.32 31.6245 17.8766 31.7903 16.4267C31.8267 16.1339 31.7471 15.8384 31.5686 15.6035C31.3901 15.3686 31.1267 15.2129 30.8349 15.1695C30.2915 15.0731 29.6965 15.4684 29.5568 16.1068C29.3639 16.9986 29.2016 17.8972 29.0394 18.7954ZM42.9075 7.26351C42.8199 7.39849 42.7438 7.52655 42.6724 7.647C42.5308 7.88554 42.4069 8.09426 42.2454 8.26783C41.6757 8.87996 41.0914 9.47813 40.5072 10.0762L40.5059 10.0775L40.5053 10.0781C40.2636 10.3255 40.022 10.5729 39.7814 10.8212C39.2967 11.3227 38.6542 11.4107 38.1569 11.0419C37.6219 10.6424 37.4711 9.9496 37.9627 9.39227C38.8936 8.33101 39.8841 7.32366 40.9296 6.37513C41.1671 6.16002 41.7886 6.17957 42.1309 6.32763C42.3655 6.42917 42.5168 6.66932 42.6756 6.92148C42.7484 7.03703 42.8228 7.15509 42.9075 7.26351ZM39.9291 33.4486C39.8148 33.3873 39.6924 33.3216 39.5623 33.2444C39.443 33.3366 39.3099 33.4179 39.1819 33.4961C38.9217 33.6551 38.6826 33.8012 38.6236 33.9987C38.5063 34.401 38.5398 35.0198 38.7856 35.3257C39.3877 36.0786 40.121 36.7379 40.8529 37.3735C41.508 37.9462 42.1813 37.9015 42.6255 37.3427C43.018 36.8594 42.9104 36.1261 42.3699 35.6023C42.1867 35.4254 42.0048 35.2469 41.8228 35.0685C41.3929 34.6469 40.9629 34.2251 40.5163 33.8227C40.355 33.6773 40.1583 33.5717 39.9291 33.4486ZM28.9827 24.6763C28.9687 23.5183 29.2802 23.0686 29.9311 22.9778C30.6393 22.8786 31.11 23.2278 31.2749 24.0477C31.4285 24.8169 31.5486 25.5922 31.6352 26.3734C31.7218 27.1571 31.3321 27.7242 30.691 27.8499C30.0959 27.9658 29.5009 27.5161 29.3361 26.7478C29.1948 26.0882 29.0945 25.4199 29.0222 24.9377L29.0222 24.9376L29.0222 24.9375L29.0222 24.9374L29.0221 24.9372L29.0221 24.9372L29.022 24.9362C29.0078 24.842 28.9948 24.7549 28.9827 24.6763ZM9.89238 17.7917L9.89236 17.792C9.86737 18.0286 9.84238 18.2651 9.81406 18.5009L9.84619 18.5037V18.7133C9.85737 19.4913 10.2443 19.983 10.8882 20.0402C11.4903 20.0947 12.0113 19.7036 12.1244 18.9856C12.252 18.1397 12.3308 17.2872 12.3605 16.4322C12.3898 15.7366 11.9303 15.2226 11.3296 15.1597C10.7835 15.1039 10.2261 15.5117 10.106 16.1641C10.0076 16.7008 9.94999 17.2463 9.89238 17.7917ZM40.0218 23.7851C40.5302 23.7628 40.9102 24.01 41.0722 24.5492C41.1047 24.6566 41.1375 24.764 41.1703 24.8713L41.1714 24.8749C41.3345 25.4088 41.4979 25.9434 41.6198 26.4866C41.7594 27.0928 41.4521 27.5035 40.9004 27.7437C40.3109 28.0063 39.769 27.8373 39.5371 27.3009C39.2106 26.5376 38.9802 25.7367 38.8512 24.9166C38.7479 24.267 39.3038 23.7935 40.0218 23.7851ZM232.14 10.12H228.148L228.16 10.2611L228.167 10.3396L228.167 10.3455L228.168 10.3524C228.184 10.5334 228.197 10.6844 228.208 10.8282L229.7 10.8952V15.1556H230.651V10.8505H232.187C232.169 10.5614 232.155 10.3491 232.14 10.12ZM44.5879 20.1548C45.4846 20.1548 46.0001 20.9929 45.8143 22.1467C45.69 22.9135 45.2556 23.3186 44.5795 23.2893C43.8811 23.2572 43.5305 22.8591 43.4942 22.0489C43.4753 21.7493 43.4753 21.4489 43.4942 21.1493C43.5458 20.497 43.9314 20.159 44.5879 20.1548ZM52.8363 21.6634C52.7791 22.69 53.1492 23.2362 53.9328 23.2823C54.0953 23.2937 54.2583 23.2719 54.412 23.2182C54.5657 23.1645 54.7069 23.08 54.8269 22.97C54.9469 22.8599 55.0432 22.7266 55.11 22.578C55.1767 22.4295 55.2125 22.269 55.2151 22.1062C55.2514 21.2625 54.7095 20.518 54.0111 20.4705C53.3615 20.4272 52.8768 20.9189 52.8363 21.6634Z" fill="url(#paint0_linear_636_5762)"/>
<defs>
<linearGradient id="paint0_linear_636_5762" x1="176.695" y1="22" x2="1.28282e-06" y2="22" gradientUnits="userSpaceOnUse">
<stop stop-color="#411CB1"/>
<stop offset="0.332799" stop-color="#952FE7"/>
<stop offset="0.990444" stop-color="#9C31EB"/>
</linearGradient>
</defs>
</svg>
