<svg width="147" height="40" viewBox="0 0 147 40" fill="none" xmlns="http://www.w3.org/2000/svg">
<path d="M144.944 10.3774C145.272 10.3797 145.594 10.4642 145.88 10.6231C146.181 10.7842 146.428 11.0289 146.592 11.3276C146.758 11.619 146.846 11.9484 146.847 12.2837C146.846 12.6159 146.76 12.9422 146.595 13.2309C146.433 13.5287 146.188 13.7737 145.891 13.9368C145.602 14.1008 145.275 14.187 144.943 14.187C144.611 14.187 144.284 14.1008 143.995 13.9368C143.697 13.7734 143.452 13.5285 143.289 13.2309C143.123 12.9413 143.035 12.6132 143.035 12.2793C143.035 11.9453 143.123 11.6172 143.289 11.3276C143.453 11.0284 143.701 10.7836 144.002 10.6231C144.29 10.4631 144.614 10.3786 144.944 10.3774ZM144.944 10.6931C144.671 10.6954 144.404 10.766 144.166 10.8987C143.915 11.0331 143.708 11.2375 143.57 11.4869C143.431 11.7281 143.358 12.0016 143.358 12.28C143.358 12.5584 143.431 12.8319 143.57 13.0731C143.709 13.3221 143.915 13.5262 144.166 13.6613C144.406 13.7999 144.679 13.8728 144.956 13.8728C145.234 13.8728 145.506 13.7999 145.746 13.6613C145.998 13.5271 146.205 13.3227 146.342 13.0731C146.479 12.8325 146.551 12.5605 146.552 12.2837C146.551 12.0042 146.478 11.7297 146.339 11.4869C146.201 11.2375 145.995 11.0331 145.743 10.8987C145.499 10.763 145.223 10.6922 144.944 10.6931ZM144.108 13.3411V11.2859H144.811C144.987 11.2777 145.164 11.2973 145.334 11.344C145.44 11.3791 145.53 11.4489 145.591 11.542C145.653 11.6291 145.687 11.7331 145.688 11.8399C145.689 11.9126 145.675 11.9848 145.648 12.0521C145.62 12.1193 145.579 12.1804 145.527 12.2316C145.414 12.346 145.262 12.4131 145.101 12.4192C145.166 12.4436 145.225 12.4805 145.276 12.528C145.39 12.6519 145.49 12.7883 145.574 12.9345L145.824 13.3352H145.419L145.237 13.012C145.152 12.8336 145.034 12.6721 144.891 12.5354C144.814 12.4828 144.72 12.4576 144.626 12.4639H144.433V13.3411H144.108ZM144.439 12.1869H144.839C144.976 12.2005 145.114 12.1708 145.233 12.102C145.266 12.0747 145.293 12.0399 145.311 12.0003C145.33 11.9608 145.338 11.9176 145.337 11.8742C145.338 11.816 145.32 11.7591 145.286 11.7118C145.251 11.6628 145.203 11.6254 145.146 11.6046C145.038 11.5746 144.926 11.5625 144.814 11.5689H144.439V12.1869Z" fill="#58595B"/>
<path d="M23.3517 11.4379C26.5102 11.4379 29.0707 8.8774 29.0707 5.71893C29.0707 2.56045 26.5102 0 23.3517 0C20.1933 0 17.6328 2.56045 17.6328 5.71893C17.6328 8.8774 20.1933 11.4379 23.3517 11.4379Z" fill="#F16522"/>
<path d="M31.4494 36.5982C34.6079 36.5982 37.1683 34.0377 37.1683 30.8792C37.1683 27.7208 34.6079 25.1603 31.4494 25.1603C28.2909 25.1603 25.7305 27.7208 25.7305 30.8792C25.7305 34.0377 28.2909 36.5982 31.4494 36.5982Z" fill="#F16522"/>
<path d="M5.71893 31.2618C8.8774 31.2618 11.4379 28.7014 11.4379 25.5429C11.4379 22.3844 8.8774 19.824 5.71893 19.824C2.56045 19.824 0 22.3844 0 25.5429C0 28.7014 2.56045 31.2618 5.71893 31.2618Z" fill="#F16522"/>
<path d="M6.47902 17.727C8.53203 17.727 10.1963 16.0627 10.1963 14.0097C10.1963 11.9567 8.53203 10.2924 6.47902 10.2924C4.42601 10.2924 2.76172 11.9567 2.76172 14.0097C2.76172 16.0627 4.42601 17.727 6.47902 17.727Z" fill="#F6921E"/>
<path d="M33.0728 16.2036C35.1258 16.2036 36.7901 14.5393 36.7901 12.4863C36.7901 10.4333 35.1258 8.76903 33.0728 8.76903C31.0198 8.76903 29.3555 10.4333 29.3555 12.4863C29.3555 14.5393 31.0198 16.2036 33.0728 16.2036Z" fill="#F6921E"/>
<path d="M20.8736 39.4574C22.9266 39.4574 24.5909 37.7932 24.5909 35.7401C24.5909 33.6871 22.9266 32.0228 20.8736 32.0228C18.8205 32.0228 17.1562 33.6871 17.1562 35.7401C17.1562 37.7932 18.8205 39.4574 20.8736 39.4574Z" fill="#F6921E"/>
<path d="M12.1048 36.217C13.5261 36.217 14.6783 35.0648 14.6783 33.6435C14.6783 32.2222 13.5261 31.07 12.1048 31.07C10.6835 31.07 9.53125 32.2222 9.53125 33.6435C9.53125 35.0648 10.6835 36.217 12.1048 36.217Z" fill="#FFC10E"/>
<path d="M35.5501 23.4462C36.9714 23.4462 38.1236 22.294 38.1236 20.8727C38.1236 19.4514 36.9714 18.2992 35.5501 18.2992C34.1288 18.2992 32.9766 19.4514 32.9766 20.8727C32.9766 22.294 34.1288 23.4462 35.5501 23.4462Z" fill="#FFC10E"/>
<path d="M12.6751 10.1035C14.0964 10.1035 15.2486 8.9513 15.2486 7.52998C15.2486 6.10867 14.0964 4.95647 12.6751 4.95647C11.2538 4.95647 10.1016 6.10867 10.1016 7.52998C10.1016 8.9513 11.2538 10.1035 12.6751 10.1035Z" fill="#FFC10E"/>
<path d="M55.918 40V11.0896H59.0083V14.7429C59.741 13.3409 60.7091 12.2647 61.9124 11.5141C63.118 10.7629 64.5132 10.3723 65.9335 10.3881C68.6709 10.3881 70.8696 11.3443 72.5297 13.2565C74.1897 15.1688 75.0193 17.7041 75.0183 20.8624C75.0183 24.0773 74.2061 26.6305 72.5818 28.5219C70.9575 30.4133 68.7841 31.36 66.0616 31.362C64.4978 31.362 63.1356 30.9971 61.975 30.2674C60.8143 29.5376 59.8671 28.4504 59.1334 27.0058V40H55.918ZM59.0455 20.8565C59.0455 23.0408 59.6333 24.7902 60.8088 26.1048C61.9844 27.4193 63.5417 28.0796 65.4808 28.0855C67.3732 28.0855 68.8625 27.4834 69.9487 26.279C71.0349 25.0747 71.5775 23.4032 71.5765 21.2645C71.5765 18.8707 71.0339 16.9942 69.9487 15.635C68.8635 14.2757 67.3528 13.5956 65.4167 13.5946C63.439 13.5946 61.8831 14.24 60.7493 15.5307C59.6154 16.8214 59.049 18.5987 59.05 20.8624L59.0455 20.8565Z" fill="#58595B"/>
<path d="M95.9673 11.0892V30.5291H92.8145V27.0024C92.054 28.4183 91.0824 29.4985 89.8999 30.2432C88.7121 30.9888 87.3348 31.3771 85.9324 31.3616C83.208 31.3616 81.0127 30.402 79.3467 28.4828C77.6807 26.5636 76.8477 24.0233 76.8477 20.862C76.8477 17.661 77.6568 15.1148 79.2752 13.2234C80.8936 11.332 83.0576 10.3888 85.7671 10.3937C87.3557 10.3937 88.7348 10.7586 89.9044 11.4884C91.074 12.2181 92.0172 13.3048 92.7341 14.7485V11.0892H95.9673ZM92.8145 20.9901C92.8145 18.7949 92.2302 17.0276 91.0616 15.6882C89.893 14.3488 88.3684 13.6796 86.4879 13.6806C84.5389 13.6806 83.0178 14.2967 81.9247 15.5288C80.8315 16.761 80.2855 18.4821 80.2865 20.6923C80.2865 23.0434 80.836 24.8564 81.9351 26.1312C83.0342 27.406 84.5935 28.0435 86.613 28.0435C88.5491 28.0435 90.0667 27.4239 91.1658 26.1848C92.2649 24.9457 92.8145 23.2142 92.8145 20.9901Z" fill="#58595B"/>
<path d="M118.216 11.0893V30.1896C118.216 32.2995 118.078 33.8012 117.802 34.6948C117.526 35.5846 117.059 36.4034 116.434 37.094C115.544 38.0752 114.43 38.8264 113.187 39.2833C111.908 39.7609 110.439 39.9997 108.78 39.9997C105.901 39.9997 103.657 39.327 102.049 37.9817C100.44 36.6363 99.6001 34.731 99.5286 32.2657H103.179V32.5204C103.179 33.9799 103.67 35.1063 104.652 35.8996C105.634 36.6929 107.024 37.0901 108.822 37.0911C110.122 37.0911 111.232 36.8751 112.152 36.4432C113.039 36.0403 113.775 35.3673 114.256 34.5205C114.559 34.0045 114.769 33.4395 114.877 32.851C115.002 32.2136 115.065 31.3001 115.064 30.1107V26.8342C114.331 28.2242 113.37 29.2901 112.182 30.0318C110.981 30.7782 109.592 31.1653 108.179 31.1472C105.453 31.1472 103.258 30.1981 101.593 28.2997C99.9278 26.4013 99.0947 23.8799 99.0938 20.7355C99.0938 17.5583 99.9024 15.0409 101.52 13.1833C103.137 11.3256 105.301 10.3943 108.012 10.3893C109.588 10.3893 110.971 10.7542 112.161 11.484C113.35 12.2137 114.291 13.2865 114.982 14.7024V11.0893H118.216ZM115.064 20.8621C115.064 18.6778 114.483 16.9214 113.323 15.593C112.162 14.2645 110.634 13.5988 108.738 13.5958C106.788 13.5958 105.267 14.2119 104.175 15.444C103.083 16.6762 102.537 18.3973 102.537 20.6074C102.537 22.9595 103.087 24.7725 104.186 26.0464C105.285 27.3202 106.845 27.9577 108.865 27.9587C110.801 27.9587 112.319 27.3322 113.418 26.0792C114.517 24.8261 115.066 23.0871 115.064 20.8621Z" fill="#58595B"/>
<path d="M140.552 11.0892V30.5291H137.4V27.0024C136.64 28.4193 135.667 29.4995 134.482 30.2432C133.294 30.9888 131.917 31.3771 130.514 31.3616C127.789 31.3616 125.594 30.402 123.929 28.4828C122.264 26.5636 121.431 24.0233 121.43 20.862C121.43 17.661 122.238 15.1148 123.856 13.2234C125.473 11.332 127.637 10.3888 130.348 10.3937C131.936 10.3937 133.316 10.7586 134.486 11.4884C135.657 12.2181 136.6 13.3048 137.316 14.7485V11.0892H140.552ZM137.4 20.9901C137.4 18.7949 136.816 17.0276 135.648 15.6882C134.48 14.3488 132.956 13.6796 131.074 13.6806C129.124 13.6806 127.603 14.2967 126.511 15.5288C125.419 16.761 124.873 18.4821 124.873 20.6923C124.873 23.0434 125.423 24.8564 126.522 26.1312C127.621 27.406 129.182 28.0435 131.205 28.0435C133.142 28.0435 134.659 27.4239 135.758 26.1848C136.857 24.9457 137.404 23.2142 137.4 20.9901Z" fill="#58595B"/>
</svg>
