<svg width="107" height="36" viewBox="0 0 107 36" fill="none" xmlns="http://www.w3.org/2000/svg">
<path d="M106.118 36H0.0234375V30.7009C0.386762 30.6773 0.759169 30.6355 1.13703 30.6355C35.7606 30.6355 70.3848 30.6282 105.01 30.6137C105.871 30.6137 106.18 30.8317 106.136 31.7218C106.067 33.1261 106.118 34.5412 106.118 36Z" fill="#DC1983"/>
<path d="M29.6873 13.5847C29.7962 12.2804 29.8689 11.0796 28.7008 10.3729C27.4183 9.60267 26.014 9.61175 24.7043 10.293C24.2301 10.5437 23.9685 11.2013 23.5961 11.65C23.429 11.8571 23.2328 12.195 23.0511 12.2041C21.4253 12.2477 19.7976 12.2295 18.1826 12.2295C17.9301 10.0877 19.2253 7.71883 21.398 6.72514C24.8986 5.12469 28.4955 5.04294 31.9998 6.72514C34.2324 7.78241 35.1408 9.7916 35.3151 12.1714C35.3351 12.442 35.3388 12.7164 35.3388 12.987C35.3388 16.92 35.3388 20.8512 35.3388 24.8659H30.4739C30.3503 24.3645 30.2141 23.8232 30.0578 23.1892C28.2231 24.5299 26.2647 25.3055 24.0884 25.2946C23.0054 25.299 21.9281 25.1391 20.893 24.8205C18.6222 24.0811 17.3142 22.0956 17.2597 19.5995C17.2052 17.2107 18.3061 15.3232 20.6023 14.513C22.1138 13.9825 23.7651 13.7754 25.371 13.6047C26.7643 13.4703 28.194 13.5847 29.6873 13.5847ZM29.6364 17.4832C27.8888 17.4832 26.1394 17.3796 24.41 17.5195C23.2092 17.6158 22.6624 18.4278 22.775 19.4106C22.8786 20.2608 23.6633 20.8167 24.7933 20.853C26.1308 20.8815 27.449 20.5307 28.5955 19.8411C29.8544 19.1254 29.918 18.9728 29.6364 17.4832Z" fill="#29054B"/>
<path d="M69.1783 18.406H74.2067C75.1677 20.7803 77.6455 21.8213 80.0308 20.7858C80.4522 20.6041 80.95 20.0392 80.9663 19.634C80.9827 19.2289 80.5158 18.6313 80.1089 18.4423C79.2696 18.0536 78.3322 17.8719 77.4294 17.6212C76.0033 17.2252 74.5482 16.9164 73.1494 16.4386C71.3219 15.8137 69.9957 14.6438 69.7178 12.6019C69.4053 10.2966 70.1029 8.33284 72.1157 7.13023C73.6814 6.2405 75.4246 5.70838 77.2202 5.57207C79.0158 5.43576 80.8194 5.69863 82.5014 6.34182C84.972 7.301 86.269 9.15395 86.5288 11.917C84.8412 11.917 83.1917 11.9334 81.5458 11.8916C81.3642 11.8916 81.1607 11.5628 81.0408 11.3466C80.1706 9.78977 77.0969 9.26113 75.7726 10.4528C75.0459 11.1105 75.1695 12.0206 76.1668 12.353C77.4802 12.789 78.859 13.0215 80.1943 13.3976C81.3629 13.6945 82.5114 14.0652 83.6331 14.5075C87.9676 16.3478 87.1483 21.5924 84.7231 23.4217C84.1352 23.8961 83.4785 24.2784 82.7757 24.5553C79.4131 25.7379 76.0415 25.667 72.7643 24.2682C70.3609 23.2528 69.0693 21.0347 69.1783 18.406Z" fill="#29054B"/>
<path d="M61.6159 20.2971H66.0376V24.8877H51.4102V20.3098H55.9517V4.50522H52.2949V0H61.6159V20.2971Z" fill="#29054B"/>
<path d="M91.4023 5.96034C92.8193 5.96034 94.1509 5.98396 95.4788 5.94763C96.0075 5.93309 96.2455 6.09296 96.3072 6.62886C96.3635 7.12843 96.5143 7.61529 96.6705 8.32195C99.37 5.47349 102.742 5.94399 106.092 5.99486V11.1177C104.627 11.1177 103.156 11.0723 101.69 11.1305C100.257 11.1868 98.865 11.4538 97.6933 12.4021C97.4398 12.5901 97.2365 12.8375 97.1012 13.1227C96.9659 13.4078 96.9029 13.7218 96.9176 14.037C96.9521 17.307 96.934 20.5769 96.934 23.8468V24.8877H91.4023V5.96034Z" fill="#29054B"/>
<path d="M14.6965 11.1232C13.1542 11.1232 11.6736 11.0832 10.1985 11.1359C8.85603 11.1831 7.55351 11.4484 6.43629 12.2822C5.82409 12.7382 5.49347 13.2686 5.508 14.0988C5.55886 17.3687 5.52798 20.6386 5.52616 23.9086V24.8877H0V5.96216C1.4533 5.96216 2.89025 5.94399 4.33083 5.98396C4.50159 5.98396 4.75228 6.27098 4.81405 6.47081C4.97936 7.0158 5.06474 7.58077 5.21189 8.28743C6.57072 7.10118 7.97316 6.17834 9.68078 6.06752C11.3285 5.96034 12.987 6.04391 14.6965 6.04391V11.1232Z" fill="#29054B"/>
<path d="M40.7773 6.00757H46.2526V24.8877H40.7773V6.00757Z" fill="#29054B"/>
</svg>
