<svg width="118" height="38" viewBox="0 0 118 38" fill="none" xmlns="http://www.w3.org/2000/svg">
<path d="M117.814 28.6905H109.461V37.0434H117.814V28.6905Z" fill="#151515"/>
<path d="M12.7836 37.116C5.37492 37.116 0.435805 32.9759 0 27.6736H8.35292C8.57082 29.6347 10.314 30.8695 12.6383 30.8695C14.8174 30.8695 15.9795 29.8526 15.9795 28.6178C15.9795 24.1872 0.87161 27.3831 0.87161 17.2143C0.87161 12.4931 4.86648 8.64346 12.1299 8.64346C19.248 8.64346 23.2429 12.6383 23.824 18.0859H15.9795C15.7616 16.1974 14.3089 14.9626 11.912 14.9626C9.95087 14.9626 8.86136 15.7616 8.86136 17.069C8.86136 21.4997 23.824 18.3764 23.9692 28.6905C23.9692 33.4843 19.6838 37.116 12.7836 37.116Z" fill="#151515"/>
<path d="M64.1349 0H55.6367V36.7528H64.1349V0Z" fill="#151515"/>
<path d="M98.7127 23.1703C98.5674 26.2209 96.0252 28.6178 92.9019 28.6178C89.706 28.6178 87.0912 26.003 87.0912 22.8071C87.0912 19.6112 89.706 16.9964 92.9019 16.9964C95.8799 16.9964 98.3495 19.248 98.64 22.0808C98.64 22.2987 98.7127 22.5166 98.7127 22.7345C98.7127 22.9524 98.7127 23.0976 98.7127 23.1703ZM98.7127 0V9.87824C96.9694 9.07926 95.0083 8.64346 92.9746 8.64346C85.1301 8.64346 78.7383 15.0353 78.7383 22.8797C78.7383 30.7242 85.1301 37.116 92.9746 37.116C100.746 37.116 106.993 30.9421 107.211 23.2429C107.211 23.0976 107.211 23.025 107.211 22.8797V0H98.7127Z" fill="#151515"/>
<path d="M76.4083 11.8393H67.9102V36.7528H76.4083V11.8393Z" fill="#151515"/>
<path d="M76.2631 0H67.9102V8.93399H76.2631V0Z" fill="#151515"/>
<path d="M39.0761 28.6905C35.8802 28.6905 33.2654 26.0756 33.2654 22.8797C33.2654 19.6838 35.8802 17.069 39.0761 17.069C42.272 17.069 44.8869 19.6838 44.8869 22.8797C44.8869 26.0756 42.272 28.6905 39.0761 28.6905ZM39.0761 8.64346C31.2316 8.64346 24.8398 15.0353 24.8398 22.8797C24.8398 30.7242 31.2316 37.116 39.0761 37.116C46.9206 37.116 53.3124 30.7242 53.3124 22.8797C53.3124 14.9626 46.9932 8.64346 39.0761 8.64346Z" fill="#151515"/>
</svg>
