<svg width="139" height="36" viewBox="0 0 139 36" fill="none" xmlns="http://www.w3.org/2000/svg">
<path d="M18.4726 36C17.0564 36 15.6094 35.9854 13.9166 35.9561L13.842 35.9546L13.7645 35.9517C9.87566 35.7952 6.53694 34.4784 4.11412 32.1434C2.85882 30.9334 1.86833 29.5508 1.17045 28.0366C0.393559 26.3497 0 24.5472 0 22.6803C0 19.7176 1.02999 16.7725 2.90125 14.3892C4.47257 12.3862 6.5823 10.8456 8.92319 9.97367C9.04024 9.52743 9.18215 9.08559 9.34456 8.65252C9.93566 7.08705 10.8018 5.67081 11.921 4.44038C13.1178 3.12363 14.5545 2.07608 16.1902 1.32699C17.8625 0.560351 19.6987 0.131675 21.6445 0.049744C21.6811 0.0482809 21.7908 0.0453548 21.7908 0.0453548C23.2656 0.0146306 24.6687 0 26.082 0C27.4924 0 28.9393 0.0146306 30.6379 0.0438917L30.7126 0.0453548L30.7857 0.0482809C34.6789 0.204828 38.0176 1.52158 40.4404 3.85662C41.6957 5.06803 42.6862 6.44916 43.3841 7.96342C44.161 9.65033 44.5545 11.4528 44.5545 13.3197C44.5545 16.2824 43.5246 19.2275 41.6533 21.6108C40.082 23.6138 37.9722 25.1544 35.6314 26.0263C35.5143 26.4726 35.3724 26.9144 35.21 27.3475C34.6189 28.9129 33.7528 30.3307 32.6335 31.5596C31.4368 32.8764 30 33.9239 28.3643 34.673C26.6906 35.4397 24.8545 35.8683 22.9086 35.9503C22.8603 35.9517 22.7638 35.9546 22.7638 35.9546C21.2919 35.9854 19.8874 36 18.4726 36Z" fill="white"/>
<path d="M55.2251 16.2312C55.2251 15.2743 56.1454 14.575 57.6918 14.575C59.3846 14.575 60.8579 15.1265 62.0357 16.5267L64.5755 13.8756C63.25 12.0351 60.7467 10.9671 57.5806 10.9671C53.0891 10.9671 50.8067 13.545 50.8067 16.2326C50.8067 22.5647 60.2683 21.0183 60.2683 24.1843C60.2683 25.2889 59.3846 26.0249 57.6538 26.0249C55.5558 26.0249 53.8615 25.2889 52.4994 23.7791L49.9961 26.651C51.506 28.4184 54.0459 29.6328 57.3963 29.6328C62.182 29.6328 64.7218 27.0929 64.7218 24.1112C64.7233 17.5201 55.2251 19.3241 55.2251 16.2312Z" fill="#17121F"/>
<path d="M73.9609 11.482V6.91721H69.4693V11.482H66.3398V15.4586H69.4327V23.0796C69.4327 27.3869 71.7151 29.6327 75.2864 29.6327C77.4591 29.6327 79.1153 28.8236 80.1087 27.8653L78.0838 24.5149C77.642 25.0299 76.8314 25.3986 76.0224 25.3986C74.6968 25.3986 73.9975 24.5895 73.9975 22.9319V15.4586H82.1833V29.1177H86.6749V11.482H82.1833H73.9609Z" fill="#17121F"/>
<path d="M84.3879 3.82449C82.9526 3.82449 81.7734 5.03883 81.7734 6.47555C81.7734 7.94885 82.9512 9.09004 84.3879 9.09004C85.8612 9.09004 87.039 7.94885 87.039 6.47555C87.039 5.04029 85.8597 3.82449 84.3879 3.82449Z" fill="#17121F"/>
<path d="M98.7255 25.3986C97.4 25.3986 96.7007 24.5895 96.7007 22.9319V15.4586H101.45V11.482H96.6641V6.91721H92.1725V11.482H89.043V15.4586H92.1359V23.0796C92.1359 27.3869 94.4183 29.6327 97.9896 29.6327C100.162 29.6327 101.818 28.8236 102.812 27.8653L100.787 24.5149C100.345 25.0299 99.5341 25.3986 98.7255 25.3986Z" fill="#17121F"/>
<path d="M113.007 15.1997C114.738 15.1997 116.063 15.7527 117.168 16.8193L119.744 13.6167C118.198 11.9971 115.804 10.9671 112.786 10.9671C107.632 10.9671 103.582 15.1646 103.582 20.3189C103.582 25.4367 107.632 29.6328 112.859 29.6328C115.657 29.6328 118.198 28.5282 119.597 26.9817L117.314 23.6679C116.21 24.7725 114.774 25.3987 112.97 25.3987C110.098 25.3987 108.074 23.1163 108.074 20.2809C108.074 17.4455 110.062 15.1997 113.007 15.1997Z" fill="#17121F"/>
<path d="M131.609 10.9671C129.437 10.9671 127.744 11.7776 126.639 13.2129V3.78787H122.148V29.1163H126.639V19.1031C126.639 16.7096 128.002 15.2012 130.247 15.2012C132.42 15.2012 133.819 16.711 133.819 19.1031V29.1163H138.31V18.4389C138.309 13.839 135.696 10.9671 131.609 10.9671Z" fill="#17121F"/>
<path d="M40.9913 9.06518C40.4309 7.84938 39.6307 6.73452 38.6124 5.75281C36.6621 3.87278 33.9174 2.8106 30.6782 2.67893L30.6343 2.67746L30.5904 2.676C28.9123 2.64674 27.48 2.63211 26.0813 2.63211C24.6855 2.63211 23.2985 2.64674 21.8428 2.676H21.8326C21.8062 2.676 21.7784 2.67746 21.7521 2.67893C20.1486 2.74623 18.646 3.0959 17.2854 3.71916C15.9745 4.31902 14.8245 5.15735 13.8677 6.20929C12.9737 7.19246 12.2802 8.3278 11.8062 9.58017C11.5063 10.3732 11.3044 11.191 11.2005 12.0206L10.6797 12.1654C8.45871 12.7843 6.43091 14.1508 4.97078 16.0118C3.46383 17.9357 2.63281 20.303 2.63281 22.679C2.63281 24.164 2.94591 25.5948 3.56185 26.9335C4.12221 28.1493 4.9225 29.2642 5.94079 30.2459C7.89104 32.1259 10.6358 33.1881 13.875 33.3198L13.9189 33.3213L13.9628 33.3227C15.6409 33.352 17.0732 33.3666 18.4719 33.3666C19.8677 33.3666 21.2546 33.352 22.7104 33.3227H22.7206C22.747 33.3227 22.7733 33.3213 22.7996 33.3198C24.4031 33.2525 25.9072 32.9028 27.2693 32.2796C28.5802 31.6797 29.7301 30.8414 30.687 29.7894C31.5809 28.8063 32.2744 27.6709 32.7484 26.4185C33.0484 25.6256 33.2503 24.8077 33.3541 23.9782L33.875 23.8333C36.0959 23.2144 38.1237 21.848 39.5838 19.9869C41.0922 18.0645 41.9233 15.6973 41.9233 13.3213C41.9218 11.8362 41.6087 10.4039 40.9913 9.06518ZM32.8391 20.1245C32.7104 19.2335 31.7082 16.7316 30.0798 15.5831C30.0652 15.5729 30.0725 15.5495 30.0915 15.5495C30.2539 15.551 30.4119 15.551 30.5729 15.548C32.2071 15.548 33.0908 14.4624 33.0908 13.4339C33.0908 12.9613 32.9284 12.4317 32.5451 12.0162C32.1749 11.6168 31.5268 11.333 30.7894 11.3198C28.0769 11.2744 24.9416 11.27 22.2305 11.3198C21.4931 11.333 20.845 11.6168 20.4748 12.0162C20.0915 12.4303 19.9291 12.9613 19.9291 13.4339C19.9291 13.9489 20.1925 14.461 20.5231 14.8121C21.1157 15.4427 22.2934 15.6739 22.9811 15.8085C25.4565 16.2957 26.7265 17.0096 27.8004 18.1479C28.8113 19.1808 29.5838 20.7638 29.5838 22.679V22.6804C29.5838 25.8655 27.2444 29.2847 22.6387 29.4749C22.6387 29.4749 22.6372 29.4749 22.6343 29.4749C19.6131 29.5363 17.0454 29.5275 14.033 29.4749C11.8004 29.3842 9.92027 28.7331 8.61526 27.4763C7.31021 26.2196 6.48504 24.5956 6.48504 22.6804C6.48504 19.4968 8.79082 16.6936 11.717 15.8772C11.8457 16.7682 12.8479 19.27 14.4763 20.4185C14.4909 20.4288 14.4836 20.4522 14.4646 20.4522C14.3022 20.4507 14.1442 20.4507 13.9832 20.4537C12.349 20.4537 11.4653 21.5392 11.4653 22.5678C11.4653 23.0403 11.6277 23.57 12.011 23.9855C12.3812 24.3849 13.0293 24.6687 13.7667 24.6819C16.4792 24.7273 19.6146 24.7316 22.3256 24.6819C23.063 24.6687 23.7111 24.3849 24.0813 23.9855C24.4646 23.5714 24.627 23.0403 24.627 22.5678C24.627 22.0528 24.3636 21.5407 24.033 21.1896C23.4405 20.559 22.2627 20.3278 21.5751 20.1932C19.0996 19.706 17.8296 18.9921 16.7557 17.8538C15.7448 16.8209 14.9723 15.2379 14.9723 13.3227V13.3213C14.9723 10.1362 17.3117 6.71697 21.9174 6.52677C21.9174 6.52677 21.9189 6.52677 21.9218 6.52677C24.943 6.46532 27.5107 6.4741 30.5231 6.52677C32.7557 6.61748 34.6358 7.26854 35.9408 8.52531C37.2459 9.78354 38.071 11.4061 38.071 13.3213C38.071 16.5049 35.7667 19.3081 32.8391 20.1245Z" fill="#911FFF"/>
</svg>
