<svg width="136" height="30" viewBox="0 0 136 30" fill="none" xmlns="http://www.w3.org/2000/svg">
<path d="M19.5574 1.69199C20.8816 1.69199 21.95 1.28563 22.5736 0.662094H22.9799L24.5598 9.00633L23.9327 9.15345C21.5437 5.55233 19.2282 3.34542 17.0948 3.34542C15.627 3.34542 15.035 4.00749 15.035 5.03739V25.2954C15.035 26.8753 15.8828 28.0173 17.5362 28.6058V29.2644H7.00607V28.6058C8.75759 28.0173 9.5808 26.8753 9.5808 25.2954V5.03739C9.5808 4.00749 8.95726 3.34542 7.52102 3.34542C5.4192 3.34542 3.07567 5.55233 0.721625 9.15345L0 9.00633L1.65343 0.662094H2.05979C2.76039 1.28563 3.71322 1.69199 5.11093 1.69199H19.5574Z" fill="#002D24"/>
<path d="M27.7341 25.4426V6.91149C27.7341 5.11093 26.9635 3.97244 25.4922 3.52756V2.82695C27.9568 2.52947 30.2897 1.55048 32.2285 0L32.8556 0V11.8403C32.8556 12.646 32.817 13.5918 32.782 14.0437L32.8556 14.1172C34.7297 12.2431 38.4814 9.78048 41.2383 9.78048C43.6905 9.78048 45.1337 11.4724 45.1337 14.0086V25.4426C45.1337 26.9138 45.7958 28.0908 46.9728 28.5953V29.2539H37.8334V28.6058C39.2346 27.7966 39.9667 26.9138 39.9667 25.5161V15.8828C39.9667 14.1312 39.3432 13.2345 38.019 13.1994C36.8035 13.1609 34.8943 14.0437 32.8346 15.4064V25.5161C32.8346 26.9173 33.6788 27.8316 34.9679 28.6058V29.2644H25.6743V28.6058C26.2954 28.349 26.8243 27.9106 27.1919 27.348C27.5594 26.7854 27.7484 26.1249 27.7341 25.4531" fill="#002D24"/>
<path d="M61.4219 25.4425H61.3484C59.5128 27.3237 55.9817 29.7758 53.1863 29.7758C50.6886 29.7758 49.3645 28.0873 49.3645 25.5721V16.6184C49.3645 14.7793 48.8846 13.5672 47.3047 13.0523V12.3902C49.714 12.1005 51.9873 11.1172 53.8484 9.55977H54.4018V23.677C54.4018 25.5161 55.0254 26.4339 56.4231 26.4794C57.6351 26.553 59.2535 25.6317 61.3484 24.199V16.8426C61.3484 14.8949 60.907 13.4972 59.2185 13.0558V12.3902C61.6613 12.0605 63.9715 11.0832 65.9093 9.55977H66.4978V23.8627C66.4978 25.9645 67.0478 26.9488 68.5996 27.4288V28.0908C66.3216 28.3296 64.105 28.9763 62.056 30H61.3554V27.723C61.3554 26.8753 61.4289 25.9189 61.4289 25.4425" fill="#002D24"/>
<path d="M71.8397 25.2954V16.4643C71.8397 14.443 71.2512 13.4867 69.6328 13.0453V12.3902C72.0808 12.0755 74.3959 11.0967 76.3271 9.55977H76.9892V11.6616C76.9982 12.4233 76.9608 13.1849 76.8771 13.9421L76.9892 13.9771C78.8248 12.103 82.503 9.77345 85.3334 9.77345C87.8696 9.77345 89.2323 11.4619 89.2323 14.0016V25.2954C89.2323 26.9138 89.9329 28.0978 91.1415 28.6023V29.2643H82.0336V28.6023C83.3962 27.7966 84.1669 26.9138 84.1669 25.2954V15.8827C84.1669 14.1312 83.5784 13.2345 82.1807 13.1994C80.8951 13.1609 79.1295 13.9 76.9997 15.2592V25.2954C76.9997 26.9138 77.8439 27.7966 79.1295 28.6023V29.2643H69.6328V28.6023C70.3007 28.3517 70.873 27.8977 71.269 27.3044C71.665 26.711 71.8646 26.0083 71.8397 25.2954Z" fill="#002D24"/>
<path d="M100.585 29.8178C96.1357 29.8178 91.6133 26.6196 91.6133 20.3596C91.6133 14.5516 95.6593 9.77347 101.138 9.77347C105.548 9.77347 108.894 12.8982 108.894 17.5292V18.5311H96.3564C96.4685 23.8977 99.2989 26.3989 102.827 26.3989C103.879 26.4005 104.914 26.1389 105.84 25.6378C106.765 25.1367 107.55 24.412 108.123 23.5299L108.712 23.8802C107.608 27.667 104.158 29.8354 100.585 29.8354M96.43 16.8741H103.636C103.636 13.6758 102.35 11.6196 100.255 11.6196C98.4162 11.6196 96.7522 13.238 96.43 16.8741Z" fill="#002D24"/>
<path d="M117.644 29.7758C115.028 29.7399 112.431 29.3185 109.938 28.5252L112.365 22.9204H112.796C113.497 26.3778 116.324 27.9227 119.08 27.9227C121.361 27.9227 122.724 26.8718 122.724 25.4215C122.724 23.7646 120.92 22.8853 118.678 22.1497C115.332 21.0077 111.286 19.7956 111.286 15.9003C111.286 12.3972 114.523 9.75945 119.448 9.75945C121.413 9.76013 123.369 10.0324 125.26 10.5686L123.526 15.5535H123.014C122.783 14.4016 122.157 13.3667 121.243 12.6278C120.33 11.889 119.187 11.4927 118.012 11.5075C116.138 11.5075 114.961 12.4638 114.961 13.7494C114.961 15.7356 117.718 16.5063 120.475 17.5012C123.452 18.531 126.395 19.9533 126.395 23.3477C126.395 27.131 122.755 29.7793 117.637 29.7793" fill="#002D24"/>
<path d="M128.133 26.2517C128.13 25.7932 128.22 25.3387 128.396 24.9152C128.571 24.4916 128.83 24.1075 129.156 23.7854C129.483 23.4632 129.87 23.2096 130.296 23.0394C130.722 22.8692 131.177 22.7858 131.636 22.7942C132.085 22.7942 132.529 22.8827 132.944 23.0545C133.359 23.2263 133.736 23.4782 134.053 23.7956C134.371 24.1131 134.623 24.49 134.795 24.9048C134.966 25.3196 135.055 25.7642 135.055 26.2132C135.055 26.6622 134.966 27.1068 134.795 27.5216C134.623 27.9364 134.371 28.3133 134.053 28.6308C133.736 28.9483 133.359 29.2001 132.944 29.3719C132.529 29.5437 132.085 29.6322 131.636 29.6322C131.183 29.6429 130.733 29.5636 130.311 29.3991C129.889 29.2345 129.504 28.9878 129.179 28.6734C128.853 28.359 128.593 27.9831 128.413 27.5674C128.234 27.1517 128.138 26.7045 128.133 26.2517Z" fill="#46E696"/>
</svg>
