<svg width="162" height="30" viewBox="0 0 162 30" fill="none" xmlns="http://www.w3.org/2000/svg">
<path d="M141.977 7.98607C143.167 7.98607 144.357 7.98607 145.548 7.98607C146.278 7.98607 146.5 8.22851 146.498 8.94415C146.497 9.65978 146.279 9.89054 145.534 9.89346C143.81 9.89346 142.085 9.90953 140.36 9.89346C139.814 9.89346 139.558 10.0395 139.586 10.6354C139.625 11.481 139.625 12.3296 139.586 13.1737C139.557 13.7944 139.814 13.9668 140.401 13.9536C141.76 13.9215 143.122 13.9405 144.483 13.9448C145.318 13.9448 145.476 14.1055 145.476 14.9088C145.476 15.6755 145.298 15.8493 144.454 15.8537C143.092 15.8537 141.731 15.8771 140.364 15.8449C139.757 15.8303 139.546 16.045 139.574 16.6467C139.616 17.5639 139.608 18.4855 139.574 19.4027C139.555 19.9445 139.773 20.1329 140.304 20.1329C142.004 20.1169 143.706 20.1227 145.406 20.1329C146.294 20.1329 146.535 20.4119 146.469 21.2736C146.434 21.7351 146.209 22.0038 145.739 22.0038C143.236 22.0106 140.733 22.0106 138.232 22.0038C137.667 22.0038 137.413 21.6956 137.414 21.1275C137.421 17.0644 137.421 13.0023 137.414 8.94123C137.414 8.26356 137.73 7.98753 138.394 7.99775C139.596 7.99775 140.792 7.98607 141.977 7.98607Z" fill="#083454"/>
<path d="M67.0868 12.9824C67.0868 11.6505 67.0868 10.3199 67.0868 8.98945C67.0868 8.12192 67.2767 7.95396 68.188 7.96711C69.0278 7.96711 69.1724 8.12338 69.1739 9.02012C69.1739 11.3905 69.1651 13.7623 69.1739 16.1327C69.1826 17.8473 69.9552 19.0858 71.3062 19.6086C73.5947 20.4966 75.9549 18.9003 75.9797 16.4262C75.9987 13.9828 75.9797 11.5395 75.9797 9.09606C75.9797 8.1964 76.2119 7.97441 77.0955 7.99048C77.8389 8.00362 78.0609 8.23292 78.0667 9.01281C78.0843 11.0692 78.0667 13.1255 78.1237 15.179C78.15 16.2013 78.1938 17.2032 77.9061 18.1949C77.1452 20.8135 74.5703 22.4303 71.7618 22.0608C69.1607 21.7132 67.1073 19.3939 67.0883 16.7578C67.0751 15.4988 67.0868 14.2399 67.0868 12.9824Z" fill="#083454"/>
<path d="M84.1557 14.986C84.1557 12.9779 84.1557 10.9697 84.1557 8.96008C84.1557 8.16558 84.3426 7.98886 85.1547 7.9874C87.5138 7.9874 89.8725 7.9874 92.2307 7.9874C92.9726 7.9874 93.2136 8.22546 93.2224 8.91626C93.2326 9.64651 92.9873 9.89333 92.2001 9.89479C90.4986 9.89479 88.7957 9.91086 87.0884 9.89479C86.5129 9.89479 86.2369 10.0598 86.2661 10.6835C86.3055 11.5291 86.2909 12.3776 86.2661 13.2247C86.253 13.7534 86.4691 13.9549 86.9963 13.9549C88.4057 13.9345 89.8165 13.9433 91.2317 13.9549C91.9795 13.9549 92.2044 14.1813 92.2074 14.8896C92.2103 15.598 91.962 15.8565 91.2522 15.8609C89.8414 15.8726 88.4305 15.8872 87.0168 15.8609C86.4326 15.8477 86.2413 16.0683 86.2573 16.6247C86.2851 17.5433 86.2822 18.4649 86.2573 19.3836C86.2427 19.9342 86.4326 20.1591 87.0197 20.1489C88.7212 20.1182 90.4226 20.1328 92.1314 20.1401C92.958 20.1401 93.1786 20.3504 93.183 21.0836C93.1873 21.8167 92.9653 22.0124 92.1372 22.0124C89.8277 22.0124 87.5177 22.0124 85.2072 22.0124C84.309 22.0124 84.1382 21.843 84.1367 20.9609C84.1484 18.9629 84.1547 16.9713 84.1557 14.986Z" fill="#083454"/>
<path d="M126.857 18.3699C127.319 16.2493 126.552 14.5376 125.168 12.9661C124.262 11.9336 123.526 10.7564 122.695 9.65812C122.306 9.14549 122.257 8.72926 122.841 8.32178C123.511 7.85881 123.863 7.85589 124.323 8.45615C125.403 9.88304 126.478 11.3143 127.526 12.7631C127.834 13.1867 127.992 13.1633 128.29 12.7471C129.302 11.3318 130.349 9.94292 131.388 8.5467C131.88 7.88364 132.264 7.82668 132.896 8.29987C133.513 8.75701 133.539 9.03012 133.025 9.73553C131.797 11.4326 130.568 13.1443 129.321 14.8312C129.119 15.1013 129.016 15.433 129.029 15.7703C129.041 17.4615 129.038 19.1527 129.029 20.844C129.029 21.748 128.765 22.0387 127.973 22.0489C127.13 22.0591 126.86 21.7685 126.854 20.8352C126.853 20.0086 126.857 19.1922 126.857 18.3699Z" fill="#083454"/>
<path d="M42.3856 15.8333C42.3856 14.1406 42.3695 12.4478 42.3943 10.7551C42.4031 10.1228 42.2205 9.82336 41.518 9.86133C40.5979 9.91099 39.6734 9.86133 38.7504 9.8774C38.1209 9.88762 37.8975 9.5853 37.8946 8.98212C37.8916 8.37894 38.0494 7.98607 38.7343 7.98607H48.2085C48.8453 7.98607 49.041 8.36579 49.041 8.92954C49.041 9.49329 48.8526 9.87448 48.2114 9.87301C47.36 9.87301 46.51 9.87301 45.66 9.87301C44.5602 9.87301 44.5602 9.87302 44.5602 10.9377C44.5602 14.2481 44.5602 17.5586 44.5602 20.869C44.5602 21.7657 44.347 21.979 43.5218 21.9863C42.5725 21.995 42.387 21.8096 42.387 20.8325C42.3841 19.1685 42.3836 17.5021 42.3856 15.8333Z" fill="#083454"/>
<path d="M98.1853 15.0431C98.1853 13.0831 98.1853 11.1246 98.1853 9.16613C98.1853 8.1175 98.9476 7.63408 99.9057 8.062C100.372 8.26939 100.375 8.67979 100.375 9.10479C100.369 12.4152 100.369 15.7286 100.375 19.0448C100.375 20.1212 100.375 20.1212 101.474 20.1212C102.762 20.1212 104.051 20.1431 105.337 20.1125C105.981 20.0979 106.292 20.3242 106.281 20.9888C106.268 21.773 106.079 21.9965 105.309 21.9979C103.265 22.0038 101.224 22.0038 99.1871 21.9979C98.4131 21.9979 98.1926 21.776 98.1896 20.9946C98.1794 19.0025 98.1853 17.0206 98.1853 15.0431Z" fill="#083454"/>
<path d="M30.1546 14.2412C30.14 12.6463 30.1546 11.0515 30.1634 9.45518C30.1634 8.66506 29.8508 8.04143 29.1571 7.65294C24.5965 5.09709 20.032 2.54611 15.4636 0H14.2952C13.9228 0.0926052 13.5622 0.227353 13.2203 0.401633C9.16308 2.73841 5.06934 5.01092 1.00189 7.32871C0.489262 7.62081 0.109536 7.97279 0 8.5672V9.29745C0.184021 9.89186 0.63239 10.2234 1.16839 10.5155C2.00963 10.9785 2.83918 11.4663 3.72862 11.9993C2.76324 12.6274 1.84459 13.1677 0.925947 13.6891C0.449829 13.9564 0.115378 14.2806 0 14.8108V21.0543C0.357819 21.9759 1.03256 22.5601 1.89863 23.0333C5.89598 25.2153 9.87142 27.4367 13.8469 29.6595C14.5114 30.0305 15.1379 30.1488 15.836 29.7574C20.1649 27.3232 24.4977 24.8959 28.8344 22.4754C30.1488 21.7452 30.1576 20.9901 28.8957 20.1824C27.8514 19.5135 26.8189 18.8227 25.7016 18.091C26.87 17.4309 27.9245 16.8277 28.9862 16.2494C29.7939 15.8097 30.1619 15.154 30.1546 14.2412ZM15.8799 2.29004L27.3549 8.86222C26.1003 9.60853 24.9305 10.3081 23.7562 11.0004C23.5839 11.1026 23.4306 10.9901 23.283 10.9025C20.9287 9.50435 18.5715 8.10959 16.2114 6.71823C15.9383 6.55758 15.8696 6.36041 15.8711 6.06978C15.8872 4.86195 15.8799 3.65121 15.8799 2.29004ZM14.561 8.17871C14.7494 8.0721 14.9101 7.96694 15.154 8.11299C17.3447 9.42743 19.5588 10.7273 21.8722 12.0943C20.0641 13.1166 18.2926 13.9652 16.6933 15.0649C15.3789 15.9748 14.3566 15.8536 13.0772 15.005C11.4341 13.9111 9.64504 13.0348 7.81944 12.0066C10.1431 10.6907 12.3528 9.43765 14.561 8.17871ZM2.26959 8.90896L13.9812 2.30465C13.9812 3.66582 13.971 4.87218 13.9812 6.07854C13.9929 6.20829 13.9631 6.3384 13.8962 6.45019C13.8293 6.56197 13.7287 6.64967 13.6088 6.7007C11.1231 8.06382 8.64023 9.43181 6.16033 10.8047C6.05405 10.8814 5.92629 10.9227 5.7952 10.9227C5.66411 10.9227 5.53636 10.8814 5.43008 10.8047C4.43841 10.1767 3.41169 9.58078 2.26959 8.90896ZM1.73798 20.2306V16.7182L4.89555 18.4708L1.73798 20.2306ZM27.4162 21.3844L17.9771 26.5545C17.1008 27.0321 16.2245 27.5024 15.3628 27.9858C15.097 28.1319 14.8765 28.2049 14.5625 28.0311C10.7711 25.929 6.97382 23.8356 3.17071 21.751C3.08146 21.6895 2.99831 21.6196 2.92243 21.5422C4.06745 20.8981 5.19202 20.2818 6.29907 19.6333C6.63498 19.4361 6.8526 19.6333 7.09211 19.7647C9.40114 21.0456 11.7145 22.3177 14.0031 23.6336C14.6501 24.006 15.1803 23.9943 15.8229 23.619C18.2897 22.1775 20.7885 20.7885 23.2597 19.3558C23.6978 19.1046 24.0075 19.1031 24.4178 19.3938C25.3628 20.0641 26.3428 20.6775 27.4162 21.3844ZM23.5386 17.2702C20.827 18.7775 18.1134 20.2818 15.3979 21.7831C15.1146 21.9409 14.8765 22.0533 14.5377 21.862C10.5739 19.6177 6.60431 17.3812 2.62887 15.1525C2.57173 15.108 2.51803 15.0591 2.46822 15.0065C3.56066 14.3902 4.60199 13.8191 5.62287 13.2159C5.91496 13.0421 6.10921 13.1575 6.35311 13.2919C8.90896 14.7261 11.478 16.1354 14.0207 17.593C14.672 17.9669 15.189 17.9596 15.8346 17.5769C18.2269 16.1471 20.6542 14.7699 23.0479 13.3415C23.4393 13.1093 23.7154 13.121 24.0907 13.3605C25.0707 13.9841 26.0813 14.561 27.1811 15.2168C25.9251 15.9295 24.7348 16.6057 23.5386 17.2702ZM28.4955 14.0119L25.5453 12.2593C25.3073 12.1133 25.3102 11.9877 25.5526 11.8489C26.4114 11.3597 27.2658 10.866 28.1246 10.3767C28.3553 10.2468 28.4941 10.311 28.4941 10.5856C28.497 11.6839 28.4955 12.7792 28.4955 14.0119Z" fill="#F6AA1B"/>
<path d="M158.932 16.9826C158.67 16.5342 158.7 16.3414 159.209 16.0756C161.017 15.1321 161.87 13.0626 161.35 11.0822C160.874 9.26683 159.16 7.99329 157.169 7.98744C155.636 7.9816 154.105 7.9816 152.574 7.98744C151.669 7.98744 151.435 8.20798 151.434 9.07551C151.434 11.0355 151.434 12.9954 151.434 14.9554C151.434 16.9636 151.434 18.9718 151.434 20.9814C151.434 21.7671 151.664 21.9847 152.427 21.992C153.246 21.992 153.49 21.7803 153.496 20.9828C153.505 19.7254 153.509 18.4664 153.496 17.2089C153.496 16.7197 153.662 16.4977 154.178 16.524C154.762 16.5532 155.346 16.5488 155.93 16.524C156.323 16.5079 156.545 16.654 156.722 17.0089C157.423 18.4124 158.159 19.7998 158.876 21.1961C159.303 22.0285 159.653 22.1834 160.337 21.827C161.067 21.4473 161.172 21.0515 160.721 20.2205C160.132 19.1324 159.55 18.0473 158.932 16.9826ZM156.925 14.7758C155.982 14.8254 155.026 14.7758 154.087 14.7904C153.664 14.7904 153.537 14.583 153.54 14.2062C153.54 13.5782 153.54 12.9502 153.54 12.3222C153.54 11.719 153.54 11.1158 153.54 10.5126C153.54 10.1504 153.686 9.98539 154.055 9.98977C155.05 10.0029 156.046 9.96202 157.039 10.0073C158.231 10.0613 159.171 11.11 159.186 12.3251C159.209 12.9494 158.985 13.5576 158.561 14.0167C158.137 14.4759 157.549 14.7488 156.925 14.7758Z" fill="#083454"/>
<path d="M60.5687 17.1272C60.2605 16.6058 60.2269 16.3619 60.8476 16.007C62.6762 14.9598 63.4444 12.9677 62.8923 11.0413C62.3402 9.11494 60.7103 7.98452 58.5474 7.98306C57.0645 7.98306 55.5821 7.98306 54.1002 7.98306C53.2239 7.98306 52.9858 8.2182 52.9844 9.09887C52.9844 11.0569 52.9844 13.0164 52.9844 14.9773C52.9844 16.9607 52.9844 18.944 52.9844 20.9273C52.9844 21.7189 53.2604 21.9906 54.0199 21.9877C54.7793 21.9847 55.0583 21.735 55.067 20.9332C55.0787 19.7487 55.0977 18.5628 55.0583 17.3784C55.0378 16.7635 55.2043 16.4714 55.8718 16.5386C56.3575 16.5849 56.8465 16.5849 57.3322 16.5386C57.8405 16.4948 58.1267 16.6744 58.3546 17.1374C59.0308 18.5248 59.7523 19.8919 60.4562 21.2662C60.8389 22.0125 61.2317 22.1629 61.9006 21.8255C62.6411 21.4517 62.7463 21.1041 62.3169 20.2964C61.7429 19.2346 61.1835 18.1641 60.5687 17.1272ZM58.5328 14.7904C58.0946 14.7831 57.6565 14.7904 57.2183 14.7904C55.1225 14.7904 55.1225 14.7904 55.1225 12.6946C55.1225 11.9921 55.1342 11.2911 55.1225 10.59C55.1138 10.1884 55.2788 10.0146 55.6804 10.019C56.7028 10.0292 57.7251 9.98831 58.7474 10.038C60.0239 10.1008 61.0536 11.2823 60.9864 12.5281C60.9546 13.151 60.6798 13.7367 60.2211 14.1594C59.7624 14.5821 59.1562 14.8081 58.5328 14.7889V14.7904Z" fill="#083454"/>
<path d="M122.083 20.3227C120.218 16.4008 118.348 12.4818 116.473 8.56577C116.327 8.27368 116.206 7.98158 115.824 7.96697C115.443 7.95237 115.28 8.22694 115.141 8.51758L109.389 20.5315C109.138 21.0588 109.146 21.5013 109.763 21.7875C110.48 22.1205 110.911 22.0358 111.224 21.421C111.554 20.7783 111.871 20.127 112.159 19.4639C112.305 19.1265 112.5 19.0082 112.871 19.0126C114.792 19.0316 116.711 19.0287 118.631 19.0126C118.998 19.0126 119.201 19.1295 119.351 19.4712C119.661 20.1766 120.004 20.8704 120.362 21.5539C120.559 21.9292 120.889 22.1249 121.329 21.9701C121.769 21.8153 122.288 21.697 122.324 20.9989C122.362 20.7842 122.194 20.5549 122.083 20.3227ZM117.781 17.2776C116.449 17.2776 115.117 17.2776 113.787 17.2776C113.485 17.2776 113.223 17.1972 113.406 16.8087C114.161 15.2022 114.923 13.5957 115.743 11.8665C116.577 13.6074 117.335 15.1876 118.093 16.7679C118.255 17.0994 118.152 17.2761 117.781 17.2776Z" fill="#083454"/>
</svg>
