<svg width="221" height="30" viewBox="0 0 221 30" fill="none" xmlns="http://www.w3.org/2000/svg">
<path d="M145.119 26.6375C141.49 31.3964 135.079 30.3607 131.916 27.682C126.84 23.3661 126.785 14.7403 131.866 10.4304C135.909 6.99764 141.384 7.35558 145.069 11.3105C145.122 11.2489 145.213 11.1932 145.224 11.1257C145.594 8.52916 145.594 8.52623 148.185 8.52623C151.444 8.52623 151.444 8.52622 151.444 11.736C151.444 17.2547 151.421 22.7735 151.468 28.2893C151.468 29.281 151.265 29.7416 150.2 29.592C149.664 29.5553 149.126 29.5553 148.59 29.592C145.679 29.5656 145.679 29.5656 145.119 26.6375ZM144.4 19.0474C144.4 16.1369 142.346 14.0362 139.483 14.0274C136.549 14.0274 134.351 16.1809 134.369 19.0532C134.369 21.8493 136.561 23.994 139.415 24.0175C142.27 24.0409 144.397 21.9256 144.4 19.0474Z" fill="#042530"/>
<path d="M93.0238 26.6815C88.8224 32.0184 80.5281 30.4575 77.5179 24.9006C75.2617 20.7344 75.3204 16.5154 77.9257 12.5399C80.1966 9.07786 83.5765 7.71943 87.6723 8.2094C89.6791 8.44999 90.6473 9.04558 92.9886 11.2372C93.023 11.2047 93.0535 11.1682 93.0796 11.1287C93.4903 10.3072 92.8625 9.01917 93.7514 8.59375C94.5084 8.23287 95.5705 8.5116 96.5005 8.50866C99.3788 8.50866 99.3788 8.50867 99.3788 11.381C99.3788 16.9995 99.3435 22.618 99.4081 28.2365C99.4081 29.369 99.0854 29.727 98.0115 29.5744C97.5231 29.5405 97.033 29.5405 96.5446 29.5744C93.5959 29.5627 93.5959 29.5627 93.0238 26.6815ZM87.373 14.0245C84.5242 14.0069 82.312 16.1164 82.2474 18.9154C82.2323 19.5867 82.3529 20.2541 82.602 20.8777C82.8511 21.5012 83.2235 22.0681 83.6969 22.5442C84.1703 23.0204 84.735 23.396 85.3571 23.6487C85.9792 23.9014 86.6459 24.0258 87.3173 24.0146C88.6401 24.022 89.9117 23.5036 90.8523 22.5734C91.7929 21.6433 92.3255 20.3776 92.3329 19.0547C92.3403 17.7319 91.8219 16.4603 90.8917 15.5197C89.9616 14.5791 88.6959 14.0465 87.373 14.0392V14.0245Z" fill="#042530"/>
<path d="M59.6254 11.1464C61.063 10.0843 62.3334 9.20117 63.8121 8.67306C69.5509 6.61929 74.2511 9.42122 74.6677 15.4534C74.9611 19.8749 74.7499 24.3345 74.7939 28.7765C74.7939 29.4777 74.4741 29.5774 73.9137 29.5716C72.3998 29.5481 70.8859 29.5188 69.372 29.5716C68.524 29.6068 68.4302 29.2078 68.436 28.5154C68.4654 25.8308 68.4595 23.1433 68.436 20.4587C68.4494 19.5305 68.4024 18.6024 68.2952 17.6803C68.0018 15.5238 67.0336 14.3532 65.4287 14.0774C63.3486 13.7195 61.418 14.5879 60.4205 16.3277C59.862 17.3644 59.5887 18.5308 59.6283 19.7076C59.6283 22.6416 59.596 25.5755 59.6283 28.5095C59.643 29.3222 59.4493 29.6273 58.5868 29.5862C57.1726 29.5158 55.7526 29.5305 54.3384 29.5862C53.599 29.6156 53.3291 29.4337 53.3321 28.6268C53.3653 22.2308 53.3653 15.8338 53.3321 9.43588C53.3321 8.59677 53.6577 8.47648 54.3619 8.50582C55.4816 8.59974 56.6073 8.59974 57.7271 8.50582C59.0298 8.33565 59.4875 8.8667 59.4875 10.0667C59.5128 10.4289 59.5589 10.7894 59.6254 11.1464Z" fill="#042530"/>
<path d="M213.376 20.934C211.372 20.934 209.368 20.934 207.364 20.934C206.971 20.934 206.416 20.6612 206.191 21.2098C206.02 21.6441 206.302 22.0607 206.528 22.4392C207.813 24.5809 211.739 25.1883 213.822 23.2871C214.954 22.2484 215.987 22.2455 217.249 22.445C217.68 22.5125 218.129 22.5565 218.557 22.5976C220.67 22.7883 220.711 22.8704 219.678 24.8098C217.765 28.398 213.71 30.3843 209.262 29.8914C204.908 29.4161 201.479 26.4997 200.232 22.2074C198.903 17.6304 200.411 12.7248 203.958 10.0872C207.346 7.56696 212.413 7.34985 215.958 9.69701C219.728 12.1909 220.854 15.9551 220.799 20.2592C220.799 21.0514 220.297 20.937 219.816 20.934H213.376ZM210.263 16.6563C211.387 16.6563 212.51 16.6329 213.631 16.6563C214.394 16.6798 214.631 16.4568 214.244 15.7321C213.396 14.1507 211.938 13.693 210.31 13.6784C208.681 13.6637 207.206 14.1331 206.334 15.6764C206.012 16.2485 205.991 16.6945 206.895 16.6593C208.015 16.6241 209.139 16.6593 210.263 16.6563Z" fill="#042530"/>
<path d="M45.4014 27.0632C43.776 28.2896 42.0596 29.3341 40.0088 29.7625C34.7746 30.8539 30.8637 28.1283 30.5556 22.7943C30.3004 18.3641 30.4617 13.9133 30.4089 9.47129C30.4089 8.7114 30.6495 8.45321 31.427 8.48842C32.8412 8.55296 34.2612 8.54709 35.6754 8.48842C36.5027 8.45614 36.7462 8.72606 36.7521 9.56517C36.7756 12.9803 36.5555 16.4013 36.8724 19.8105C37.1335 22.6418 38.1369 23.8418 40.2494 24.0295C42.6904 24.2437 44.6503 22.8178 45.3104 20.324C45.7505 18.6428 45.4894 16.9206 45.5275 15.2189C45.5716 13.3148 45.5657 11.4048 45.5275 9.5065C45.5275 8.77008 45.7124 8.45907 46.5163 8.49135C47.9833 8.55296 49.4502 8.54709 50.9172 8.49135C51.7182 8.46201 51.906 8.78474 51.903 9.5153C51.8835 15.8624 51.8835 22.2095 51.903 28.5566C51.903 29.4368 51.5803 29.6627 50.7881 29.5894C50.2013 29.5336 49.6145 29.5894 49.0278 29.5718C48.1006 29.5718 47.0913 29.7654 46.2698 29.4632C45.3427 29.117 46.0791 27.8173 45.4014 27.0632Z" fill="#05A6B5"/>
<path d="M189.356 22.5271C191.026 18.1555 192.677 13.8836 194.273 9.58835C194.567 8.78151 194.936 8.44704 195.84 8.48518C197.733 8.56733 199.628 8.51159 201.732 8.51159L198.352 16.5799C196.67 20.5819 194.969 24.575 193.329 28.5915C193.018 29.3485 192.625 29.6126 191.815 29.5832C190.054 29.5216 188.294 29.5333 186.534 29.5832C185.85 29.6008 185.492 29.4042 185.216 28.747C182.491 22.1721 179.715 15.6205 176.957 9.06024C176.916 8.87927 176.897 8.69417 176.899 8.50865C179.014 8.50865 181.097 8.53212 183.18 8.50865C183.961 8.50865 183.996 9.09544 184.172 9.55901C185.68 13.4729 187.159 17.3956 188.664 21.2948C188.81 21.685 188.816 22.1721 189.356 22.5271Z" fill="#042530"/>
<path d="M162.787 21.9757C162.787 24.1762 162.758 26.3766 162.787 28.5712C162.802 29.3253 162.602 29.6098 161.81 29.5776C160.396 29.5218 158.976 29.5013 157.562 29.5776C156.599 29.6362 156.444 29.2548 156.453 28.404C156.494 24.1556 156.432 19.8955 156.497 15.656C156.514 14.5939 156.177 14.2653 155.182 14.4032C154.751 14.4619 154.302 14.3709 153.865 14.4208C153.12 14.5088 152.935 14.1626 152.985 13.4907C153.034 12.8189 152.985 12.1235 152.985 11.437C153.005 10.5157 152.729 9.38321 153.169 8.73187C153.61 8.08053 154.798 8.52943 155.654 8.52356C156.312 8.52356 156.485 8.26537 156.473 7.64337C156.441 6.1764 156.499 4.70942 156.45 3.24245C156.423 2.49429 156.623 2.20383 157.421 2.23611C158.888 2.29772 160.355 2.29479 161.822 2.23611C162.617 2.20677 162.816 2.49429 162.787 3.24832C162.728 4.66248 162.805 6.08251 162.755 7.49668C162.728 8.24483 162.931 8.61744 163.726 8.49128C163.774 8.48397 163.824 8.48397 163.872 8.49128C165.119 8.58224 167.176 7.99545 167.449 8.7348C168.036 10.281 167.695 12.1705 167.698 13.922C167.698 14.5088 167.191 14.3885 166.818 14.3915C165.794 14.3915 164.764 14.4413 163.743 14.3915C162.972 14.3445 162.734 14.5968 162.752 15.3743C162.834 17.5807 162.79 19.7782 162.787 21.9757Z" fill="#042530"/>
<path d="M3.48847 21.8788C3.48847 19.825 3.43859 17.7713 3.51194 15.7175C3.54714 14.7288 3.32123 14.3532 2.25034 14.365C0 14.4178 0 14.3532 0 12.0647V11.1846C0 8.62323 0 8.58802 2.51439 8.52054C3.28602 8.5 3.53834 8.28289 3.50607 7.51126C3.45032 6.14698 3.54421 4.77682 3.47086 3.40373C3.42392 2.52355 3.69678 2.1216 4.6063 2.23015C4.99358 2.27123 5.38673 2.23015 5.77988 2.27123C7.07375 2.37685 8.84292 1.68444 9.53533 2.56462C10.1837 3.392 9.74951 5.07902 9.76125 6.37876C9.77885 8.4824 9.76125 8.4824 11.8297 8.4824C14.7079 8.4824 14.7079 8.4824 14.705 11.3782C14.705 14.3679 14.705 14.453 11.6478 14.3591C10.1339 14.3092 9.67616 14.7141 9.72311 16.272C9.8434 20.271 9.72311 24.2758 9.78765 28.2777C9.78765 29.2958 9.52653 29.6508 8.48791 29.5804C7.17182 29.5036 5.85251 29.4987 4.53588 29.5658C3.67917 29.601 3.45913 29.2724 3.47673 28.4567C3.52074 26.2797 3.4914 24.0881 3.48847 21.8788Z" fill="#05A6B5"/>
<path d="M121.705 10.4131C123.313 8.94608 124.704 7.88399 126.646 8.13631C128.339 8.35636 128.641 8.76417 128.38 10.3984C128.304 10.8825 128.239 11.3666 128.163 11.8478C128.04 12.6194 128.139 13.5524 127.732 14.1157C127.277 14.7377 126.444 13.9631 125.737 13.9983C124.231 14.0717 123.278 14.8492 122.676 16.1372C121.978 17.6306 121.834 19.2413 121.82 20.8608C121.799 23.3048 121.735 25.7517 121.846 28.1957C121.899 29.4192 121.471 29.6627 120.379 29.5923C119.109 29.5217 117.835 29.5217 116.565 29.5923C115.849 29.6216 115.529 29.4837 115.535 28.6505C115.57 22.2486 115.57 15.8457 115.535 9.44192C115.535 8.60868 115.829 8.47078 116.553 8.50892C117.53 8.57507 118.51 8.57507 119.487 8.50892C120.737 8.38276 121.84 8.40036 121.705 10.4131Z" fill="#042530"/>
<path d="M107.028 10.5274C108.566 9.19248 109.686 8.25362 111.241 8.11279C113.33 7.91915 114.084 8.64677 113.826 10.6448C113.773 11.0321 113.712 11.4164 113.65 11.8008C113.53 12.5724 113.627 13.4966 113.225 14.0746C112.72 14.8022 111.878 13.9337 111.139 13.9983C110.504 14.0324 109.891 14.2456 109.372 14.6132C108.853 14.9808 108.448 15.4877 108.205 16.0755C107.604 17.4157 107.312 18.8734 107.348 20.3415C107.333 22.982 107.272 25.6226 107.363 28.2426C107.404 29.3839 107.034 29.6597 105.963 29.5834C104.648 29.513 103.33 29.513 102.014 29.5834C101.281 29.6098 100.993 29.4221 100.996 28.6123C101.031 22.2221 101.031 15.833 100.996 9.4448C100.996 8.61449 101.307 8.4678 102.02 8.50301C103.041 8.54995 104.074 8.52354 105.092 8.50301C106.21 8.4942 107.515 8.20081 107.028 10.5274Z" fill="#042530"/>
<path d="M22.2296 10.3599C23.0306 9.74378 23.5499 9.31542 24.0956 8.93401C24.7381 8.48288 25.4798 8.19306 26.2579 8.08903C28.3792 7.79563 29.2564 8.69342 28.9278 10.7296C28.8574 11.1638 28.7928 11.6098 28.7254 12.0323C28.6109 12.7511 28.7048 13.6225 28.3234 14.1506C27.8774 14.7696 27.1176 13.9951 26.4516 14.0127C24.9376 14.0567 23.7905 14.8254 23.145 16.439C22.5582 17.8679 22.4467 19.373 22.4408 20.8928C22.4408 23.4277 22.4086 25.9656 22.4614 28.5034C22.479 29.3425 22.2267 29.6125 21.3876 29.5802C19.9734 29.5245 18.5563 29.5421 17.1421 29.5978C16.3969 29.6271 16.1182 29.4188 16.1211 28.6237C16.1505 22.2336 16.1505 15.8425 16.1211 9.45038C16.1211 8.63767 16.435 8.45871 17.1568 8.49391C18.1309 8.54086 19.1079 8.49391 20.0907 8.49391C21.2321 8.50858 22.6257 8.13597 22.2296 10.3599Z" fill="#05A6B5"/>
<path d="M174.697 29.5392H170.507C170.394 29.4646 170.261 29.4262 170.126 29.4294C169.99 29.4325 169.859 29.477 169.75 29.5569C168.996 29.6302 169.025 29.1256 169.028 28.6063C169.028 22.2572 169.028 15.9081 169.028 9.55906C169.028 8.79623 169.228 8.52338 170.017 8.55565C171.484 8.61139 172.951 8.57912 174.418 8.55565C174.946 8.55565 175.442 8.53805 175.298 9.30087C175.272 9.31848 175.219 9.34195 175.222 9.35075C175.244 9.41069 175.27 9.46945 175.298 9.52679V11.651C175.233 11.7178 175.197 11.8072 175.197 11.9004C175.197 11.9935 175.233 12.0829 175.298 12.1497C175.298 17.7321 175.298 23.3173 175.298 28.9055L175.248 28.9437H175.31C175.31 29.3221 175.151 29.5304 174.758 29.5304V29.4718L174.697 29.5392Z" fill="#042530"/>
<path d="M175.156 3.10153C175.14 3.69758 174.949 4.27567 174.605 4.76302C174.262 5.25037 173.782 5.62521 173.226 5.84035C172.67 6.0555 172.062 6.10133 171.48 5.97208C170.898 5.84283 170.367 5.54428 169.955 5.114C169.542 4.68373 169.265 4.14096 169.16 3.55402C169.056 2.96708 169.127 2.3622 169.365 1.81552C169.603 1.26884 169.997 0.804798 170.498 0.481803C170.999 0.158807 171.585 -0.00870684 172.181 0.000348671C172.582 0.00122162 172.979 0.0829877 173.348 0.240751C173.717 0.398514 174.05 0.629036 174.328 0.918537C174.606 1.20804 174.822 1.55057 174.964 1.92565C175.107 2.30074 175.172 2.70067 175.156 3.10153Z" fill="#042530"/>
<path d="M169.75 29.554C169.859 29.4741 169.99 29.4296 170.126 29.4265C170.261 29.4233 170.394 29.4617 170.507 29.5364L169.75 29.554Z" fill="#05A6B5"/>
<path d="M175.277 12.1587C175.212 12.0919 175.176 12.0025 175.176 11.9094C175.176 11.8162 175.212 11.7268 175.277 11.66C175.342 11.7268 175.378 11.8162 175.378 11.9094C175.378 12.0025 175.342 12.0919 175.277 12.1587Z" fill="#05A6B5"/>
<path d="M175.275 9.53544C175.247 9.4781 175.222 9.41934 175.199 9.3594C175.199 9.3594 175.249 9.32713 175.275 9.30952C175.304 9.36205 175.327 9.41704 175.346 9.47382C175.352 9.48849 175.302 9.5149 175.275 9.53544Z" fill="#05A6B5"/>
<path d="M175.292 28.9643L175.23 28.9526L175.28 28.9144L175.345 28.9232L175.292 28.9643Z" fill="#05A6B5"/>
<path d="M174.699 29.5391L174.731 29.4922L174.743 29.5508L174.705 29.5978L174.699 29.5391Z" fill="#05A6B5"/>
</svg>
