<svg width="115" height="46" viewBox="0 0 115 46" fill="none" xmlns="http://www.w3.org/2000/svg">
<path d="M40.5297 30.8336H21.3306H20.5124H19.3326H18.8379C18.7428 30.8336 18.6476 30.8528 18.5715 30.872C17.4108 31.0828 16.6497 32.2134 16.859 33.3824C17.0493 34.398 17.9246 35.1454 18.9521 35.1454C18.9901 35.1454 19.0282 35.1454 19.0662 35.1454H20.0747C21.7301 35.1454 23.2333 36.7934 23.9564 38.3073L25.4025 41.3351C27.0009 45.1869 31.3963 47.0266 35.2209 45.4169C37.0857 44.6312 38.5508 43.1364 39.3119 41.2584C39.331 41.2201 39.35 41.1818 39.369 41.1435C39.7876 40.3961 42.5657 33.7273 42.5657 33.7273C42.775 33.1141 42.6989 32.4434 42.3564 31.8876C41.9758 31.2744 41.3289 30.8911 40.6058 30.872L40.5297 30.8336ZM2.2646 15.4264C1.02779 15.4264 0.0383363 16.4229 0.0383363 17.6685C0.0383363 18.9141 1.02779 19.9106 2.2646 19.9106H5.04267C6.26046 19.8723 7.23088 18.8375 7.19283 17.611C7.15477 16.4229 6.20338 15.4647 5.04267 15.4456L2.2646 15.4264ZM46.5235 15.4264H34.612C34.5359 15.4264 34.4598 15.4647 34.4408 15.5414L32.4429 20.1214C32.4048 20.2172 32.2906 20.2747 32.1955 20.2364C32.1384 20.2172 32.1004 20.1789 32.0813 20.1214L31.6437 19.3165C31.5676 19.1824 31.5105 19.0674 31.4344 18.9333C31.0348 18.2434 30.521 17.6493 29.9121 17.1319C28.6944 16.0971 27.1531 15.5031 25.5548 15.4456C25.4596 15.4456 25.3645 15.4456 25.2693 15.4456H11.6644C10.4847 15.4647 9.55229 16.4421 9.57131 17.6302C9.59034 18.6458 10.3324 19.5273 11.3219 19.6998C11.436 19.7381 11.5502 19.7573 11.6644 19.7573H13.6623C15.4319 19.7573 16.5926 21.3478 17.3537 22.9576L17.506 23.2642L18.5144 25.353C18.5715 25.5063 18.6857 25.7171 18.7998 25.9279C18.914 26.1387 19.0282 26.3494 19.1423 26.5411C19.2185 26.6752 19.3136 26.8094 19.4087 26.9243C20.4743 28.3041 22.3961 28.5915 24.2418 28.5915H44.7539C46.0668 25.6021 47.4749 22.2677 48.883 19.0099C49.1113 18.4734 49.3016 18.0134 49.3016 17.611C49.3396 16.4229 48.4073 15.4456 47.2275 15.4072C47.2085 15.4072 47.1895 15.4072 47.1704 15.4072L46.5235 15.4264ZM2.11238 0C0.932648 0.0191632 -0.0187474 0.977325 0.000280525 2.16545C0.0193084 3.21942 0.780425 4.1201 1.82696 4.2734C1.84599 4.29256 1.94113 4.31173 2.11238 4.33089H6.6981C8.4677 4.33089 10.047 5.9406 10.8081 7.55031L10.9413 7.83776C11.1887 8.43182 11.4931 9.14086 11.7976 9.86907L11.8356 9.94572C12.9963 12.6669 14.804 13.2035 17.7533 13.2035H29.1701L25.5167 4.8483L25.2884 4.31173C24.6604 2.85532 23.5568 1.6672 22.1678 0.919835L22.0726 0.862346L21.9775 0.804856C21.4638 0.536571 20.9119 0.344938 20.3411 0.191632C19.9415 0.0958162 19.5419 0.0191632 19.1233 0H2.11238ZM37.9039 0C39.0836 0.0383265 39.9969 1.01565 39.9779 2.20377C39.9779 2.49122 39.9018 2.77867 39.7876 3.04695C39.7876 3.06612 39.7686 3.10444 39.7496 3.14277C39.7305 3.1811 39.1597 4.50336 39.1407 4.52252L35.4493 13.1843H51.3756C53.031 9.35166 54.5533 5.7873 55.7901 2.91281C56.38 1.53306 55.2573 0 53.7922 0H37.9039Z" fill="url(#paint0_linear_636_5743)"/>
<path d="M58.475 32.1751C58.475 32.8841 57.9803 33.344 57.2572 33.344H56.2868V34.7813H55.9062V31.0444H57.2572C57.9993 31.0444 58.475 31.5044 58.475 32.1751ZM58.0754 32.2134C58.0945 31.7727 57.752 31.3894 57.2953 31.3702C57.2572 31.3702 57.2382 31.3702 57.2002 31.3702H56.2678V33.0566H57.2002C57.6378 33.0949 58.0374 32.7691 58.0754 32.3092C58.0754 32.2709 58.0754 32.2326 58.0754 32.2134Z" fill="#231F20"/>
<path d="M58.8359 33.459C58.8359 32.6159 59.3877 32.0601 60.2059 32.0601C61.0241 32.0601 61.5569 32.6159 61.5569 33.459C61.5569 34.3022 61.0051 34.8579 60.2059 34.8579C59.4068 34.8579 58.8359 34.2831 58.8359 33.459ZM61.1764 33.459C61.1764 32.8075 60.7958 32.3859 60.2059 32.3859C59.6161 32.3859 59.2165 32.8075 59.2165 33.459C59.2165 34.1106 59.6161 34.5322 60.2059 34.5322C60.7958 34.5322 61.1764 34.1106 61.1764 33.459Z" fill="#231F20"/>
<path d="M66.2919 32.1176L65.2453 34.8005H64.8838L64.0466 32.5392L63.2284 34.8005H62.8478L61.8203 32.1176H62.2199L63.0571 34.3789L63.8944 32.1176H64.2178L65.036 34.3789L65.8733 32.1176H66.2919Z" fill="#231F20"/>
<path d="M69.0703 33.5931H66.9392C66.9772 34.168 67.3007 34.5513 67.8335 34.5513C68.176 34.5513 68.4994 34.3788 68.6897 34.0914L68.9751 34.2447C68.7278 34.6279 68.2901 34.8579 67.8335 34.8387C67.0723 34.8387 66.5586 34.283 66.5586 33.4398C66.5586 32.5966 67.0723 32.0409 67.8335 32.0409C68.5946 32.0409 69.0893 32.5775 69.0893 33.4015C69.0703 33.4782 69.0703 33.5356 69.0703 33.5931ZM66.9392 33.3248H68.6897C68.6517 32.7308 68.3282 32.3475 67.8144 32.3475C67.3007 32.3475 66.9772 32.7308 66.9392 33.3248Z" fill="#231F20"/>
<path d="M71.1263 32.0601L71.0883 32.4051C70.4413 32.4051 70.0608 32.7308 70.0608 33.2482V34.8005H69.6992V32.1176H70.0608V32.5775C70.251 32.2326 70.6126 32.0601 71.1263 32.0601Z" fill="#231F20"/>
<path d="M73.7343 33.5931H71.6032C71.6413 34.168 71.9647 34.5513 72.4975 34.5513C72.84 34.5513 73.1635 34.3788 73.3538 34.0914L73.6392 34.2447C73.3918 34.6279 72.9542 34.8579 72.4975 34.8387C71.7364 34.8387 71.2227 34.283 71.2227 33.4398C71.2227 32.5966 71.7174 32.0409 72.4975 32.0409C73.2777 32.0409 73.7534 32.5775 73.7534 33.4015C73.7343 33.459 73.7343 33.5548 73.7343 33.5931ZM71.6032 33.3248H73.3538C73.3157 32.7308 72.9923 32.3475 72.4785 32.3475C71.9647 32.3475 71.6413 32.7308 71.6032 33.3248Z" fill="#231F20"/>
<path d="M76.9129 30.8337V34.8005H76.5514V34.2256C76.3611 34.628 75.9425 34.8771 75.4858 34.8579C74.7437 34.8579 74.2109 34.3022 74.2109 33.4782C74.2109 32.6542 74.7437 32.0793 75.4858 32.0793C75.9425 32.0601 76.3611 32.3092 76.5514 32.7117V30.8528L76.9129 30.8337ZM76.5514 33.459C76.5514 32.8075 76.1518 32.3859 75.5619 32.3859C74.9721 32.3859 74.5725 32.8075 74.5725 33.459C74.5725 34.1106 74.9721 34.5322 75.5619 34.5322C76.1518 34.5322 76.5514 34.1106 76.5514 33.459Z" fill="#231F20"/>
<path d="M81.784 33.459C81.784 34.3022 81.2512 34.8387 80.5091 34.8387C80.0525 34.8771 79.6338 34.6088 79.4436 34.2063V34.7812H79.082V30.8145H79.4436V32.6733C79.6338 32.2709 80.0525 32.0217 80.5091 32.0409C81.2512 32.0601 81.784 32.6158 81.784 33.459ZM81.4034 33.459C81.4034 32.8074 81.0038 32.3858 80.414 32.3858C79.8241 32.3858 79.4245 32.8074 79.4245 33.459C79.4245 34.1105 79.8241 34.5321 80.414 34.5321C81.0038 34.5321 81.4034 34.1105 81.4034 33.459Z" fill="#231F20"/>
<path d="M82.2971 35.9119L82.3352 35.6053C82.4113 35.6436 82.4874 35.6628 82.5635 35.6436C82.7919 35.6436 82.887 35.4903 82.9821 35.2603L83.2105 34.7621L82.0117 32.0984H82.4113L83.4008 34.3597L84.3521 32.0984H84.7517L83.3246 35.2986C83.1534 35.6819 82.9821 35.9502 82.6016 35.9502C82.5064 35.9694 82.3923 35.9502 82.2971 35.9119Z" fill="#231F20"/>
<path d="M55.3516 37.2917H55.9224L57.2544 40.4153L58.5483 37.2917H59.1381L57.5017 41.086H56.988L55.3516 37.2917Z" fill="#231F20"/>
<path d="M60.1656 37.7324V39.0355H61.6688V39.4955H60.1656V41.086H59.6328V37.2917H61.8781V37.7324H60.1656Z" fill="#231F20"/>
<path d="M65.7816 39.1888C65.7816 40.3194 65.0395 41.086 63.9359 41.086H62.5469V37.2725H63.9359C65.0395 37.2917 65.7816 38.0582 65.7816 39.1888ZM65.2108 39.208C65.2108 38.3265 64.678 37.7516 63.8979 37.7516H63.0797V40.6644H63.8979C64.697 40.6452 65.2108 40.0703 65.2108 39.208Z" fill="#231F20"/>
<path d="M71.5092 41.086L71.338 38.2115L70.0441 41.086H69.7206L68.4267 38.2115L68.2554 41.086H67.7227L67.951 37.2533H68.5409L69.8918 40.2045L71.2238 37.2533H71.8137L72.042 41.086H71.5092Z" fill="#231F20"/>
<path d="M72.7422 37.4449C72.7422 37.2725 72.8944 37.1192 73.0657 37.1192C73.2369 37.1192 73.3891 37.2725 73.3891 37.4449C73.3891 37.6174 73.2369 37.7707 73.0657 37.7707C72.8944 37.7707 72.7422 37.6366 72.7422 37.4641V37.4449ZM72.8183 38.3456H73.3321V41.1051H72.8183V38.3456Z" fill="#231F20"/>
<path d="M73.9414 39.7254C73.9414 38.863 74.5122 38.2881 75.3685 38.2881C75.692 38.2881 76.0154 38.384 76.2818 38.5948L75.9774 38.9397C75.8061 38.7864 75.5968 38.7097 75.3685 38.7289C74.8357 38.7289 74.4742 39.1122 74.4742 39.7062C74.4742 40.3003 74.8357 40.6836 75.3685 40.6836C75.6159 40.6836 75.8823 40.5877 76.0535 40.4153L76.3579 40.7794C76.0725 41.0285 75.711 41.1626 75.3495 41.1435C74.6074 41.1818 73.9795 40.6261 73.9414 39.8979C73.9414 39.8212 73.9414 39.7829 73.9414 39.7254Z" fill="#231F20"/>
<path d="M78.4353 38.2881L78.3972 38.7672C77.7883 38.7672 77.4078 39.0738 77.4078 39.5529V41.086H76.875V38.3456H77.3697V38.7481C77.579 38.4606 77.9596 38.2881 78.4353 38.2881Z" fill="#231F20"/>
<path d="M78.5469 39.7254C78.5469 38.9397 79.1748 38.2881 79.9549 38.2881C80.7351 38.2881 81.382 38.9205 81.382 39.7062C81.382 40.4919 80.7541 41.1435 79.974 41.1435C79.1177 41.1435 78.5469 40.5686 78.5469 39.7254ZM80.8493 39.7254C80.8493 39.1505 80.4877 38.7481 79.974 38.7481C79.4602 38.7481 79.0797 39.1313 79.0797 39.7254C79.0797 40.3194 79.4412 40.6836 79.974 40.6836C80.5067 40.6836 80.8493 40.3003 80.8493 39.7254Z" fill="#231F20"/>
<path d="M82.9809 37.0234C83.1712 37.0234 83.3805 37.0617 83.5517 37.1384L83.5137 37.5408C83.3995 37.4833 83.2663 37.4641 83.1331 37.4641C82.9048 37.445 82.6955 37.6174 82.6574 37.8474C82.6574 37.8666 82.6574 37.8857 82.6574 37.9049V38.3265H83.4756V38.7481H82.6574V41.0668H82.1246V38.7481H81.668V38.3265H82.1246V37.8282C82.1056 37.4066 82.4291 37.0234 82.8667 37.0042C82.9238 37.0042 82.9428 37.0042 82.9809 37.0234ZM83.8942 37.4258C83.8942 37.2533 84.0465 37.1 84.2177 37.1C84.389 37.1 84.5412 37.2533 84.5412 37.4258C84.5412 37.5983 84.389 37.7516 84.2177 37.7516C84.0465 37.7516 83.8942 37.6174 83.8942 37.445C83.8942 37.445 83.8942 37.445 83.8942 37.4258ZM83.9513 38.3265H84.4651V41.086H83.9513V38.3265Z" fill="#231F20"/>
<path d="M87.8149 39.3613V41.086H87.3011V39.4571C87.3011 39.0355 86.9586 38.6906 86.54 38.6906C86.1214 38.6906 85.7789 39.0355 85.7789 39.4571V41.086H85.2461V38.3456H85.7408L85.7598 38.748C85.9692 38.4414 86.3307 38.269 86.6922 38.2881C87.3582 38.2881 87.8149 38.7097 87.8149 39.3613Z" fill="#231F20"/>
<path d="M90.7066 39.3613V41.086H90.1929L90.1738 40.6069C89.9835 40.9518 89.622 41.1435 89.2415 41.1435C88.6897 41.1435 88.3281 40.8177 88.3281 40.3194C88.3281 39.8212 88.7848 39.4571 89.4698 39.4571C89.6981 39.4571 89.9455 39.4763 90.1738 39.5338V39.4188C90.1738 38.978 89.8884 38.7097 89.4317 38.7097C89.1654 38.6906 88.918 38.7864 88.7277 38.978L88.4994 38.6714C88.7848 38.4223 89.1654 38.2881 89.5649 38.3073C90.2499 38.2881 90.7066 38.7097 90.7066 39.3613ZM90.1929 39.8979C89.9836 39.8595 89.7742 39.8212 89.5459 39.8212C89.1463 39.8212 88.8799 40.0128 88.8799 40.3003C88.8799 40.5877 89.0702 40.7602 89.3937 40.7602C89.8504 40.741 90.2119 40.3578 90.1929 39.8979Z" fill="#231F20"/>
<path d="M93.999 39.3613V41.086H93.4852V39.4571C93.5042 39.0738 93.1998 38.748 92.8192 38.748C92.7812 38.748 92.7621 38.748 92.7241 38.748C92.2674 38.748 91.963 39.0355 91.963 39.4571V41.086H91.4492V38.3456H91.9439V38.748C92.1533 38.4414 92.5148 38.269 92.8953 38.2881C93.5613 38.2881 93.999 38.7097 93.999 39.3613Z" fill="#231F20"/>
<path d="M94.5703 39.7254C94.5703 38.863 95.1411 38.2881 95.9974 38.2881C96.3209 38.2881 96.6444 38.384 96.9107 38.5948L96.6063 38.9397C96.435 38.7864 96.2257 38.7097 95.9974 38.7289C95.4646 38.7289 95.1031 39.1122 95.1031 39.7062C95.1031 40.3003 95.4646 40.6836 95.9974 40.6836C96.2448 40.7027 96.5112 40.5877 96.6824 40.4153L96.9869 40.7794C96.7014 41.0285 96.3399 41.1626 95.9784 41.1435C95.2363 41.201 94.6084 40.6261 94.5703 39.8979C94.5703 39.8404 94.5703 39.7829 94.5703 39.7254Z" fill="#231F20"/>
<path d="M99.8988 39.917H97.8247C97.8818 40.4153 98.1292 40.741 98.6049 40.741C98.9093 40.741 99.2138 40.5877 99.385 40.3386L99.7846 40.5494C99.5182 40.9327 99.0806 41.1626 98.6049 41.1435C97.8057 41.1435 97.2539 40.5686 97.2539 39.7254C97.2539 38.8822 97.7867 38.2881 98.5859 38.2881C99.385 38.2881 99.8988 38.8439 99.8988 39.6871C99.9178 39.7637 99.9178 39.8404 99.8988 39.917ZM97.8247 39.5529H99.385C99.347 39.0355 99.0616 38.7097 98.6049 38.7097C98.1482 38.7097 97.8818 39.0355 97.8247 39.5529Z" fill="#231F20"/>
<path d="M104.749 40.0128C104.749 40.6644 104.235 41.086 103.474 41.086H101.914V37.2725H103.417C104.102 37.2725 104.559 37.6558 104.559 38.2498C104.559 38.6139 104.331 38.9397 103.988 39.0738C104.426 39.1697 104.749 39.5529 104.749 40.0128ZM102.466 38.9014H103.303C103.722 38.9014 104.007 38.6714 104.007 38.3073C104.007 37.9432 103.722 37.7132 103.303 37.7132H102.466V38.9014ZM104.178 39.9937C104.178 39.6104 103.874 39.3613 103.436 39.3613H102.447V40.6452H103.417C103.893 40.6452 104.178 40.3769 104.178 39.9937Z" fill="#231F20"/>
<path d="M107.527 39.3613V41.086H107.013L106.994 40.6069C106.804 40.9518 106.442 41.1435 106.062 41.1435C105.51 41.1435 105.148 40.8177 105.148 40.3194C105.148 39.8212 105.605 39.4571 106.29 39.4571C106.518 39.4571 106.766 39.4763 106.994 39.5338V39.4188C106.994 38.978 106.709 38.7097 106.252 38.7097C105.986 38.6906 105.738 38.7864 105.548 38.978L105.32 38.6714C105.605 38.4223 105.986 38.2881 106.385 38.3073C107.07 38.2881 107.527 38.7097 107.527 39.3613ZM106.994 39.8979C106.785 39.8595 106.576 39.8212 106.347 39.8212C105.948 39.8212 105.681 40.0128 105.681 40.3003C105.681 40.5877 105.871 40.7602 106.195 40.7602C106.671 40.741 107.013 40.3769 106.994 39.8979C106.994 39.917 106.994 39.917 106.994 39.8979Z" fill="#231F20"/>
<path d="M110.818 39.3613V41.086H110.285V39.4571C110.305 39.0738 110 38.748 109.62 38.748C109.581 38.748 109.562 38.748 109.524 38.748C109.068 38.748 108.763 39.0355 108.763 39.4571V41.086H108.23V38.3456H108.725V38.748C108.935 38.4414 109.296 38.269 109.677 38.2881C110.362 38.2881 110.818 38.7097 110.818 39.3613Z" fill="#231F20"/>
<path d="M112.495 39.8595H112.095V41.086H111.562V37.0808H112.095V39.4379H112.495L113.465 38.3456H114.131L112.913 39.6487L114.188 41.086H113.522L112.495 39.8595Z" fill="#231F20"/>
<defs>
<linearGradient id="paint0_linear_636_5743" x1="0.000280525" y1="22.9955" x2="55.9467" y2="22.9955" gradientUnits="userSpaceOnUse">
<stop stop-color="#A6418A"/>
<stop offset="0.57" stop-color="#EF3B3E"/>
<stop offset="1" stop-color="#F79532"/>
</linearGradient>
</defs>
</svg>
